<?xml version="1.0" encoding="UTF-8"?>
<svg id="Ebene_1" xmlns="http://www.w3.org/2000/svg" version="1.1" viewBox="0 0 500 124.0908037">
  <!-- Generator: Adobe Illustrator 29.0.0, SVG Export Plug-In . SVG Version: 2.1.0 Build 186)  -->
  <defs>
    <style>
      .st0 {
        fill: #1d1d1b;
      }

      .st1 {
        fill: #2eafff;
        fill-rule: evenodd;
      }

      .st2 {
        fill: #1a1a1a;
      }
    </style>
  </defs>
  <g>
    <path class="st0" d="M229.657393,72.1145044c0,5.4994499-1.5510553,10.1011932-7.3323341,10.1011932-5.7816774,0-7.3329321-4.6017432-7.3329321-10.1011932v-23.4081399h-10.4350428v25.6643653c0,10.0119008,8.0379029,15.8483894,17.7679748,15.8483894,9.7296733,0,17.7673769-5.8364885,17.7673769-15.8483894v-25.6643653h-10.4350428v23.4081399Z"/>
    <path class="st0" d="M168.0299498,34.6789006h-16.1746651v54.549632h16.1746651c17.3067641,0,30.324308-5.6445499,30.324308-27.3122869,0-21.6693315-13.0175439-27.2373451-30.324308-27.2373451ZM167.5802992,80.8031649h-4.9652905v-37.6973021h4.9652905c9.9305811,0,19.6379313,2.4826453,19.6379313,18.8103829,0,16.4760267-9.7073503,18.8869192-19.6379313,18.8869192Z"/>
    <path class="st0" d="M266.7011471,82.1553057c-5.7178972,0-9.7806975-4.7388707-9.7806975-13.2407747,0-8.4285567,4.2892201-13.0175439,9.7073503-13.0175439,3.9862641,0,7.5994138,2.7840068,8.4253677,6.6969236h9.9305811c-1.428677-10.0071173-9.8540448-14.7475826-18.3559488-14.7475826-12.1150538,0-20.3171907,8.8782073-20.3171907,21.2180864,0,12.2649373,7.7492974,21.1431446,19.8643511,21.1431446,8.4285567,0,16.7773882-3.686497,19.1850917-14.7491771h-9.9305811c-1.428677,4.815407-5.1151741,6.6969236-8.7283238,6.6969236Z"/>
    <polygon class="st0" points="328.2426863 48.7488183 316.5804721 48.7488183 301.8312951 65.0016141 301.8312951 34.6789006 291.4510634 34.6789006 291.4510634 89.2285326 301.8312951 89.2285326 301.8312951 77.0401316 306.7997746 71.6985378 317.406426 89.2285326 329.0686402 89.2285326 313.719929 64.2490075 328.2426863 48.7488183"/>
    <polygon class="st0" points="344.1112063 34.6789006 333.3514823 34.6789006 333.3514823 89.2285326 370.669292 89.2285326 370.669292 80.5002088 344.1112063 80.5002088 344.1112063 34.6789006"/>
    <path class="st0" d="M401.8897122,53.9405286c-2.1812837-3.837975-6.3206203-6.0942005-11.4389834-6.0942005-9.8540448,0-17.8297619,8.4269622-17.8297619,21.1415501,0,12.9410077,8.1989479,21.2196809,17.8297619,21.2196809,4.2158729,0,8.8048601-1.5817496,11.4389834-6.0942005v5.1151741h10.3834206v-40.4797144h-10.3834206v5.1917103ZM392.7850851,82.231842c-5.4181301,0-9.2545107-5.2682466-9.2545107-13.1674275,0-7.9007754,3.8363805-13.2423692,9.2545107-13.2423692,5.7178972,0,9.4809305,5.0402323,9.4809305,13.165833,0,8.3520205-3.7630333,13.2439637-9.4809305,13.2439637Z"/>
    <polygon class="st0" points="458.3096994 48.7488183 446.6474852 48.7488183 431.9014971 65.0016141 431.9014971 34.6789006 421.5180765 34.6789006 421.5180765 89.2285326 431.9014971 89.2285326 431.9014971 77.0401316 436.8667877 71.6985378 447.4766281 89.2285326 459.1388423 89.2285326 443.7901311 64.2490075 458.3096994 48.7488183"/>
    <path class="st0" d="M480.3489561,82.1553057c-4.9652905,0-9.630814-3.38673-10.2303481-10.3068844h29.8682794c.3763033-14.2963375-7.372994-24.0020932-19.8611621-24.0020932-11.9651702,0-20.3171907,8.9531491-20.3171907,20.9916666,0,11.6622142,7.5994138,21.3695644,20.6169578,21.3695644,11.059491,0,16.9304608-6.6969236,19.1117445-12.7177769h-10.6863767c-2.1047474,3.5366135-5.2650576,4.6655235-8.501904,4.6655235ZM480.0491891,55.4457419c4.3625674,0,9.1779744,2.4077035,9.4043942,9.2545107h-19.1850917c.8259539-6.8468072,5.8677807-9.2545107,9.7806975-9.2545107Z"/>
  </g>
  <path class="st2" d="M62.0454092,0C27.7794054,0,0,27.779372,0,62.0454692c0,34.265683,27.7794054,62.0453345,62.0454092,62.0453345,34.2660381,0,62.0453968-27.7796514,62.0453968-62.0453345C124.090806,27.779372,96.3114473,0,62.0454092,0Z"/>
  <path class="st1" d="M54.2190773,31.3752562c11.2811647,0,21.1519269,6.0634627,26.3692925,15.0884424h5.6405823c7.7556754,0,14.2423547,6.2045328,14.2423547,14.1009482,0,7.7556691-6.3456092,14.242336-14.2423485,14.242336h-4.089446c-4.653409,10.2939726-14.8063177,17.4853549-26.6511089,17.9085716h-2.8204562c-16.2163776-.8461032-29.0484388-14.242336-29.0484388-30.5997713,0-16.9213982,13.6781644-30.7405238,30.5995689-30.7405269ZM54.2190773,40.6820555c-11.704045,0-21.2926669,9.5889395-21.2926669,21.2929752,0,11.8447788,9.5886219,21.2926482,21.2926669,21.2926482,9.4478818,0,17.4857037-6.2045328,20.3058236-14.6652288l.9871734-3.2433366h10.7168779c2.5383097,0,4.7944729-2.2561632,4.7944729-4.7944667,0-2.5379858-2.1154231-4.7941428-4.7944729-4.7941428h-11.421911l-1.2693137-2.6793799c-3.3840891-7.3327764-10.7168779-12.4090625-19.3186502-12.4090688Z"/>
</svg>