<svg width="332" height="153" viewBox="0 0 332 153" fill="none" xmlns="http://www.w3.org/2000/svg">
<g clip-path="url(#clip0_6466_244)">
<path d="M166.005 0.875C141.745 0.875 122.005 20.6155 122.005 44.875C122.005 69.1345 141.745 88.875 166.005 88.875C190.264 88.875 210.005 69.1345 210.005 44.875C210.005 20.6155 190.264 0.875 166.005 0.875Z" fill="#2EAFFF"/>
<path fill-rule="evenodd" clip-rule="evenodd" d="M161.117 22.8979C169.118 22.8979 176.078 27.1903 179.861 33.5971H183.814V33.6198C189.272 33.6203 193.875 38.0093 193.887 43.5795H193.909C193.909 49.1136 189.371 53.652 183.837 53.6522H180.91C177.596 60.9053 170.428 66.0278 162.02 66.371L161.117 66.3891L159.998 66.3597C148.501 65.7776 139.374 56.2874 139.373 44.6446V44.6198C139.374 32.6015 149.099 22.8757 161.117 22.8753V22.8979ZM161.117 29.4993C152.781 29.4997 145.998 36.2605 145.997 44.6198V44.6446C145.998 52.9808 152.758 59.7647 161.117 59.7651C167.833 59.7651 173.53 55.3888 175.498 49.3214L176.24 47.0283H183.837C185.681 47.028 187.272 45.4673 187.285 43.6021H187.263C187.263 41.773 185.736 40.2216 183.814 40.2211H175.731L174.852 38.2988C172.466 33.0884 167.208 29.4993 161.117 29.4993Z" fill="#1A1A1A"/>
<path d="M61.417 111.844H48.0049V152.106H61.417C70.4103 152.106 77.7402 143.112 77.7402 131.91C77.7402 120.707 70.4103 111.844 61.417 111.844ZM61.4166 145.608H54.0867V118.368H61.4166C67.1089 118.368 71.632 124.502 71.632 131.91C71.632 139.317 67.1093 145.634 61.417 145.634L61.4166 145.608Z" fill="#F2F2F2"/>
<path d="M125.852 146.024H124.37C120.835 146.024 117.924 143.035 117.924 139.37V132.43C117.924 128.687 120.861 125.672 124.37 125.672H125.852C129.491 125.672 132.48 128.479 132.48 131.962H138.666C138.666 125.022 132.87 119.304 125.878 119.304H124.396C117.508 119.304 111.92 125.204 111.92 132.43V139.37C111.92 146.674 117.482 152.548 124.396 152.548H125.878C133.104 152.548 139.004 146.83 139.004 139.942H132.818C132.818 143.269 129.673 145.998 125.878 145.998L125.852 146.024Z" fill="#F2F2F2"/>
<path d="M100.951 139.265C100.951 143.242 98.6373 146.023 95.4402 146.023H93.9067C90.6576 146.023 88.3963 143.216 88.3963 139.265V120.837H82.2621V140.435C82.2621 147.505 87.0707 152.574 93.8027 152.574H95.5702C102.302 152.574 107.033 147.505 107.033 140.435V120.837H100.977V139.265H100.951Z" fill="#F2F2F2"/>
<path d="M168.245 119.355H159.72L149.713 130.74V111.896H143.656V152.028H149.713V140.253L152.65 136.978L162.631 152.028H170.143L156.887 132.014L168.245 119.355Z" fill="#F2F2F2"/>
<path d="M255.295 119.355H246.718L236.736 130.74V111.896H230.68V152.028H236.736V140.253L239.674 136.978L249.655 152.028H257.166L243.91 132.014L255.295 119.355Z" fill="#F2F2F2"/>
<path d="M179.839 111.844H173.835V152.106H197.046V145.608H179.839V111.844Z" fill="#F2F2F2"/>
<path d="M277.908 141.007C277.336 143.84 274.477 146.024 271.072 146.024H269.59C266.055 146.024 263.144 143.061 263.144 139.37V137.108H283.886V131.962C283.886 125.022 278.09 119.304 271.098 119.304H269.616C262.728 119.304 257.14 125.204 257.14 132.43V139.37C257.14 146.674 262.702 152.548 269.616 152.548H271.098C277.96 152.548 283.626 147.401 284.172 140.981H277.934L277.908 141.007ZM271.072 125.672C274.659 125.672 277.596 128.609 277.674 132.04H263.118C263.326 128.479 266.159 125.672 269.564 125.672H271.072Z" fill="#F2F2F2"/>
<path d="M218.361 124.138C216.541 121.799 214.176 120.395 211.473 120.395H209.939C203.259 120.395 198.581 125.828 198.581 133.573V139.344C198.581 147.037 203.259 152.522 209.939 152.522H211.473C214.176 152.522 216.541 151.17 218.361 148.857V152.002H224.209V120.785H218.361V124.138ZM218.933 137.914C218.933 143.06 215.788 146.595 211.499 146.595H209.965C206.482 146.595 204.065 143.606 204.065 139.37V133.599C204.065 129.285 206.482 126.243 209.965 126.243H211.499C215.814 126.243 218.933 129.752 218.933 134.691V137.914Z" fill="#F2F2F2"/>
</g>
<defs>
<clipPath id="clip0_6466_244">
<rect width="332" height="152" fill="white" transform="translate(0.00488281 0.875)"/>
</clipPath>
</defs>
</svg>
