<?xml version="1.0" encoding="UTF-8"?>
<svg id="Ebene_1" xmlns="http://www.w3.org/2000/svg" version="1.1" viewBox="0 0 340 92">
  <!-- Generator: Adobe Illustrator 29.0.0, SVG Export Plug-In . SVG Version: 2.1.0 Build 186)  -->
  <defs>
    <style>
      .st0 {
        fill: #2eafff;
      }

      .st1 {
        fill: #f2f2f2;
      }

      .st2 {
        fill: #1a1a1a;
        fill-rule: evenodd;
      }
    </style>
  </defs>
  <path class="st0" d="M46,2C21.7,2,2,21.7,2,46s19.7,44,44,44,44-19.7,44-44S70.3,2,46,2Z"/>
  <path class="st2" d="M41.1,24c8,0,15,4.3,18.7,10.7h4c5.5,0,10.1,4.4,10.1,10h0c0,5.5-4.5,10.1-10.1,10.1h-2.9c-3.3,7.3-10.5,12.4-18.9,12.7h-2c-11.5-.6-20.6-10.1-20.6-21.7h0c0-12,9.7-21.8,21.7-21.8h0ZM41.1,30.6c-8.3,0-15.1,6.8-15.1,15.1h0c0,8.4,6.8,15.1,15.1,15.1s12.4-4.4,14.4-10.4l.7-2.3h7.6c1.8,0,3.4-1.6,3.4-3.4h0c0-1.8-1.5-3.4-3.4-3.4h-8.1l-.9-1.9c-2.4-5.2-7.6-8.8-13.7-8.8Z"/>
  <path class="st1" d="M120.4,26.1h-13.1v39.3h13.1c8.8,0,15.9-8.8,15.9-19.7s-7.2-19.6-15.9-19.6ZM120.4,59.1h-7.2v-26.6h7.2c5.6,0,10,6,10,13.2s-4.4,13.4-10,13.4h0Z"/>
  <path class="st1" d="M183.3,59.5h-1.4c-3.5,0-6.3-2.9-6.3-6.5v-6.8c0-3.7,2.9-6.6,6.3-6.6h1.4c3.6,0,6.5,2.7,6.5,6.1h6c0-6.8-5.7-12.4-12.5-12.4h-1.4c-6.7,0-12.2,5.8-12.2,12.8v6.8c0,7.1,5.4,12.9,12.2,12.9h1.4c7.1,0,12.8-5.6,12.8-12.3h-6c0,3.2-3.1,5.9-6.8,5.9h0Z"/>
  <path class="st1" d="M159,52.9c0,3.9-2.3,6.6-5.4,6.6h-1.5c-3.2,0-5.4-2.7-5.4-6.6v-18h-6v19.1c0,6.9,4.7,11.9,11.3,11.9h1.7c6.6,0,11.2-5,11.2-11.9v-19.1h-5.9v18h0Z"/>
  <path class="st1" d="M224.8,33.4h-8.3l-9.8,11.1v-18.4h-5.9v39.2h5.9v-11.5l2.9-3.2,9.8,14.7h7.3l-12.9-19.6,11.1-12.4h-.1Z"/>
  <path class="st1" d="M309.8,33.4h-8.4l-9.8,11.1v-18.4h-5.9v39.2h5.9v-11.5l2.9-3.2,9.8,14.7h7.3l-13-19.6,11.1-12.4h.1Z"/>
  <path class="st1" d="M236.1,26.1h-5.9v39.3h22.7v-6.3h-16.8V26.1Z"/>
  <path class="st1" d="M331.9,54.6c-.6,2.8-3.4,4.9-6.7,4.9h-1.4c-3.5,0-6.3-2.9-6.3-6.5v-2.2h20.3v-5c0-6.8-5.7-12.4-12.5-12.4h-1.4c-6.7,0-12.2,5.8-12.2,12.8v6.8c0,7.1,5.4,12.9,12.2,12.9h1.4c6.7,0,12.2-5,12.8-11.3h-6.2ZM325.2,39.6c3.5,0,6.4,2.9,6.4,6.2h-14.2c.2-3.5,3-6.2,6.3-6.2h1.5Z"/>
  <path class="st1" d="M273.7,38.1c-1.8-2.3-4.1-3.7-6.7-3.7h-1.5c-6.5,0-11.1,5.3-11.1,12.9v5.6c0,7.5,4.6,12.9,11.1,12.9h1.5c2.6,0,5-1.3,6.7-3.6v3.1h5.7v-30.5h-5.7v3.3ZM274.3,51.6c0,5-3.1,8.5-7.3,8.5h-1.5c-3.4,0-5.8-2.9-5.8-7.1v-5.6c0-4.2,2.4-7.2,5.8-7.2h1.5c4.2,0,7.3,3.4,7.3,8.3v3.1Z"/>
</svg>