<?xml version="1.0" encoding="UTF-8"?>
<svg id="Ebene_1" xmlns="http://www.w3.org/2000/svg" version="1.1" viewBox="0 0 500 500">
  <!-- Generator: Adobe Illustrator 29.0.0, SVG Export Plug-In . SVG Version: 2.1.0 Build 186)  -->
  <defs>
    <style>
      .st0 {
        fill: #1d1d1b;
      }

      .st0, .st1 {
        fill-rule: evenodd;
      }

      .st1 {
        fill: #2eafff;
      }
    </style>
  </defs>
  <path class="st1" d="M250.0000307,0C111.9317647,0,0,111.9316264,0,250.0002613c0,138.0669672,111.9317647,249.9997387,250.0000307,249.9997387,138.0683967,0,249.9999693-111.9327408,249.9999693-249.9997233C500,111.9316264,388.0684274,0,250.0000307,0Z"/>
  <path class="st0" d="M218.4653329,126.4205497c45.455286,0,85.2276046,24.4315495,106.2499885,60.7959782h22.7276276c31.2500038,0,57.3868279,24.9999693,57.3868279,56.8170556,0,31.2499885-25.5684197,57.386751-57.3867972,57.386751h-16.4776392c-18.7500269,41.4775931-59.6592156,70.4538873-107.385506,72.1591311h-11.3644901c-65.340769-3.4091964-117.0450905-57.3867357-117.0450905-123.2958783,0-68.181515,55.1135333-123.8630222,123.295079-123.8630376ZM218.4653329,163.9205113c-47.1591926,0-85.7947024,38.6367856-85.7947024,85.7959321,0,47.7262597,38.6355099,85.7946256,85.7947024,85.7946256,38.0684274,0,70.4552707-24.9999846,81.8184082-59.0907191l3.9776315-13.068412h43.1816072c10.22762,0,19.3184005-9.0907805,19.3184005-19.3183851,0-10.2263288-8.5236981-19.3170786-19.3184005-19.3170786h-46.0223993l-5.1144402-10.7960397c-13.6355252-29.5460051-43.1815918-49.9999231-77.8408074-49.9999231Z"/>
</svg>