<svg width="149" height="38" viewBox="0 0 149 38" fill="none" xmlns="http://www.w3.org/2000/svg">
<path d="M19 0C8.52432 0 0 8.52432 0 19C0 29.4757 8.52432 38 19 38C29.4757 38 38 29.4757 38 19C38 8.52432 29.4757 0 19 0Z" fill="#1A1A1A"/>
<path fill-rule="evenodd" clip-rule="evenodd" d="M17.3896 9.65967C20.8443 9.65967 23.8501 11.5132 25.4834 14.2798H27.1904V14.2896C29.5471 14.2898 31.5347 16.185 31.54 18.5903H31.5498C31.5496 20.9801 29.59 22.9398 27.2002 22.9399H25.9365C24.5054 26.072 21.4102 28.2839 17.7793 28.4321L17.3896 28.4399L16.9062 28.4272C11.9416 28.1759 8.0002 24.0779 8 19.0503V19.0396C8.00022 13.8499 12.1999 9.65009 17.3896 9.6499V9.65967ZM17.3896 12.5103C13.7899 12.5104 10.8606 15.4299 10.8604 19.0396V19.0503C10.8606 22.65 13.7799 25.5794 17.3896 25.5796C20.2896 25.5796 22.7496 23.6898 23.5996 21.0698L23.9199 20.0796H27.2002C27.9968 20.0795 28.6837 19.4055 28.6895 18.6001H28.6797C28.6797 17.8103 28.0202 17.1404 27.1904 17.1401H23.7002L23.3203 16.3101C22.2903 14.0601 20.0196 12.5103 17.3896 12.5103Z" fill="#2EAFFF"/>
<path d="M50.9062 10H45V27.7933H50.9062C54.8666 27.7933 58.0944 23.8188 58.0944 18.8679C58.0944 13.917 54.8666 10 50.9062 10ZM50.9061 24.9215H47.6782V12.8832H50.9061C53.4128 12.8832 55.4046 15.5941 55.4046 18.8679C55.4046 22.1417 53.4129 24.933 50.9062 24.933L50.9061 24.9215Z" fill="#0D0D0D"/>
<path d="M79.2811 25.1055H78.6287C77.072 25.1055 75.7901 23.7845 75.7901 22.1648V19.0978C75.7901 17.4437 77.0835 16.1112 78.6287 16.1112H79.2811C80.8836 16.1112 82.1999 17.3518 82.1999 18.891H84.9241C84.9241 15.824 82.3716 13.2969 79.2926 13.2969H78.6402C75.6069 13.2969 73.146 15.9044 73.146 19.0978V22.1648C73.146 25.3926 75.5955 27.9887 78.6402 27.9887H79.2926C82.4746 27.9887 85.0729 25.4616 85.0729 22.4175H82.3487C82.3487 23.8879 80.9637 25.094 79.2926 25.094L79.2811 25.1055Z" fill="#0D0D0D"/>
<path d="M68.3155 22.1187C68.3155 23.8762 67.2968 25.1053 65.8889 25.1053H65.2136C63.7828 25.1053 62.787 23.8647 62.787 22.1187V13.9744H60.0857V22.6356C60.0857 25.76 62.2033 28 65.1678 28H65.9462C68.9107 28 70.9939 25.76 70.9939 22.6356V13.9744H68.327V22.1187H68.3155Z" fill="#0D0D0D"/>
<path d="M97.9498 13.3198H94.1955L89.7887 18.351V10.023H87.1217V27.7588H89.7887V22.5553L91.0821 21.1079L95.4775 27.7588H98.7854L92.9478 18.9139L97.9498 13.3198Z" fill="#0D0D0D"/>
<path d="M136.284 13.3198H132.506L128.111 18.351V10.023H125.444V27.7588H128.111V22.5553L129.404 21.1079L133.8 27.7588H137.108L131.27 18.9139L136.284 13.3198Z" fill="#0D0D0D"/>
<path d="M103.055 10H100.411V27.7933H110.633V24.9215H103.055V10Z" fill="#0D0D0D"/>
<path d="M146.241 22.8885C145.99 24.1406 144.731 25.1055 143.231 25.1055H142.579C141.022 25.1055 139.74 23.796 139.74 22.1648V21.1654H148.874V18.891C148.874 15.824 146.322 13.2969 143.243 13.2969H142.59C139.557 13.2969 137.096 15.9044 137.096 19.0978V22.1648C137.096 25.3926 139.545 27.9887 142.59 27.9887H143.243C146.264 27.9887 148.76 25.7143 149 22.877H146.253L146.241 22.8885ZM143.231 16.1112C144.811 16.1112 146.104 17.4092 146.138 18.9255H139.729C139.82 17.3518 141.068 16.1112 142.567 16.1112H143.231Z" fill="#0D0D0D"/>
<path d="M120.019 15.4334C119.218 14.3995 118.176 13.7793 116.986 13.7793H116.31C113.369 13.7793 111.309 16.18 111.309 19.6031V22.1532C111.309 25.5534 113.369 27.9771 116.31 27.9771H116.986C118.176 27.9771 119.218 27.3798 120.019 26.3575V27.7474H122.594V13.9516H120.019V15.4334ZM120.271 21.5215C120.271 23.7959 118.886 25.3581 116.997 25.3581H116.322C114.788 25.3581 113.724 24.0371 113.724 22.1647V19.6146C113.724 17.7078 114.788 16.3638 116.322 16.3638H116.997C118.897 16.3638 120.271 17.9145 120.271 20.0971V21.5215Z" fill="#0D0D0D"/>
</svg>
