<svg width="336" height="89" viewBox="0 0 336 89" fill="none" xmlns="http://www.w3.org/2000/svg">
<path d="M44 0.75C19.7405 0.75 0 20.4905 0 44.75C0 69.0095 19.7405 88.75 44 88.75C68.2595 88.75 88 69.0095 88 44.75C88 20.4905 68.2595 0.75 44 0.75Z" fill="#1A1A1A"/>
<path fill-rule="evenodd" clip-rule="evenodd" d="M39.1136 22.7729C47.1139 22.7729 54.0745 27.0653 57.857 33.4721H61.8101V33.4948C67.2677 33.4953 71.8707 37.8843 71.8829 43.4545H71.9055C71.905 48.9886 67.367 53.527 61.8328 53.5272H58.9064C55.5922 60.7803 48.4244 65.9028 40.0159 66.246L39.1136 66.2641L37.9941 66.2347C26.4972 65.6526 17.3696 56.1624 17.3691 44.5196V44.4948C17.3696 32.4765 27.0953 22.7507 39.1136 22.7503V22.7729ZM39.1136 29.3743C30.7774 29.3747 23.9936 36.1355 23.9931 44.4948V44.5196C23.9936 52.8558 30.7543 59.6397 39.1136 59.6401C45.8293 59.6401 51.5261 55.2638 53.4946 49.1964L54.2363 46.9033H61.8328C63.6774 46.903 65.2682 45.3423 65.2816 43.4771H65.2589C65.2589 41.648 63.7317 40.0966 61.8101 40.0961H53.7275L52.8478 38.1738C50.4625 32.9634 45.2041 29.3743 39.1136 29.3743Z" fill="#2EAFFF"/>
<path d="M118.402 24.8564H105.301V64.1866H118.402C127.188 64.1866 134.348 55.4014 134.348 44.458C134.348 33.5146 127.188 24.8564 118.402 24.8564ZM118.402 57.839H111.242V31.2295H118.402C123.963 31.2295 128.381 37.2217 128.381 44.458C128.381 51.6944 123.963 57.8644 118.402 57.8644L118.402 57.839Z" fill="#0D0D0D"/>
<path d="M181.346 58.2455H179.898C176.445 58.2455 173.601 55.3256 173.601 51.7455V44.9662C173.601 41.3099 176.471 38.3646 179.898 38.3646H181.346C184.9 38.3646 187.82 41.1068 187.82 44.5091H193.863C193.863 37.7298 188.201 32.1438 181.371 32.1438H179.924C173.195 32.1438 167.736 37.9075 167.736 44.9662V51.7455C167.736 58.8803 173.17 64.6186 179.924 64.6186H181.371C188.43 64.6186 194.193 59.0326 194.193 52.3041H188.15C188.15 55.5541 185.078 58.2201 181.371 58.2201L181.346 58.2455Z" fill="#0D0D0D"/>
<path d="M157.021 51.6435C157.021 55.5283 154.761 58.2451 151.638 58.2451H150.14C146.966 58.2451 144.757 55.5029 144.757 51.6435V33.6415H138.765V52.7861C138.765 59.6924 143.462 64.6436 150.038 64.6436H151.765C158.341 64.6436 162.962 59.6924 162.962 52.7861V33.6415H157.046V51.6435H157.021Z" fill="#0D0D0D"/>
<path d="M222.758 32.1944H214.43L204.654 43.3155V24.9072H198.738V64.1105H204.654V52.6085L207.523 49.4093L217.273 64.1105H224.611L211.662 44.5597L222.758 32.1944Z" fill="#0D0D0D"/>
<path d="M307.793 32.1944H299.414L289.664 43.3155V24.9072H283.748V64.1105H289.664V52.6085L292.533 49.4093L302.283 64.1105H309.621L296.672 44.5597L307.793 32.1944Z" fill="#0D0D0D"/>
<path d="M234.083 24.8564H228.218V64.1866H250.892V57.839H234.083V24.8564Z" fill="#0D0D0D"/>
<path d="M329.882 53.3451C329.323 56.1127 326.53 58.2455 323.204 58.2455H321.757C318.304 58.2455 315.46 55.351 315.46 51.7455V49.5365H335.722V44.5091C335.722 37.7298 330.06 32.1438 323.229 32.1438H321.782C315.054 32.1438 309.595 37.9075 309.595 44.9662V51.7455C309.595 58.8803 315.028 64.6186 321.782 64.6186H323.229C329.933 64.6186 335.468 59.5912 336.001 53.3197H329.907L329.882 53.3451ZM323.204 38.3646C326.708 38.3646 329.577 41.2337 329.653 44.5853H315.434C315.638 41.1068 318.405 38.3646 321.731 38.3646H323.204Z" fill="#0D0D0D"/>
<path d="M271.713 36.8663C269.936 34.5811 267.625 33.21 264.985 33.21H263.487C256.961 33.21 252.391 38.5167 252.391 46.0831V51.7199C252.391 59.2355 256.961 64.593 263.487 64.593H264.985C267.625 64.593 269.936 63.2727 271.713 61.0129V64.0852H277.426V33.5909H271.713V36.8663ZM272.272 50.3234C272.272 55.3508 269.2 58.8039 265.01 58.8039H263.512C260.11 58.8039 257.748 55.884 257.748 51.7453V46.1085C257.748 41.8937 260.11 38.923 263.512 38.923H265.01C269.225 38.923 272.272 42.3507 272.272 47.1749V50.3234Z" fill="#0D0D0D"/>
</svg>
