<svg width="332" height="153" viewBox="0 0 332 153" fill="none" xmlns="http://www.w3.org/2000/svg">
<g clip-path="url(#clip0_6462_23296)">
<path d="M166 0.75C141.741 0.75 122 20.4905 122 44.75C122 69.0095 141.741 88.75 166 88.75C190.259 88.75 210 69.0095 210 44.75C210 20.4905 190.259 0.75 166 0.75Z" fill="#1A1A1A"/>
<path fill-rule="evenodd" clip-rule="evenodd" d="M161.114 22.7729C169.114 22.7729 176.075 27.0653 179.857 33.4721H183.81V33.4948C189.268 33.4953 193.871 37.8843 193.883 43.4545H193.906C193.905 48.9886 189.367 53.527 183.833 53.5272H180.906C177.592 60.7803 170.424 65.9028 162.016 66.246L161.114 66.2641L159.994 66.2347C148.497 65.6526 139.37 56.1624 139.369 44.5196V44.4948C139.37 32.4765 149.095 22.7507 161.114 22.7503V22.7729ZM161.114 29.3743C152.777 29.3747 145.994 36.1355 145.993 44.4948V44.5196C145.994 52.8558 152.754 59.6397 161.114 59.6401C167.829 59.6401 173.526 55.2638 175.495 49.1964L176.236 46.9033H183.833C185.677 46.903 187.268 45.3423 187.282 43.4771H187.259C187.259 41.648 185.732 40.0966 183.81 40.0961H175.727L174.848 38.1738C172.462 32.9634 167.204 29.3743 161.114 29.3743Z" fill="#2EAFFF"/>
<path d="M61.4121 111.719H48V151.981H61.4121C70.4055 151.981 77.7353 142.987 77.7353 131.785C77.7353 120.582 70.4055 111.719 61.4121 111.719ZM61.4117 145.483H54.0818V118.243H61.4117C67.104 118.243 71.6271 124.377 71.6271 131.785C71.6271 139.192 67.1044 145.509 61.4121 145.509L61.4117 145.483Z" fill="#0D0D0D"/>
<path d="M125.847 145.899H124.365C120.83 145.899 117.919 142.91 117.919 139.245V132.305C117.919 128.562 120.856 125.547 124.365 125.547H125.847C129.486 125.547 132.475 128.354 132.475 131.837H138.661C138.661 124.897 132.865 119.179 125.873 119.179H124.391C117.503 119.179 111.915 125.079 111.915 132.305V139.245C111.915 146.549 117.477 152.423 124.391 152.423H125.873C133.099 152.423 138.999 146.705 138.999 139.817H132.813C132.813 143.144 129.668 145.873 125.873 145.873L125.847 145.899Z" fill="#0D0D0D"/>
<path d="M100.946 139.14C100.946 143.117 98.6324 145.898 95.4353 145.898H93.9018C90.6527 145.898 88.3914 143.091 88.3914 139.14V120.712H82.2572V140.31C82.2572 147.38 87.0658 152.449 93.7978 152.449H95.5653C102.297 152.449 107.028 147.38 107.028 140.31V120.712H100.972V139.14H100.946Z" fill="#0D0D0D"/>
<path d="M168.24 119.23H159.715L149.708 130.615V111.771H143.652V151.903H149.708V140.128L152.645 136.853L162.626 151.903H170.138L156.882 131.889L168.24 119.23Z" fill="#0D0D0D"/>
<path d="M255.29 119.23H246.713L236.732 130.615V111.771H230.675V151.903H236.732V140.128L239.669 136.853L249.65 151.903H257.162L243.905 131.889L255.29 119.23Z" fill="#0D0D0D"/>
<path d="M179.834 111.719H173.83V151.981H197.041V145.483H179.834V111.719Z" fill="#0D0D0D"/>
<path d="M277.903 140.882C277.331 143.715 274.472 145.899 271.067 145.899H269.585C266.05 145.899 263.139 142.936 263.139 139.245V136.983H283.881V131.837C283.881 124.897 278.085 119.179 271.093 119.179H269.611C262.723 119.179 257.135 125.079 257.135 132.305V139.245C257.135 146.549 262.697 152.423 269.611 152.423H271.093C277.955 152.423 283.621 147.276 284.167 140.856H277.929L277.903 140.882ZM271.067 125.547C274.654 125.547 277.591 128.484 277.669 131.915H263.113C263.321 128.354 266.154 125.547 269.559 125.547H271.067Z" fill="#0D0D0D"/>
<path d="M218.356 124.013C216.536 121.674 214.171 120.27 211.468 120.27H209.934C203.254 120.27 198.576 125.703 198.576 133.448V139.219C198.576 146.912 203.254 152.397 209.934 152.397H211.468C214.171 152.397 216.536 151.045 218.356 148.732V151.877H224.204V120.66H218.356V124.013ZM218.928 137.789C218.928 142.935 215.783 146.47 211.494 146.47H209.96C206.477 146.47 204.06 143.481 204.06 139.245V133.474C204.06 129.16 206.477 126.118 209.96 126.118H211.494C215.809 126.118 218.928 129.627 218.928 134.566V137.789Z" fill="#0D0D0D"/>
</g>
<defs>
<clipPath id="clip0_6462_23296">
<rect width="332" height="152" fill="white" transform="translate(0 0.75)"/>
</clipPath>
</defs>
</svg>
