<?xml version="1.0" encoding="UTF-8"?>
<svg id="Ebene_1" xmlns="http://www.w3.org/2000/svg" version="1.1" viewBox="0 0 500 300.3112357">
  <!-- Generator: Adobe Illustrator 29.0.0, SVG Export Plug-In . SVG Version: 2.1.0 Build 186)  -->
  <defs>
    <style>
      .st0 {
        fill: #1d1d1b;
      }

      .st0, .st1 {
        fill-rule: evenodd;
      }

      .st2 {
        fill: #fff;
      }

      .st1 {
        fill: #2eafff;
      }
    </style>
  </defs>
  <path class="st1" d="M249.3266201,0c-49.5998181,0-89.8103396,40.2104622-89.8103396,89.8104197,0,49.5993509,40.2105064,89.810219,89.8103245,89.810219,49.5998784,0,89.8103245-40.2108681,89.8103245-89.810219C339.1369295,40.2104735,298.9264834.0000079,249.3266201,0Z"/>
  <path class="st0" d="M237.9980321,45.415486c16.3293938,0,30.6172856,8.7768235,38.1693962,21.8404206h8.164712c11.2263019,0,20.615704,8.9810264,20.615704,20.4110264,0,11.2262793-9.1852218,20.615689-20.615704,20.615689h-5.9194516c-6.7357811,14.9004629-21.4320637,25.3099379-38.5773048,25.9225392h-4.0825971c-23.4730985-1.2247204-42.0474211-20.615689-42.0474211-44.2929678,0-24.4936084,19.799058-44.4967111,44.2926664-44.4967074ZM237.9980321,58.8870219c-16.9415279,0-30.8209987,13.8799305-30.8209987,30.8214433,0,17.145241,13.8794708,30.8209686,30.8209987,30.8209686,13.6757426,0,25.3104353-8.9810189,29.3925652-21.2278231l1.4289308-4.6947162h15.5126121c3.6741912,0,6.9399615-3.2657778,6.9399615-6.9399615,0-3.6737165-3.0620722-6.9394943-6.9399615-6.9394943h-16.5331521l-1.8373217-3.8783866c-4.8984594-10.6141451-15.5126121-17.9620378-27.9636343-17.9620302Z"/>
  <path class="st2" d="M164.4843524,288.6673196c-8.271866,0-14.1516811-6.8597844-14.1516811-19.1672715,0-12.1917427,6.2038995-18.8277546,14.043653-18.8277546,5.7717871,0,10.9957173,4.0279049,12.1917427,9.6839475h14.3715955c-2.0679665-14.4757654-14.2597092-21.3355498-26.5633382-21.3355498-17.5275592,0-29.3952177,12.8476276-29.3952177,30.7031293,0,17.7474736,11.2117735,30.5873849,28.7431909,30.5873849,12.1917427,0,24.2754574-5.3319584,27.7593636-21.3355498h-14.3677373c-2.0718246,6.9678125-7.403783,9.6916638-12.6315714,9.6916638Z"/>
  <polygon class="st2" points="253.5573941 240.3247599 236.6818466 240.3247599 215.3424386 263.8440055 215.3424386 219.9691793 200.3188164 219.9691793 200.3188164 298.899124 215.3424386 298.899124 215.3424386 281.2596785 222.5263073 273.5356693 237.877872 298.899124 254.7534195 298.899124 232.5420554 262.7560082 253.5573941 240.3247599"/>
  <polygon class="st2" points="276.5403724 219.9691793 260.9688934 219.9691793 260.9688934 298.899124 314.971369 298.899124 314.971369 286.2675525 276.5403724 286.2675525 276.5403724 219.9691793"/>
  <path class="st2" d="M360.1618382,247.8404291c-3.1559638-5.5557309-9.143807-8.8197227-16.54759-8.8197227-14.2635674,0-25.8032833,12.1917427-25.8032833,30.5951163,0,18.7197265,11.8676584,30.695413,25.8032833,30.695413,6.0958714,0,12.7357414-2.2840227,16.54759-8.8120065v7.3999249h15.0236222v-58.5743791h-15.0236222s0,7.5156693,0,7.5156542ZM346.9901263,288.7753477c-7.8397536,0-13.3916263-7.6236974-13.3916263-19.0515271,0-11.435546,5.5518727-19.1672715,13.3916263-19.1672715,8.271866,0,13.7157106,7.299613,13.7157106,19.0592434,0,12.0837146-5.4438446,19.1595552-13.7157106,19.1595552Z"/>
  <polygon class="st2" points="439.6512291 240.3247599 422.7756967 240.3247599 401.4362887 263.8440055 401.4362887 219.9691793 386.4126665 219.9691793 386.4126665 298.899124 401.4362887 298.899124 401.4362887 281.2596785 408.6201574 273.5356693 423.971722 298.899124 440.8472545 298.899124 418.6359055 262.7560082 439.6512291 240.3247599"/>
  <path class="st2" d="M471.5658164,288.6673196c-7.1877268,0-13.9356249-4.899846-14.807566-14.9155941h43.2228145c.5439986-20.6873812-10.671633-34.7310342-28.7431909-34.7310342-17.311503,0-29.3952177,12.9556557-29.3952177,30.3713287,0,16.8755325,10.9957173,30.9191855,29.8311882,30.9191855,16.0035914,0,24.4953717-9.6839475,27.6513355-18.3956422h-15.4595928c-3.0479357,5.1159022-7.6198392,6.7517563-12.2997708,6.7517563ZM471.1298459,250.0164237c6.3119276,0,13.27974,3.4800632,13.6076825,13.3877832h-27.7632217c1.1998835-9.90772,8.4917803-13.3877681,14.1555393-13.3877832Z"/>
  <path class="st2" d="M112.2261508,274.0502496c0,7.9603206-2.244959,14.6214104-10.6137608,14.6214104s-10.6137608-6.6610898-10.6137608-14.6214104v-33.8832065h-15.1051256v37.1486452c0,14.4921625,11.6347228,22.9405387,25.7188864,22.9405387,14.0836813,0,25.7184041-8.4483762,25.7184041-22.9405387v-37.1486452h-15.1046433v33.8832065Z"/>
  <path class="st2" d="M23.4073737,219.8920164H0v78.9299748h23.4073737c25.0432285,0,43.8748375-8.1638379,43.8748375-39.5228521,0-31.3512979-18.8316127-39.4071077-43.8748375-39.4071227ZM22.755347,286.6302183h-7.1877268v-54.5464743h7.1877268c14.3715955,0,28.4152485,3.5957925,28.4152485,27.2153649,0,23.843345-14.043653,27.3311093-28.4152485,27.3311093Z"/>
</svg>