<svg width="336" height="89" viewBox="0 0 336 89" fill="none" xmlns="http://www.w3.org/2000/svg">
<path d="M44.0049 0.875C19.7454 0.875 0.00488281 20.6155 0.00488281 44.875C0.00488281 69.1345 19.7454 88.875 44.0049 88.875C68.2643 88.875 88.0049 69.1345 88.0049 44.875C88.0049 20.6155 68.2643 0.875 44.0049 0.875Z" fill="#2EAFFF"/>
<path fill-rule="evenodd" clip-rule="evenodd" d="M39.1175 22.8979C47.1178 22.8979 54.0784 27.1903 57.8609 33.5971H61.814V33.6198C67.2716 33.6203 71.8746 38.0093 71.8868 43.5795H71.9094C71.9089 49.1136 67.3709 53.652 61.8367 53.6522H58.9103C55.5961 60.9053 48.4283 66.0278 40.0198 66.371L39.1175 66.3891L37.998 66.3597C26.5011 65.7776 17.3735 56.2874 17.373 44.6446V44.6198C17.3736 32.6015 27.0992 22.8757 39.1175 22.8753V22.8979ZM39.1175 29.4993C30.7813 29.4997 23.9975 36.2605 23.997 44.6198V44.6446C23.9975 52.9808 30.7582 59.7647 39.1175 59.7651C45.8332 59.7651 51.53 55.3888 53.4985 49.3214L54.2402 47.0283H61.8367C63.6813 47.028 65.2721 45.4673 65.2855 43.6021H65.2628C65.2628 41.773 63.7356 40.2216 61.814 40.2211H53.7314L52.8517 38.2988C50.4664 33.0884 45.208 29.4993 39.1175 29.4993Z" fill="#1A1A1A"/>
<path d="M118.406 24.9814H105.305V64.3116H118.406C127.192 64.3116 134.352 55.5264 134.352 44.583C134.352 33.6396 127.192 24.9814 118.406 24.9814ZM118.406 57.964H111.246V31.3545H118.406C123.966 31.3545 128.385 37.3467 128.385 44.583C128.385 51.8194 123.967 57.9894 118.406 57.9894L118.406 57.964Z" fill="#F2F2F2"/>
<path d="M181.35 58.3705H179.902C176.449 58.3705 173.605 55.4506 173.605 51.8705V45.0912C173.605 41.4349 176.475 38.4896 179.902 38.4896H181.35C184.904 38.4896 187.824 41.2318 187.824 44.6341H193.867C193.867 37.8548 188.205 32.2688 181.375 32.2688H179.928C173.199 32.2688 167.74 38.0325 167.74 45.0912V51.8705C167.74 59.0053 173.174 64.7436 179.928 64.7436H181.375C188.434 64.7436 194.197 59.1576 194.197 52.4291H188.154C188.154 55.6791 185.082 58.3451 181.375 58.3451L181.35 58.3705Z" fill="#F2F2F2"/>
<path d="M157.025 51.7685C157.025 55.6533 154.765 58.3701 151.642 58.3701H150.144C146.97 58.3701 144.761 55.6279 144.761 51.7685V33.7665H138.769V52.9111C138.769 59.8174 143.466 64.7686 150.042 64.7686H151.769C158.345 64.7686 162.966 59.8174 162.966 52.9111V33.7665H157.05V51.7685H157.025Z" fill="#F2F2F2"/>
<path d="M222.762 32.3194H214.434L204.658 43.4405V25.0322H198.742V64.2355H204.658V52.7335L207.527 49.5343L217.277 64.2355H224.615L211.666 44.6847L222.762 32.3194Z" fill="#F2F2F2"/>
<path d="M307.797 32.3194H299.418L289.668 43.4405V25.0322H283.752V64.2355H289.668V52.7335L292.537 49.5343L302.287 64.2355H309.625L296.675 44.6847L307.797 32.3194Z" fill="#F2F2F2"/>
<path d="M234.087 24.9814H228.222V64.3116H250.896V57.964H234.087V24.9814Z" fill="#F2F2F2"/>
<path d="M329.886 53.4701C329.327 56.2377 326.534 58.3705 323.208 58.3705H321.761C318.308 58.3705 315.464 55.476 315.464 51.8705V49.6615H335.726V44.6341C335.726 37.8548 330.063 32.2688 323.233 32.2688H321.786C315.057 32.2688 309.598 38.0325 309.598 45.0912V51.8705C309.598 59.0053 315.032 64.7436 321.786 64.7436H323.233C329.936 64.7436 335.472 59.7162 336.005 53.4447H329.911L329.886 53.4701ZM323.208 38.4896C326.712 38.4896 329.581 41.3587 329.657 44.7103H315.438C315.642 41.2318 318.409 38.4896 321.735 38.4896H323.208Z" fill="#F2F2F2"/>
<path d="M271.717 36.9913C269.94 34.7061 267.629 33.335 264.989 33.335H263.491C256.965 33.335 252.395 38.6417 252.395 46.2081V51.8449C252.395 59.3606 256.965 64.718 263.491 64.718H264.989C267.629 64.718 269.94 63.3977 271.717 61.1379V64.2102H277.43V33.7159H271.717V36.9913ZM272.276 50.4484C272.276 55.4758 269.204 58.9289 265.014 58.9289H263.516C260.114 58.9289 257.752 56.009 257.752 51.8703V46.2335C257.752 42.0187 260.114 39.048 263.516 39.048H265.014C269.229 39.048 272.276 42.4757 272.276 47.2999V50.4484Z" fill="#F2F2F2"/>
</svg>
