<svg xmlns="http://www.w3.org/2000/svg" version="1.1" xmlns:xlink="http://www.w3.org/1999/xlink" width="1000" height="1000"><style>
    #light-icon {
      display: inline;
    }
    #dark-icon {
      display: none;
    }

    @media (prefers-color-scheme: dark) {
      #light-icon {
        display: none;
      }
      #dark-icon {
        display: inline;
      }
    }
  </style><g id="light-icon"><svg xmlns="http://www.w3.org/2000/svg" version="1.1" xmlns:xlink="http://www.w3.org/1999/xlink" width="1000" height="1000"><g><g transform="matrix(26.31578947368421,0,0,26.31578947368421,13.157894736842138,5.684341886080802e-14)"><svg xmlns="http://www.w3.org/2000/svg" version="1.1" xmlns:xlink="http://www.w3.org/1999/xlink" width="37" height="38"><svg width="37" height="38" viewBox="0 0 37 38" fill="none" xmlns="http://www.w3.org/2000/svg">
<path d="M18.5 0.5C8.3 0.5 0 8.8 0 19C0 29.2 8.3 37.5 18.5 37.5C28.7 37.5 37 29.2 37 19C37 8.8 28.7 0.5 18.5 0.5Z" fill="#1A1A1A"></path>
<path fill-rule="evenodd" clip-rule="evenodd" d="M16.3896 9.82349C19.8443 9.82349 22.8501 11.677 24.4834 14.4436H26.1904V14.4534C28.5471 14.4536 30.5347 16.3489 30.54 18.7542H30.5498C30.5496 21.1439 28.59 23.1037 26.2002 23.1038H24.9365C23.5054 26.2358 20.4102 28.4478 16.7793 28.5959L16.3896 28.6038L15.9062 28.5911C10.9416 28.3397 7.0002 24.2417 7 19.2141V19.2034C7.00022 14.0137 11.1999 9.81391 16.3896 9.81372V9.82349ZM16.3896 12.6741C12.7899 12.6743 9.86057 15.5937 9.86035 19.2034V19.2141C9.86056 22.8138 12.7799 25.7432 16.3896 25.7434C19.2896 25.7434 21.7496 23.8536 22.5996 21.2336L22.9199 20.2434H26.2002C26.9968 20.2433 27.6837 19.5694 27.6895 18.7639H27.6797C27.6797 17.9741 27.0202 17.3042 26.1904 17.304H22.7002L22.3203 16.4739C21.2903 14.2239 19.0196 12.6741 16.3896 12.6741Z" fill="#2EAFFF"></path>
</svg></svg></g></g></svg></g><g id="dark-icon"><svg xmlns="http://www.w3.org/2000/svg" version="1.1" xmlns:xlink="http://www.w3.org/1999/xlink" width="1000" height="1000"><g><g transform="matrix(26.31578947368421,0,0,26.31578947368421,13.157894736842138,5.684341886080802e-14)"><svg xmlns="http://www.w3.org/2000/svg" version="1.1" xmlns:xlink="http://www.w3.org/1999/xlink" width="37" height="38"><svg width="37" height="38" viewBox="0 0 37 38" fill="none" xmlns="http://www.w3.org/2000/svg">
<path d="M18.5 0.686279C8.30235 0.686279 0 8.98863 0 19.1863C0 29.3839 8.30235 37.6863 18.5 37.6863C28.6977 37.6863 37 29.3839 37 19.1863C37 8.98863 28.6977 0.686279 18.5 0.686279Z" fill="#2EAFFF"></path>
<path d="M16.9629 11.7864L16.9629 10.3578H16.9629V11.7864ZM23.9893 16.0002L22.7294 16.6738L23.1331 17.4288H23.9893V16.0002ZM26.0566 16.0002L26.0567 14.5717H26.0566V16.0002ZM30 19.4758L31.4286 19.476V19.4757L30 19.4758ZM26.0566 22.9963V24.4249H26.0567L26.0566 22.9963ZM24.2324 22.9963V21.5678H23.3065L22.9284 22.413L24.2324 22.9963ZM16.9629 27.7122V29.1407H16.9629L16.9629 27.7122ZM9 19.7493H7.57143V19.7493L9 19.7493ZM16.9629 11.7864L16.9629 13.2149C19.4572 13.215 21.6273 14.6124 22.7294 16.6738L23.9893 16.0002L25.2491 15.3267C23.6698 12.3729 20.553 10.3579 16.9629 10.3578L16.9629 11.7864ZM23.9893 16.0002V17.4288H26.0566V16.0002V14.5717H23.9893V16.0002ZM26.0566 16.0002L26.0566 17.4288C27.6045 17.4289 28.5714 18.5109 28.5714 19.4759L30 19.4758L31.4286 19.4757C31.4284 16.5923 28.8189 14.5718 26.0567 14.5717L26.0566 16.0002ZM30 19.4758L28.5714 19.4757C28.5713 20.4629 27.5793 21.5677 26.0566 21.5678L26.0566 22.9963L26.0567 24.4249C28.844 24.4248 31.4283 22.3371 31.4286 19.476L30 19.4758ZM26.0566 22.9963V21.5678H24.2324V22.9963V24.4249H26.0566V22.9963ZM24.2324 22.9963L22.9284 22.413C21.9066 24.6969 19.619 26.2835 16.9629 26.2836L16.9629 27.7122L16.9629 29.1407C20.7881 29.1407 24.0723 26.8526 25.5365 23.5797L24.2324 22.9963ZM16.9629 27.7122V26.2836C13.3542 26.2836 10.4286 23.358 10.4286 19.7492L9 19.7493L7.57143 19.7493C7.57151 24.9359 11.7762 29.1407 16.9629 29.1407V27.7122ZM9 19.7493H10.4286C10.4286 16.1405 13.3542 13.2149 16.9629 13.2149V11.7864V10.3578C11.7762 10.3578 7.57143 14.5626 7.57143 19.7493H9Z" fill="#151515"></path>
</svg></svg></g></g></svg></g></svg>