<svg width="50" height="50" viewBox="0 0 50 50" fill="none" xmlns="http://www.w3.org/2000/svg">
<g id="Icons">
<path id="Vector" d="M45.3125 27.0833C40.2354 27.0833 40.2354 22.9167 35.1573 22.9167C30.0792 22.9167 30.0812 27.0833 25.0052 27.0833C19.926 27.0833 19.926 22.9167 14.8469 22.9167C9.76771 22.9167 9.76562 27.0833 4.6875 27.0833M45.3125 37.5C40.2354 37.5 40.2354 33.3333 35.1573 33.3333C30.0792 33.3333 30.0812 37.5 25.0052 37.5C19.926 37.5 19.926 33.3333 14.8469 33.3333C9.76771 33.3333 9.76562 37.5 4.6875 37.5M45.3125 16.6667C40.2354 16.6667 40.2354 12.5 35.1573 12.5C30.0792 12.5 30.0812 16.6667 25.0052 16.6667C19.926 16.6667 19.926 12.5 14.8469 12.5C9.76771 12.5 9.76562 16.6667 4.6875 16.6667" stroke="#2EAFFF" stroke-width="2.5" stroke-linecap="round" stroke-linejoin="round"/>
</g>
</svg>
