<svg width="28" height="29" viewBox="0 0 28 29" fill="none" xmlns="http://www.w3.org/2000/svg">
<path d="M22.7181 17.1896L22.8611 16.8099C22.846 16.7907 22.8116 16.7453 22.8075 16.7384C22.5296 16.3903 22.1485 15.9157 21.8541 15.2031C21.8032 15.0793 21.6712 14.8455 21.4978 14.5373C20.594 12.9167 18.7134 9.5422 19.924 7.81159C19.9571 7.76482 20.0107 7.73593 20.0465 7.6919C20.6339 6.99443 21.6877 6.70829 23.2298 6.86925C22.8391 5.69441 21.2956 2.56474 17.9499 1.28673C17.8454 1.24683 17.7436 1.20694 17.6363 1.17117C17.2525 1.04186 16.8398 0.944182 16.4092 0.869895C15.9648 0.792857 15.5053 0.736454 15.0115 0.7282C13.556 0.696559 12.3385 1.1244 11.3728 1.93742C11.3384 1.96631 11.3026 1.99245 11.2696 2.02134C11.1912 2.0915 11.1004 2.14515 11.0247 2.22082C11.0206 2.22494 11.0165 2.23044 11.0124 2.23457C9.40145 3.87163 8.98874 6.45241 8.88281 7.79646C9.45372 7.46904 10.2021 7.1884 10.8377 7.05634C10.9807 7.02607 11.121 7.00131 11.2476 6.98755C12.7141 6.83898 13.6771 7.48693 13.966 8.82271C14.248 10.1104 14.3305 11.1339 14.303 11.9799C14.2549 13.489 13.8435 14.4162 13.5079 15.1605C13.4638 15.2582 13.4281 15.3503 13.3868 15.4453L13.2203 17.1029C13.4226 17.1236 13.589 17.1896 13.6963 17.235C14.1297 17.4152 14.4901 17.8486 14.6387 18.3686C14.6607 18.4442 14.6676 18.5171 14.6799 18.5914C14.6909 18.6203 14.6923 18.6533 14.6964 18.685C14.6964 18.6946 14.7006 18.7056 14.7019 18.7152C14.7019 18.7276 14.7088 18.74 14.7088 18.7524C14.7088 18.7565 14.7088 18.7593 14.7088 18.7634C14.7047 18.8886 14.7033 19.0124 14.6992 19.1376C14.6937 19.3976 14.6882 19.6562 14.6841 19.9107C14.64 23.05 14.7817 25.7299 15.0417 26.3792C15.4943 27.5155 16.1794 28.5074 18.1315 28.0905C19.9818 27.6943 20.6752 26.9914 20.9819 25.203L21.3905 21.9577L21.5295 20.8558L21.5817 20.4362L21.7413 19.1747L21.7441 19.15L21.7468 19.1266C21.6973 17.8431 22.2462 17.3891 22.7139 17.1896H22.7181Z" fill="#F2F2F2"/>
<path d="M23.1846 8.95814C23.2479 8.54544 23.2933 8.13961 23.3002 7.70489C21.9011 7.52881 20.9849 7.72003 20.5928 8.27993C20.5089 8.39961 20.4553 8.53856 20.414 8.68713C19.9999 10.1605 21.5228 12.9008 22.212 14.1376C22.406 14.4856 22.5504 14.7498 22.6096 14.8901C22.6894 15.0827 22.7774 15.2491 22.8668 15.406C22.8723 15.3936 22.8765 15.3812 22.8833 15.3688C22.9439 15.2409 22.992 15.1129 23.036 14.985C23.2823 14.2655 23.2892 13.5433 23.2286 12.8293C23.2052 12.5624 23.1764 12.2969 23.1447 12.0328C23.0801 11.4935 23.0127 10.9364 23.0305 10.4012C23.047 9.85096 23.1172 9.39698 23.186 8.95814H23.1846ZM20.7868 8.17263C21.0069 7.87961 21.4664 7.78744 21.6535 7.7613C22.2973 7.67325 22.7581 7.8741 22.8146 8.2758C22.8434 8.49041 22.732 8.68988 22.6343 8.82057C22.4335 9.08608 22.1363 9.27042 21.8392 9.31032C21.7938 9.31719 21.7484 9.31995 21.703 9.31995C21.1954 9.31995 20.729 8.93751 20.6781 8.5757C20.6575 8.43538 20.6974 8.29094 20.7882 8.17125L20.7868 8.17263Z" fill="#F2F2F2"/>
<path d="M19.2758 0.989248C22.7425 2.86018 24.088 6.56489 24.1471 7.20045C24.1554 7.28987 24.1416 7.35453 24.1251 7.41781C24.1485 8.041 24.0742 8.57339 23.9944 9.08376C23.9311 9.49922 23.8651 9.92843 23.8486 10.4292C23.8335 10.9024 23.894 11.4059 23.9573 11.9369C24.0825 12.9838 24.2131 14.1394 23.7853 15.3225C23.6863 15.5976 23.5514 15.8741 23.3836 16.1506C23.4029 16.1754 23.4249 16.2043 23.4441 16.2277C23.4895 16.2841 23.5253 16.3364 23.5666 16.3914C27.0347 10.9643 28.2384 4.65131 27.1571 3.23299C27.1544 3.23023 27.153 3.22473 27.1502 3.2206C27.1392 3.20685 27.1282 3.19722 27.1172 3.18346C27.0319 3.07478 26.9397 2.98399 26.8503 2.88356C26.7747 2.79827 26.699 2.71435 26.622 2.63181C26.6165 2.62631 26.611 2.61943 26.6041 2.61255C26.5243 2.52864 26.4445 2.4461 26.362 2.37043C26.3427 2.35255 26.3234 2.33879 26.3056 2.32091C23.722 -0.0356355 20.2622 0.298655 18.5742 0.659084C18.5962 0.668714 18.6169 0.679719 18.6403 0.689349C18.8562 0.785647 19.075 0.879193 19.2772 0.987872L19.2758 0.989248Z" fill="#F2F2F2"/>
<path d="M9.19608 16.5384C9.17957 16.5206 9.15893 16.5096 9.14243 16.4917C8.19045 15.4998 7.75849 14.1227 7.95521 12.7182C8.16844 11.1925 8.08865 9.84712 8.04601 9.12489C8.03363 8.92542 8.02537 8.77409 8.02675 8.6833V8.68055C8.01987 8.39578 7.98272 4.45995 10.1769 1.94108C10.2636 1.84203 10.3461 1.74023 10.4397 1.64668C10.4535 1.63292 10.4672 1.62192 10.481 1.60954C10.5002 1.59028 10.5222 1.57239 10.5429 1.55313C9.05438 1.06339 5.22723 0.0536395 2.90233 1.70171C1.96274 2.36616 1.36844 3.41718 1.10706 4.82313C1.10706 4.83001 1.10431 4.83689 1.10431 4.84239C1.08368 4.95382 1.06442 5.06663 1.04791 5.18356C1.0314 5.30049 1.01627 5.42018 1.00389 5.54261C0.99701 5.6114 0.995635 5.68431 0.990132 5.75309C0.974999 5.94569 0.959867 6.13966 0.95574 6.34739C0.950237 6.63766 0.952989 6.93756 0.968121 7.25121C1.05341 9.15103 3.25175 19.2595 5.7555 20.1015C5.91783 20.1565 6.41445 20.3229 7.1243 19.4686C8.13405 18.2608 9.07914 17.2318 9.4891 16.7916C9.39005 16.709 9.28825 16.632 9.19608 16.5384Z" fill="#F2F2F2"/>
<path d="M23.6423 17.8852C23.5927 17.8522 23.5487 17.8191 23.5088 17.7861C23.5061 17.7861 23.5047 17.7861 23.5033 17.7875C23.4318 17.815 23.3644 17.8343 23.3162 17.848C23.2323 17.8714 23.1484 17.8976 23.0686 17.9292C22.8017 18.0365 22.5816 18.2497 22.5651 18.8757C22.5624 18.961 22.561 19.0476 22.5651 19.1508C22.8031 19.4425 25.0056 19.4232 26.1873 18.8757C26.7774 18.6005 27.1833 18.2979 27.4268 18.0695C27.4474 18.0503 27.4735 18.0296 27.4914 18.0117C27.4612 18.0172 27.4281 18.0241 27.391 18.031C25.6081 18.3997 24.3466 18.3488 23.6436 17.8852H23.6423Z" fill="#F2F2F2"/>
<path d="M13.8491 18.5914C13.7721 18.319 13.5795 18.0714 13.38 17.9902C13.325 17.9668 13.2755 17.9476 13.2273 17.9338C13.1008 17.8967 12.9838 17.9159 12.8297 18.0439C12.7885 18.0782 12.7486 18.1085 12.6991 18.1635C12.6908 18.1732 12.6825 18.1814 12.6729 18.1897C12.4913 18.3947 12.3579 18.5652 12.2437 18.7097C11.7168 19.3783 11.4747 19.6066 9.90917 19.9272C9.54049 20.0042 9.34514 20.0812 9.24609 20.1335C9.2571 20.1418 9.28049 20.1528 9.29424 20.161C9.42493 20.2491 9.63128 20.3536 9.87065 20.4128C11.0414 20.7031 12.6702 20.7251 13.7886 19.1595C13.8574 19.0632 13.8821 18.9532 13.8835 18.8514C13.8835 18.8307 13.8808 18.8115 13.8794 18.7922C13.8753 18.7152 13.8629 18.6423 13.8478 18.5914H13.8491Z" fill="#F2F2F2"/>
<path d="M9.73244 15.9244C9.73932 15.9327 9.74895 15.9368 9.75582 15.9451C9.84937 16.04 9.95255 16.1184 10.0543 16.1996C10.6253 16.6577 11.3158 16.9163 11.9954 16.9177C12.0326 16.7595 12.0862 16.5958 12.1399 16.4307C12.2183 16.1899 12.3063 15.9423 12.4026 15.6823L12.4714 15.4952C12.554 15.2751 12.653 15.0536 12.7589 14.8198C13.1097 14.0439 13.5101 13.118 13.4812 11.5168C13.4688 10.8179 13.3835 10.0035 13.1634 8.99375C13.0217 8.33618 12.6778 7.95649 12.1137 7.8313C11.7065 7.73913 11.2278 7.79141 10.7628 7.90834C9.90165 8.12432 9.08587 8.56867 8.8465 8.79428C8.84787 8.82867 8.85063 8.87957 8.85338 8.92084C8.85613 8.97174 8.85888 9.01439 8.86163 9.07492C8.90565 9.82604 8.98819 11.2237 8.76533 12.8305C8.603 13.9861 8.95518 15.1142 9.73244 15.9244ZM10.8632 8.56729C10.8825 8.42835 10.9582 8.30178 11.0779 8.21099C11.3695 7.98675 11.8372 8.0239 12.0229 8.05278C12.6695 8.14496 13.052 8.46411 12.9997 8.86444C12.9639 9.11894 12.7479 9.30878 12.6558 9.37894C12.4522 9.53302 12.2169 9.61418 11.9803 9.61418C11.9335 9.61418 11.8868 9.61143 11.84 9.60455C11.5428 9.56466 11.2443 9.38032 11.0448 9.11481C10.9458 8.98412 10.8344 8.78327 10.8646 8.56867L10.8632 8.56729Z" fill="#F2F2F2"/>
</svg>
