<svg width="28" height="27" viewBox="0 0 28 27" fill="none" xmlns="http://www.w3.org/2000/svg">
<path d="M2.25982 0.0127326C2.80491 0.0609041 3.36742 0.242535 3.86095 0.450738C4.28817 0.631012 4.68262 0.83963 4.9969 1.02154L5.28304 1.1924L5.28617 1.19473L5.40891 1.28015C5.53104 1.37241 5.65139 1.481 5.7443 1.56051C5.9222 1.71269 6.15095 1.7789 6.38472 1.79149C6.47063 1.79611 6.55614 1.80097 6.64102 1.80591L7.32901 1.84241L7.3296 1.84244C7.35417 1.84346 7.37858 1.84683 7.4025 1.85251C8.19401 2.03465 9.01983 2.19978 9.73538 2.5631L9.87689 2.63843L9.88236 2.64154L10.4757 2.99179C13.38 4.75044 15.3609 6.61951 17.1859 9.57662L17.3423 9.84455C17.4882 10.1138 17.6067 10.3858 17.716 10.6507C17.8279 10.9218 17.9269 11.1779 18.0373 11.4335L18.153 11.6898L18.1569 11.6991L18.5111 12.4936C18.7533 13.0258 19.0073 13.5601 19.2671 14.0763L19.6603 14.835L19.665 14.8428L19.844 15.2187C19.9013 15.3426 19.9557 15.4601 20.0121 15.5751C20.097 15.7479 20.1817 15.9031 20.2764 16.0388L20.3749 16.1684L20.3847 16.1796C20.3849 16.1799 20.3851 16.1803 20.3853 16.1806C20.3857 16.1813 20.3861 16.1819 20.3867 16.1823C20.3899 16.1846 20.3954 16.1885 20.4038 16.1933C20.4311 16.209 20.4723 16.2273 20.532 16.2492C20.5956 16.2725 20.6518 16.2903 20.7314 16.3176C20.7662 16.3295 20.805 16.3432 20.8447 16.3587L20.9659 16.4115L20.9698 16.4139L21.1926 16.521C21.4207 16.6261 21.6648 16.7261 21.9236 16.8371C22.2586 16.9808 22.6135 17.1409 22.9298 17.3411C23.8863 17.9256 24.8111 18.6061 25.6661 19.3083L26.0289 19.6104L26.0343 19.615L26.1837 19.7579C26.3257 19.9044 26.4484 20.0604 26.5566 20.2006C26.7085 20.3974 26.8328 20.5631 26.9756 20.7023C27.0524 20.7767 27.096 20.8791 27.096 20.9857V21.1504C27.0959 21.3255 26.9802 21.4801 26.8114 21.5309C26.5187 21.6189 26.2105 21.7139 25.902 21.7902C25.9016 21.7902 25.9013 21.7901 25.901 21.7899C25.9008 21.7897 25.9004 21.7896 25.9001 21.7896C25.5455 21.8787 25.2135 21.9137 24.9148 21.9448C24.6088 21.9768 24.3369 22.0056 24.0564 22.0784C24.0225 22.0881 23.9873 22.0981 23.951 22.1085C23.7182 22.1749 23.6562 22.4687 23.8609 22.598C24.0652 22.7269 24.282 22.8492 24.4926 22.9684C24.5949 23.0262 24.6981 23.0847 24.796 23.1424L25.0688 23.3124L25.0758 23.3171L25.3542 23.5213C25.8932 23.9307 26.3992 24.4021 26.8401 24.9284C26.9921 25.1098 27.1472 25.2891 27.3204 25.4504L27.605 25.7199C27.6221 25.7369 27.6378 25.7554 27.6519 25.775C27.7476 25.911 27.8057 26.0621 27.8426 26.1533C27.887 26.2627 27.9098 26.3087 27.9333 26.3381C27.9883 26.4072 28.0108 26.4968 27.9951 26.5835L27.9849 26.6386C27.9535 26.8111 27.8199 26.9474 27.6472 26.9834L27.6183 26.9897C27.5333 27.0073 27.4433 27.0042 27.3657 26.9656C27.2142 26.8901 27.1029 26.7884 27.021 26.7078C26.9028 26.5915 26.8627 26.5418 26.7974 26.4942C26.5875 26.3534 26.378 26.1987 26.1805 26.0554C25.9772 25.9079 25.7835 25.7696 25.5926 25.6508C25.2674 25.4487 24.9121 25.2868 24.527 25.1126C24.1498 24.9419 23.7425 24.7586 23.3575 24.5247L23.3535 24.5224C22.9309 24.2586 22.5304 23.9598 22.1449 23.6712C21.7355 23.3747 21.3185 22.8417 21.0824 22.4566C20.9887 22.3124 20.9348 22.1529 20.9034 22.0714C20.7337 21.6313 20.5599 21.2395 21.2693 20.9717C21.3691 20.9341 21.4744 20.9073 21.5507 20.8879L21.7337 20.8351C22.475 20.5279 23.3063 20.3657 24.2723 20.3123C24.3309 20.309 24.352 20.2304 24.3019 20.1998C24.1795 20.125 24.0477 20.0451 23.9563 19.9777C23.366 19.561 22.7508 19.1329 22.1378 18.7615C22.0104 18.6852 21.8195 18.6113 21.5851 18.5285C21.3736 18.4539 21.1188 18.3693 20.9175 18.2816L20.7298 18.2156C20.6579 18.1924 20.5762 18.1677 20.4859 18.141C20.3119 18.0896 20.1089 18.0314 19.9144 17.9678C19.7203 17.9043 19.5175 17.8303 19.3406 17.7418C19.1759 17.6595 18.9892 17.543 18.8629 17.3753C18.2709 16.6192 17.879 15.6954 17.4992 14.8596C17.4988 14.8587 17.4984 14.8579 17.4979 14.8572C17.4974 14.8564 17.4969 14.8555 17.4965 14.8547C17.306 14.4267 17.0922 13.9881 16.874 13.5389C16.6582 13.0948 16.4386 12.6401 16.2415 12.1883L16.0961 11.8482C16.0531 11.7391 16.0143 11.6346 15.9773 11.5368C15.9019 11.3378 15.8307 11.1579 15.7324 10.9733C15.732 10.9726 15.7317 10.9718 15.7314 10.971C15.7311 10.9702 15.7308 10.9695 15.7304 10.9688C14.4123 8.46804 12.4613 6.37506 10.0981 4.90379C9.32265 4.42594 8.4674 3.9895 7.53149 3.69384L7.35637 3.65268C7.17439 3.61904 6.96975 3.60629 6.73406 3.59599C6.50205 3.58585 6.2352 3.57677 5.96907 3.53915C5.85448 3.52296 5.7392 3.51056 5.62348 3.51056H5.44045C5.40446 3.51056 5.36863 3.50586 5.33386 3.49658C5.07902 3.42634 4.87061 3.2674 4.72014 3.1409C4.53977 2.98922 4.45292 2.89786 4.34019 2.81861C3.8053 2.46417 3.26413 2.2215 2.59052 1.95425L2.57176 1.94648C2.46828 1.89944 2.26391 1.81919 2.0675 1.77485C1.96876 1.7526 1.88846 1.74318 1.83296 1.74456C1.81448 1.74504 1.79733 1.75406 1.78327 1.76607L1.77571 1.77252C1.76556 1.78119 1.75346 1.7873 1.74045 1.79031L1.70533 1.79845C1.69588 1.80064 1.6885 1.80802 1.6863 1.81746C1.68557 1.82061 1.68425 1.82358 1.68241 1.82623L1.66684 1.8486C1.6547 1.86606 1.64585 1.88583 1.64674 1.90708C1.64732 1.92096 1.64926 1.93972 1.65393 1.96434C1.66972 2.04729 1.70704 2.141 1.74931 2.23382L1.8439 2.41477C1.94353 2.58823 2.05729 2.74256 2.18242 2.89937C2.34127 3.09838 2.54885 3.33536 2.73203 3.59055L3.23238 4.28095C3.40576 4.53068 3.57223 4.79449 3.69364 5.0529C3.94597 5.58825 4.12942 6.14819 4.30032 6.68299C4.43035 7.0899 4.55384 7.4812 4.69669 7.85644L4.84679 8.22688L4.84758 8.22844L4.97736 8.50103C5.11883 8.77626 5.29678 9.06604 5.46754 9.31258L5.52852 9.38558C5.59428 9.45611 5.6782 9.52701 5.80137 9.64574C5.93554 9.77512 6.10702 9.95817 6.19853 10.2111C6.30181 10.4178 6.28977 10.6572 6.26732 10.8239C6.23982 11.0278 6.17902 11.2502 6.11253 11.4552C6.04514 11.663 5.96657 11.869 5.8991 12.0423C5.82846 12.2238 5.77587 12.3551 5.74743 12.4392C5.29531 13.8428 5.3875 15.8115 5.90144 17.0103L6.06797 17.3932C6.12122 17.5097 6.17574 17.6157 6.23996 17.7131C6.25776 17.7401 6.29945 17.7281 6.30307 17.696C6.33477 17.4146 6.36761 17.1314 6.40648 16.872C6.47811 16.3943 6.58241 15.9163 6.78018 15.4765C6.90422 15.1824 7.0836 14.9406 7.25083 14.7364C7.43248 14.5146 7.57652 14.3613 7.70427 14.178C7.82385 14.0062 8.05609 13.9556 8.23668 14.0615C8.47695 14.2026 8.55761 14.4585 8.59317 14.5764C8.60408 14.6126 8.61353 14.6491 8.6221 14.6805C8.63108 14.7133 8.63919 14.7412 8.64712 14.7682L8.68699 14.8785L8.69246 14.8902L8.69794 14.9026C8.94113 15.4713 9.19339 16.072 9.4813 16.6197L9.71037 17.0491C10.1756 17.9024 10.6823 18.7278 11.2364 19.4946L11.5179 19.8729C11.5205 19.876 11.5228 19.8793 11.5248 19.8828L11.5249 19.8829C11.7627 20.2149 12.1077 20.5907 12.4295 20.9081C12.4865 20.956 12.5263 20.9795 12.6265 21.0533C12.8141 21.1915 13.0244 21.3579 13.0244 21.5899C13.0244 21.8815 12.7294 22.0917 12.4607 21.9743C12.171 21.8475 11.9196 21.6937 11.6266 21.409C11.445 21.2325 11.3109 21.0863 11.1739 20.964L11.034 20.849C10.1801 20.2165 9.14053 19.2558 8.52985 18.3103L8.52956 18.3099C8.51986 18.2952 8.51134 18.2798 8.50405 18.2637C8.43 18.1064 8.35326 17.9518 8.27596 17.7975C8.27023 17.7861 8.25315 17.789 8.25153 17.8016C8.22335 18.0216 8.19578 18.2682 8.14755 18.4952C8.04896 18.9589 7.83894 19.4638 7.23727 19.7002C7.23696 19.7004 7.2366 19.7003 7.23636 19.7001C7.23613 19.6998 7.23576 19.6998 7.23545 19.6999C6.58534 19.9611 6.02312 19.7313 5.62625 19.4209C5.23898 19.1178 4.95897 18.7044 4.80927 18.4742L4.80536 18.4688C3.78929 16.8456 3.53052 14.1756 4.22683 12.0276L4.27217 11.8715C4.31241 11.7142 4.34226 11.5485 4.39022 11.3434C4.42985 11.174 4.48137 10.9827 4.56737 10.7989C4.5809 10.77 4.57948 10.7337 4.55675 10.7112C4.51836 10.6735 4.49042 10.6517 4.42853 10.5955C4.37683 10.5486 4.31048 10.4851 4.25028 10.4045C3.9707 10.0335 3.7366 9.60883 3.53337 9.22637L3.53181 9.22404C3.12828 8.4515 2.83615 7.51858 2.55221 6.74978L2.50062 6.60766C2.45335 6.46719 2.41855 6.33165 2.38804 6.21392C2.34577 6.05083 2.30967 5.9195 2.25826 5.79611C2.05927 5.37773 1.70125 4.96273 1.36388 4.51471L1.35684 4.50539C1.2585 4.36686 1.11938 4.20426 0.9378 3.97575C0.765701 3.75916 0.572408 3.50272 0.40774 3.22166C0.0828578 2.66704 -0.17399 1.93926 0.148183 1.17686C0.324724 0.753032 0.595114 0.446037 0.9378 0.251927C1.27531 0.060804 1.65454 -0.00512273 2.02763 0.000306967L2.25982 0.0127326Z" fill="#F2F2F2"/>
<path d="M6.40336 4.50384C6.65204 4.513 6.86678 4.61749 7.02176 4.72129L7.10932 4.78109C7.20303 4.84705 7.3227 4.94415 7.41143 5.07631C7.41171 5.07672 7.41218 5.07697 7.41268 5.07697C7.41316 5.07697 7.41361 5.07721 7.41389 5.07759C7.46433 5.14681 7.49869 5.21272 7.52367 5.26414L7.59169 5.41557C7.65 5.55825 7.70378 5.73892 7.69567 5.9359L7.68316 6.05627C7.62226 6.40758 7.45968 6.69557 7.18437 6.90044L7.21408 6.87326C7.19335 6.89537 7.16875 6.91425 7.14294 6.93151L7.13981 6.93306C7.13794 6.93429 7.13545 6.93574 7.13356 6.93694C6.95611 7.04932 6.68428 7.04411 6.53783 6.82822L6.50577 6.77386C6.43805 6.639 6.37403 6.50443 6.31189 6.37468L6.12425 5.99026L6.11018 5.96696C6.03302 5.86655 5.95164 5.78429 5.83733 5.65632C5.80366 5.61862 5.76844 5.57799 5.73299 5.53433C5.61952 5.39452 5.47438 5.26105 5.43783 5.08474L5.43654 5.07067C5.4322 5.0237 5.43185 4.97645 5.43549 4.92942C5.4634 4.76751 5.58595 4.63359 5.75212 4.59393L6.00855 4.54112C6.09764 4.52617 6.19212 4.51417 6.29469 4.50617L6.40336 4.50384Z" fill="#F2F2F2"/>
<path d="M7.13356 6.93694C7.12832 6.94018 7.12371 6.94458 7.11792 6.94782C7.11236 6.95089 7.10649 6.9542 7.10541 6.9548C7.10712 6.9539 7.11179 6.9511 7.11636 6.94859L7.13356 6.93694Z" fill="#F2F2F2"/>
<path d="M7.15076 6.92762C7.14853 6.92916 7.1455 6.93037 7.14294 6.93151C7.14681 6.92901 7.15114 6.92698 7.15466 6.92452L7.15076 6.92762Z" fill="#F2F2F2"/>
<path d="M7.18437 6.90044C7.18386 6.90147 7.18315 6.90238 7.18227 6.90312C7.17448 6.90974 7.16519 6.91705 7.15466 6.92452C7.16515 6.91718 7.1742 6.90801 7.18437 6.90044Z" fill="#F2F2F2"/>
</svg>
