<svg width="48" height="47" viewBox="0 0 48 47" fill="none" xmlns="http://www.w3.org/2000/svg">
<path d="M10.3008 0.5H37.3008C42.5475 0.5 46.8008 4.7533 46.8008 10V37C46.8008 42.2467 42.5475 46.5 37.3008 46.5H10.3008C5.05408 46.5 0.800781 42.2467 0.800781 37V10C0.800781 4.75329 5.05408 0.5 10.3008 0.5Z" fill="url(#paint0_linear_6137_3419)"/>
<path d="M10.3008 0.5H37.3008C42.5475 0.5 46.8008 4.7533 46.8008 10V37C46.8008 42.2467 42.5475 46.5 37.3008 46.5H10.3008C5.05408 46.5 0.800781 42.2467 0.800781 37V10C0.800781 4.75329 5.05408 0.5 10.3008 0.5Z" stroke="#E6E6E6"/>
<path d="M35.0986 8.05216C35.8994 7.89639 36.6652 8.08179 37.3633 8.71232L37.5186 8.86076C39.0764 10.4218 39.0715 12.9101 38.2646 15.6703C37.437 18.5012 35.7757 21.5757 34.1797 24.1264C33.0158 24.5094 31.7628 25.1145 30.7998 25.6244C30.3131 25.8821 29.8996 26.1169 29.6074 26.2865C29.4614 26.3713 29.3449 26.4401 29.2656 26.4877C29.2262 26.5113 29.1954 26.5299 29.1748 26.5424C29.1647 26.5486 29.1566 26.5538 29.1514 26.557L29.1436 26.561L29.2432 26.7348L29.2529 26.7299C29.2603 26.7261 29.2724 26.7205 29.2891 26.7123C29.3225 26.6958 29.3762 26.6693 29.4561 26.6322C29.6163 26.5579 29.8815 26.4385 30.2998 26.2611C30.5764 26.1435 31.1366 25.9826 31.7627 25.8197C32.2915 25.6822 32.8624 25.5445 33.3389 25.433C32.5301 26.6585 31.7863 27.7028 31.2334 28.4506C30.9414 28.8455 30.7032 29.1586 30.5381 29.3725C30.4559 29.479 30.3912 29.5612 30.3477 29.6166C30.326 29.6442 30.309 29.666 30.2979 29.6801L30.2959 29.6811C30.2925 29.6825 30.2891 29.6852 30.2852 29.6869C30.2622 29.697 30.2283 29.7118 30.1855 29.7319C30.0998 29.7721 29.9765 29.8328 29.8262 29.9145C29.5257 30.0777 29.1154 30.3255 28.6758 30.6645C27.9827 31.199 27.2125 31.964 26.6855 32.9838C27.2343 30.1934 28.0727 27.2867 29.209 24.2094L29.4502 23.5795C30.0813 21.9799 31.1746 19.5141 32.4268 17.0971C33.8601 14.3303 35.493 11.6435 36.8711 10.3822L36.7412 10.2309C33.6642 12.7174 30.3149 17.9085 27.9033 24.3617L27.9014 24.3656C26.5637 28.3751 25.7998 32.2351 25.6055 35.5102L25.5742 36.1576C25.4916 38.3453 25.6747 40.2562 26.1279 41.7309L26.084 41.7553C25.8313 41.1008 25.6196 40.0137 25.4863 38.724L25.4316 38.1274C25.3273 36.8368 25.3012 35.5403 25.3535 34.2465V34.2358L25.3301 33.9184L25.3291 33.9106C25.3289 33.9097 25.3283 33.9072 25.3281 33.9057C25.3275 33.902 25.3262 33.896 25.3252 33.8891C25.3231 33.8747 25.3206 33.8529 25.3164 33.8256C25.308 33.7705 25.2954 33.6894 25.2793 33.5883C25.2469 33.3856 25.1994 33.099 25.1396 32.7641C25.0499 32.2613 24.9311 31.6477 24.793 31.0424L24.6484 30.4438C24.4724 29.7532 24.2681 29.1147 24.0479 28.7387C24.0355 28.7172 24.0217 28.6579 24.0225 28.5434C24.0233 28.4342 24.0375 28.2899 24.0645 28.1137C24.1105 27.8125 24.1939 27.4232 24.3115 26.9623C24.4241 27.1622 24.5843 27.4445 24.7402 27.7348C24.9701 28.1627 25.1909 28.5965 25.2627 28.8022L25.4287 29.2944C25.4433 29.341 25.4523 29.3732 25.458 29.393C25.4608 29.4026 25.4627 29.4102 25.4639 29.4145C25.4643 29.4162 25.4654 29.4176 25.4658 29.4184L25.6611 29.3764L25.6602 29.3744L25.6592 29.3705V29.3686L25.6582 29.3666C25.6575 29.3627 25.6574 29.357 25.6562 29.351C25.653 29.3348 25.6478 29.311 25.6416 29.2807C25.6289 29.219 25.6106 29.1288 25.5859 29.018C25.5366 28.7961 25.4632 28.4871 25.3691 28.1391C25.185 27.4575 24.9168 26.6175 24.582 25.9848C24.7092 25.5515 24.859 25.0802 25.0244 24.5785C25.2866 25.0483 25.7028 25.8078 25.8672 26.1938L25.8682 26.1957L25.9121 26.3041L25.9814 26.5072L26.0879 26.8344C26.0976 26.8659 26.1044 26.888 26.1084 26.9018C26.1103 26.9083 26.1115 26.9134 26.1123 26.9164C26.1126 26.9175 26.1131 26.9187 26.1133 26.9194L26.3076 26.8754C26.3073 26.8737 26.307 26.8712 26.3066 26.8695L26.3057 26.8676L26.3047 26.8627C26.2716 26.699 26.2367 26.5352 26.1992 26.3725L26.0771 25.8735C25.9087 25.2188 25.6529 24.3585 25.3242 23.6742C26.1782 19.2114 28.9008 13.3803 31.8271 10.2348C32.0687 9.9734 32.3217 9.72174 32.585 9.48283L32.5859 9.4838C33.441 8.71504 34.2919 8.2092 35.0986 8.05216Z" fill="#0D0D0D"/>
<path d="M35.0986 8.05216C35.8994 7.89639 36.6652 8.08179 37.3633 8.71232L37.5186 8.86076C39.0764 10.4218 39.0715 12.9101 38.2646 15.6703C37.437 18.5012 35.7757 21.5757 34.1797 24.1264C33.0158 24.5094 31.7628 25.1145 30.7998 25.6244C30.3131 25.8821 29.8996 26.1169 29.6074 26.2865C29.4614 26.3713 29.3449 26.4401 29.2656 26.4877C29.2262 26.5113 29.1954 26.5299 29.1748 26.5424C29.1647 26.5486 29.1566 26.5538 29.1514 26.557L29.1436 26.561L29.2432 26.7348L29.2529 26.7299C29.2603 26.7261 29.2724 26.7205 29.2891 26.7123C29.3225 26.6958 29.3762 26.6693 29.4561 26.6322C29.6163 26.5579 29.8815 26.4385 30.2998 26.2611C30.5764 26.1435 31.1366 25.9826 31.7627 25.8197C32.2915 25.6822 32.8624 25.5445 33.3389 25.433C32.5301 26.6585 31.7863 27.7028 31.2334 28.4506C30.9414 28.8455 30.7032 29.1586 30.5381 29.3725C30.4559 29.479 30.3912 29.5612 30.3477 29.6166C30.326 29.6442 30.309 29.666 30.2979 29.6801L30.2959 29.6811C30.2925 29.6825 30.2891 29.6852 30.2852 29.6869C30.2622 29.697 30.2283 29.7118 30.1855 29.7319C30.0998 29.7721 29.9765 29.8328 29.8262 29.9145C29.5257 30.0777 29.1154 30.3255 28.6758 30.6645C27.9827 31.199 27.2125 31.964 26.6855 32.9838C27.2343 30.1934 28.0727 27.2867 29.209 24.2094L29.4502 23.5795C30.0813 21.9799 31.1746 19.5141 32.4268 17.0971C33.8601 14.3303 35.493 11.6435 36.8711 10.3822L36.7412 10.2309C33.6642 12.7174 30.3149 17.9085 27.9033 24.3617L27.9014 24.3656C26.5637 28.3751 25.7998 32.2351 25.6055 35.5102L25.5742 36.1576C25.4916 38.3453 25.6747 40.2562 26.1279 41.7309L26.084 41.7553C25.8313 41.1008 25.6196 40.0137 25.4863 38.724L25.4316 38.1274C25.3273 36.8368 25.3012 35.5403 25.3535 34.2465V34.2358L25.3301 33.9184L25.3291 33.9106C25.3289 33.9097 25.3283 33.9072 25.3281 33.9057C25.3275 33.902 25.3262 33.896 25.3252 33.8891C25.3231 33.8747 25.3206 33.8529 25.3164 33.8256C25.308 33.7705 25.2954 33.6894 25.2793 33.5883C25.2469 33.3856 25.1994 33.099 25.1396 32.7641C25.0499 32.2613 24.9311 31.6477 24.793 31.0424L24.6484 30.4438C24.4724 29.7532 24.2681 29.1147 24.0479 28.7387C24.0355 28.7172 24.0217 28.6579 24.0225 28.5434C24.0233 28.4342 24.0375 28.2899 24.0645 28.1137C24.1105 27.8125 24.1939 27.4232 24.3115 26.9623C24.4241 27.1622 24.5843 27.4445 24.7402 27.7348C24.9701 28.1627 25.1909 28.5965 25.2627 28.8022L25.4287 29.2944C25.4433 29.341 25.4523 29.3732 25.458 29.393C25.4608 29.4026 25.4627 29.4102 25.4639 29.4145C25.4643 29.4162 25.4654 29.4176 25.4658 29.4184L25.6611 29.3764L25.6602 29.3744L25.6592 29.3705V29.3686L25.6582 29.3666C25.6575 29.3627 25.6574 29.357 25.6562 29.351C25.653 29.3348 25.6478 29.311 25.6416 29.2807C25.6289 29.219 25.6106 29.1288 25.5859 29.018C25.5366 28.7961 25.4632 28.4871 25.3691 28.1391C25.185 27.4575 24.9168 26.6175 24.582 25.9848C24.7092 25.5515 24.859 25.0802 25.0244 24.5785C25.2866 25.0483 25.7028 25.8078 25.8672 26.1938L25.8682 26.1957L25.9121 26.3041L25.9814 26.5072L26.0879 26.8344C26.0976 26.8659 26.1044 26.888 26.1084 26.9018C26.1103 26.9083 26.1115 26.9134 26.1123 26.9164C26.1126 26.9175 26.1131 26.9187 26.1133 26.9194L26.3076 26.8754C26.3073 26.8737 26.307 26.8712 26.3066 26.8695L26.3057 26.8676L26.3047 26.8627C26.2716 26.699 26.2367 26.5352 26.1992 26.3725L26.0771 25.8735C25.9087 25.2188 25.6529 24.3585 25.3242 23.6742C26.1782 19.2114 28.9008 13.3803 31.8271 10.2348C32.0687 9.9734 32.3217 9.72174 32.585 9.48283L32.5859 9.4838C33.441 8.71504 34.2919 8.2092 35.0986 8.05216Z" fill="#0D0D0D"/>
<path d="M31.2773 9.50724L31.1709 9.61369C28.0625 12.9559 25.3192 18.8728 24.4355 23.5346L24.4326 23.5502L24.4346 23.5658L24.4912 23.9867L24.3301 24.0033L24.2656 24.0092L24.2451 24.0707C24.0561 24.6321 23.8776 25.1977 23.71 25.766L23.7041 25.7846L23.7061 25.8041L23.7637 26.3442L23.7656 26.3637L23.7744 26.3803L23.7764 26.3861L23.5898 26.4115L23.5244 26.4203L23.5068 26.4838C23.4048 26.8517 23.3166 27.2241 23.2441 27.599L23.1768 27.975C23.1458 28.1758 23.1241 28.36 23.124 28.5375C23.1234 28.6157 23.1167 28.7127 23.1318 28.8188C23.1477 28.9291 23.1869 29.0515 23.2734 29.2006L23.3232 29.2973C23.4131 29.4864 23.5315 29.8097 23.6455 30.1908L23.7783 30.6723C24.0469 31.7788 24.2666 32.8974 24.4365 34.0238L24.459 34.309C24.4107 35.5511 24.4336 36.7951 24.5254 38.0346H11.4658C10.8132 38.0328 10.1876 37.7691 9.72559 37.3012C9.32133 36.8917 9.0713 36.3544 9.01367 35.7826L9 35.5356V12.0092C9.00223 11.3464 9.26363 10.711 9.72559 10.2426C10.1298 9.83294 10.6593 9.57954 11.2227 9.52091L11.4658 9.50724H31.2773Z" fill="#0D0D0D"/>
<path d="M31.2773 9.50724L31.1709 9.61369C28.0625 12.9559 25.3192 18.8728 24.4355 23.5346L24.4326 23.5502L24.4346 23.5658L24.4912 23.9867L24.3301 24.0033L24.2656 24.0092L24.2451 24.0707C24.0561 24.6321 23.8776 25.1977 23.71 25.766L23.7041 25.7846L23.7061 25.8041L23.7637 26.3442L23.7656 26.3637L23.7744 26.3803L23.7764 26.3861L23.5898 26.4115L23.5244 26.4203L23.5068 26.4838C23.4048 26.8517 23.3166 27.2241 23.2441 27.599L23.1768 27.975C23.1458 28.1758 23.1241 28.36 23.124 28.5375C23.1234 28.6157 23.1167 28.7127 23.1318 28.8188C23.1477 28.9291 23.1869 29.0515 23.2734 29.2006L23.3232 29.2973C23.4131 29.4864 23.5315 29.8097 23.6455 30.1908L23.7783 30.6723C24.0469 31.7788 24.2666 32.8974 24.4365 34.0238L24.459 34.309C24.4107 35.5511 24.4336 36.7951 24.5254 38.0346H11.4658C10.8132 38.0328 10.1876 37.7691 9.72559 37.3012C9.32133 36.8917 9.0713 36.3544 9.01367 35.7826L9 35.5356V12.0092C9.00223 11.3464 9.26363 10.711 9.72559 10.2426C10.1298 9.83294 10.6593 9.57954 11.2227 9.52091L11.4658 9.50724H31.2773Z" fill="#0D0D0D"/>
<defs>
<linearGradient id="paint0_linear_6137_3419" x1="23.8008" y1="0" x2="23.8008" y2="47" gradientUnits="userSpaceOnUse">
<stop stop-color="#FAFAFA"/>
<stop offset="1" stop-color="#F2F2F2"/>
</linearGradient>
</defs>
</svg>
