<svg width="24" height="28" viewBox="0 0 24 28" fill="none" xmlns="http://www.w3.org/2000/svg">
<path d="M21.0187 0.0432703C21.6636 -0.0859405 22.2803 0.067846 22.8425 0.59087L22.9676 0.713998C24.2222 2.0089 24.2182 4.07296 23.5684 6.36253C22.9019 8.71074 21.564 11.261 20.2786 13.3768C19.3413 13.6945 18.3322 14.1965 17.5566 14.6195C17.1646 14.8332 16.8316 15.028 16.5963 15.1687C16.4787 15.239 16.3849 15.2961 16.321 15.3355C16.2893 15.3552 16.2645 15.3705 16.2479 15.3809C16.2397 15.386 16.2332 15.3904 16.229 15.3931L16.2227 15.3963L16.3029 15.5405L16.3108 15.5364C16.3167 15.5333 16.3265 15.5287 16.3399 15.5219C16.3669 15.5081 16.41 15.4862 16.4744 15.4554C16.6034 15.3938 16.817 15.2947 17.1539 15.1476C17.3767 15.05 17.8278 14.9165 18.3321 14.7815C18.7579 14.6674 19.2177 14.5532 19.6014 14.4607C18.9501 15.4772 18.3511 16.3434 17.9058 16.9638C17.6706 17.2914 17.4788 17.551 17.3458 17.7285C17.2796 17.8168 17.2276 17.885 17.1924 17.931C17.175 17.9538 17.1613 17.972 17.1523 17.9836L17.1508 17.9844C17.1481 17.9856 17.1453 17.9878 17.1421 17.9893C17.1236 17.9977 17.0963 18.0099 17.0619 18.0266C16.9928 18.06 16.8935 18.1103 16.7725 18.178C16.5305 18.3134 16.2 18.519 15.846 18.8002C15.2878 19.2436 14.6676 19.8781 14.2431 20.7241C14.6851 18.4095 15.3603 15.9983 16.2754 13.4457L16.4697 12.9232C16.9779 11.5963 17.8585 9.55092 18.8669 7.54603C20.0212 5.25099 21.3363 3.02232 22.4461 1.97607L22.3415 1.85051C19.8635 3.91307 17.1661 8.21911 15.2239 13.5721L15.2223 13.5753C14.145 16.9012 13.5298 20.103 13.3733 22.8197L13.3481 23.3567C13.2816 25.1714 13.429 26.7565 13.7941 27.9797L13.7587 28C13.5552 27.4571 13.3847 26.5553 13.2773 25.4856L13.2333 24.9906C13.1493 23.9201 13.1282 22.8446 13.1704 21.7715V21.7626L13.1515 21.4993L13.1507 21.4928C13.1506 21.4921 13.1501 21.49 13.1499 21.4888C13.1495 21.4857 13.1484 21.4807 13.1476 21.475C13.1459 21.4631 13.1439 21.445 13.1405 21.4223C13.1337 21.3766 13.1236 21.3093 13.1106 21.2255C13.0845 21.0573 13.0463 20.8196 12.9981 20.5418C12.9258 20.1248 12.8302 19.6158 12.7189 19.1137L12.6025 18.6171C12.4608 18.0442 12.2963 17.5147 12.1189 17.2027C12.1089 17.1849 12.0978 17.1357 12.0984 17.0407C12.0991 16.9501 12.1105 16.8305 12.1322 16.6843C12.1694 16.4344 12.2365 16.1115 12.3312 15.7292C12.4219 15.895 12.5509 16.1292 12.6765 16.37C12.8616 16.725 13.0395 17.0848 13.0972 17.2554L13.2309 17.6637C13.2427 17.7023 13.25 17.729 13.2545 17.7455C13.2568 17.7535 13.2583 17.7597 13.2593 17.7633C13.2596 17.7647 13.2605 17.7659 13.2608 17.7665L13.4181 17.7317L13.4173 17.7301L13.4166 17.7268V17.7252L13.4158 17.7236C13.4152 17.7204 13.4152 17.7156 13.4142 17.7106C13.4116 17.6972 13.4074 17.6774 13.4024 17.6523C13.3922 17.6012 13.3774 17.5263 13.3576 17.4344C13.3178 17.2503 13.2587 16.9941 13.183 16.7054C13.0347 16.14 12.8187 15.4432 12.5491 14.9184C12.6515 14.559 12.7721 14.168 12.9053 13.7519C13.1165 14.1416 13.4516 14.7715 13.5841 15.0917L13.5849 15.0933L13.6203 15.1833L13.6761 15.3518L13.7618 15.6231C13.7697 15.6493 13.7751 15.6676 13.7783 15.679C13.7799 15.6844 13.7808 15.6887 13.7815 15.6912C13.7817 15.6921 13.7821 15.6931 13.7823 15.6936L13.9388 15.6571C13.9385 15.6557 13.9383 15.6537 13.938 15.6523L13.9372 15.6507L13.9364 15.6466C13.9097 15.5108 13.8817 15.375 13.8515 15.24L13.7532 14.826C13.6175 14.283 13.4115 13.5694 13.1468 13.0018C13.8346 9.29988 16.0272 4.46293 18.384 1.85375C18.5785 1.63693 18.7823 1.42819 18.9943 1.23001L18.9951 1.23082C19.6837 0.593124 20.3689 0.173528 21.0187 0.0432703Z" fill="#F2F2F2"/>
<path d="M17.9412 1.25026L17.8554 1.33855C15.352 4.11092 13.1428 9.01894 12.4311 12.8859L12.4287 12.8989L12.4303 12.9119L12.4759 13.261L12.3462 13.2748L12.2942 13.2796L12.2777 13.3307C12.1255 13.7963 11.9818 14.2655 11.8467 14.7369L11.842 14.7523L11.8436 14.7685L11.89 15.2165L11.8916 15.2327L11.8987 15.2464L11.9002 15.2513L11.75 15.2724L11.6973 15.2797L11.6832 15.3323C11.601 15.6375 11.53 15.9464 11.4716 16.2574L11.4173 16.5693C11.3924 16.7358 11.3749 16.8886 11.3749 17.0359C11.3743 17.1007 11.369 17.1812 11.3811 17.2692C11.3939 17.3607 11.4255 17.4622 11.4952 17.5859L11.5353 17.6661C11.6077 17.823 11.703 18.0912 11.7948 18.4073L11.9018 18.8066C12.1181 19.7245 12.2951 20.6524 12.4319 21.5868L12.45 21.8233C12.4111 22.8536 12.4295 23.8855 12.5035 24.9137H1.98586C1.46028 24.9122 0.956449 24.6934 0.584354 24.3053C0.258783 23.9656 0.0574215 23.5199 0.0110107 23.0457L0 22.8407V3.32563C0.00179423 2.77586 0.212315 2.24876 0.584354 1.86023C0.909871 1.52043 1.33634 1.31023 1.79003 1.2616L1.98586 1.25026H17.9412Z" fill="#F2F2F2"/>
</svg>
