<svg width="29" height="29" viewBox="0 0 29 29" fill="none" xmlns="http://www.w3.org/2000/svg">
<path d="M14.3734 28.7468C6.4216 28.7468 0 22.3252 0 14.3734C0 6.4216 6.4216 0 14.3734 0C22.3252 0 28.7468 6.4216 28.7468 14.3734C28.7468 22.3252 22.3252 28.7468 14.3734 28.7468Z" fill="#FFF100"/>
<path d="M22.2444 12.1797H19.418V16.4451H22.2444C23.4163 16.4451 24.39 15.4714 24.39 14.2995C24.39 13.1189 23.4163 12.1797 22.2444 12.1797Z" fill="#0D0D0D"/>
<path d="M5.57031 14.3173C5.57031 17.609 8.25021 20.2889 11.5419 20.2889C14.8336 20.2889 17.5135 17.609 17.5135 14.3173C17.5135 11.0256 14.8336 8.3457 11.5419 8.3457C8.25021 8.3457 5.57031 11.0256 5.57031 14.3173Z" fill="#0D0D0D"/>
</svg>
