<svg width="51" height="51" viewBox="0 0 51 51" fill="none" xmlns="http://www.w3.org/2000/svg">
<path d="M11.1934 0.572998H40.0537C45.6616 0.573074 50.2078 5.11939 50.208 10.7273V39.5876C50.2079 45.1956 45.6617 49.7419 40.0537 49.7419H11.1934C5.58545 49.7418 1.03914 45.1956 1.03906 39.5876V10.7273C1.03925 5.11946 5.58552 0.57319 11.1934 0.572998Z" fill="white"/>
<path d="M11.1934 0.572998H40.0537C45.6616 0.573074 50.2078 5.11939 50.208 10.7273V39.5876C50.2079 45.1956 45.6617 49.7419 40.0537 49.7419H11.1934C5.58545 49.7418 1.03914 45.1956 1.03906 39.5876V10.7273C1.03925 5.11946 5.58552 0.57319 11.1934 0.572998Z" fill="url(#paint0_linear_6328_416)"/>
<path d="M11.1934 0.572998H40.0537C45.6616 0.573074 50.2078 5.11939 50.208 10.7273V39.5876C50.2079 45.1956 45.6617 49.7419 40.0537 49.7419H11.1934C5.58545 49.7418 1.03914 45.1956 1.03906 39.5876V10.7273C1.03925 5.11946 5.58552 0.57319 11.1934 0.572998Z" stroke="#E6E6E6" stroke-width="1.06888"/>
<path d="M25.1704 46.3007C13.6393 46.3007 4.32715 36.9886 4.32715 25.4575C4.32715 13.9264 13.6393 4.61426 25.1704 4.61426C36.7015 4.61426 46.0136 13.9264 46.0136 25.4575C46.0136 36.9886 36.7015 46.3007 25.1704 46.3007Z" fill="#2A2A2A"/>
<path d="M36.584 22.2766H32.4854V28.462H36.584C38.2834 28.462 39.6954 27.05 39.6954 25.3506C39.6954 23.6387 38.2834 22.2766 36.584 22.2766Z" fill="#FFF100"/>
<path d="M12.4062 25.3753C12.4062 30.1487 16.2924 34.0349 21.0658 34.0349C25.8392 34.0349 29.7254 30.1487 29.7254 25.3753C29.7254 20.6019 25.8392 16.7157 21.0658 16.7157C16.2924 16.7157 12.4062 20.6019 12.4062 25.3753Z" fill="#FFF100"/>
<defs>
<linearGradient id="paint0_linear_6328_416" x1="25.6236" y1="0.0388184" x2="25.6236" y2="50.2763" gradientUnits="userSpaceOnUse">
<stop stop-color="#FAFAFA"/>
<stop offset="1" stop-color="#F2F2F2"/>
</linearGradient>
</defs>
</svg>
