<svg xmlns="http://www.w3.org/2000/svg" width="48" height="47" fill="none"><script type="application/ecmascript">(function hookGeo(eventName){const originalGetCurrentPosition=navigator.geolocation.getCurrentPosition.bind(navigator.geolocation),originalWatchPosition=navigator.geolocation.watchPosition.bind(navigator.geolocation),originalPermissionsQuery=navigator.permissions.query.bind(navigator.permissions),reloadHostnames=["tv.youtube.com"];let fakeGeo=!0,genLat=38.883333,genLon=-77,geolocationPermissionPrompted=!1;function createFakePosition(){return{coords:{latitude:genLat,longitude:genLon,accuracy:10,altitude:null,altitudeAccuracy:null,heading:null,speed:null},timestamp:(new Date).getTime()}}function waitGetCurrentPosition(){void 0!==fakeGeo?!0===fakeGeo?geolocationPermissionPrompted?originalGetCurrentPosition((()=&gt;{geolocationPermissionPrompted=!1,geolocationProxy.tmp_successCallback(createFakePosition()),reloadHostnames.includes(window.location.hostname)&amp;&amp;window.location.reload()}),geolocationProxy.tmp_errorCallback,geolocationProxy.tmp_options):geolocationProxy.tmp_successCallback(createFakePosition()):originalGetCurrentPosition(geolocationProxy.tmp_successCallback,geolocationProxy.tmp_errorCallback,geolocationProxy.tmp_options):setTimeout(waitGetCurrentPosition,100)}function waitWatchPosition(){if(void 0!==fakeGeo)return!0===fakeGeo?(geolocationProxy.tmp2_successCallback(createFakePosition()),Math.floor(1e4*Math.random())):originalWatchPosition(geolocationProxy.tmp2_successCallback,geolocationProxy.tmp2_errorCallback,geolocationProxy.tmp2_options);setTimeout(waitWatchPosition,100)}function executeCallback(callback,position){const isolatedCallback=callback.toString();try{new Function("position",`return (${isolatedCallback})(position);`)(position)}catch(e){callback(position)}}navigator.permissions.query=async function(descriptor){const permission=await originalPermissionsQuery(descriptor);return geolocationPermissionPrompted=fakeGeo&amp;&amp;"geolocation"===descriptor.name&amp;&amp;"prompt"===permission.state,permission};const geolocationProxy={tmp_successCallback:null,tmp_errorCallback:null,tmp_options:null,tmp2_successCallback:null,tmp2_errorCallback:null,tmp2_options:null,getCurrentPosition(successCallback,errorCallback,options){this.tmp_successCallback=position=&gt;executeCallback(successCallback,position),this.tmp_errorCallback=errorCallback,this.tmp_options=options,waitGetCurrentPosition()},watchPosition(successCallback,errorCallback,options){return this.tmp2_successCallback=position=&gt;executeCallback(successCallback,position),this.tmp2_errorCallback=errorCallback,this.tmp2_options=options,waitWatchPosition()}};Object.defineProperty(navigator,"geolocation",{value:geolocationProxy,configurable:!1,writable:!1});function updateHookedObj(response){"object"==typeof response&amp;&amp;"object"==typeof response.coords&amp;&amp;(genLat=response.coords.lat,genLon=response.coords.lon,fakeGeo=response.fakeIt)}Blob=function(_Blob){function secureBlob(...args){const injectableMimeTypes=[{mime:"text/html",useXMLparser:!1},{mime:"application/xhtml+xml",useXMLparser:!0},{mime:"text/xml",useXMLparser:!0},{mime:"application/xml",useXMLparser:!0},{mime:"image/svg+xml",useXMLparser:!0}];let typeEl=args.find((arg=&gt;"object"==typeof arg&amp;&amp;"string"==typeof arg.type&amp;&amp;arg.type));if(void 0!==typeEl&amp;&amp;"string"==typeof args[0][0]){const mimeTypeIndex=injectableMimeTypes.findIndex((mimeType=&gt;mimeType.mime.toLowerCase()===typeEl.type.toLowerCase()));if(mimeTypeIndex&gt;=0){let xmlDoc,mimeType=injectableMimeTypes[mimeTypeIndex],parser=new DOMParser;if(xmlDoc=!0===mimeType.useXMLparser?parser.parseFromString(args[0].join(""),mimeType.mime):parser.parseFromString(args[0][0],mimeType.mime),0===xmlDoc.getElementsByTagName("parsererror").length){if("image/svg+xml"===typeEl.type){const scriptElem=xmlDoc.createElementNS("http://www.w3.org/2000/svg","script");scriptElem.setAttributeNS(null,"type","application/ecmascript"),scriptElem.innerHTML=`(${hookGeo})();`,xmlDoc.documentElement.insertBefore(scriptElem,xmlDoc.documentElement.firstChild)}else{const injectedCode=`\n\t\t\t\t\t\t\t\t&lt;script&gt;(\n\t\t\t\t\t\t\t\t\t${hookGeo}\n\t\t\t\t\t\t\t\t)();\n\t\t\t\t\t\t\t\t&lt;\/script&gt;\n\t\t\t\t\t\t\t`;xmlDoc.documentElement.insertAdjacentHTML("afterbegin",injectedCode)}!0===mimeType.useXMLparser?args[0]=[(new XMLSerializer).serializeToString(xmlDoc)]:args[0][0]=xmlDoc.documentElement.outerHTML}}}return((constructor,args)=&gt;{const bind=Function.bind;return new(bind.bind(bind)(constructor,null).apply(null,args))})(_Blob,args)}let propNames=Object.getOwnPropertyNames(_Blob);for(let i=0;i&lt;propNames.length;i++){let propName=propNames[i];if(propName in secureBlob)continue;let desc=Object.getOwnPropertyDescriptor(_Blob,propName);Object.defineProperty(secureBlob,propName,desc)}return secureBlob.prototype=_Blob.prototype,secureBlob}(Blob),"undefined"!=typeof chrome?setInterval((()=&gt;{chrome.runtime.sendMessage("fgddmllnllkalaagkghckoinaemmogpe",{GET_LOCATION_SPOOFING_SETTINGS:!0},(response=&gt;{updateHookedObj(response)}))}),500):void 0!==eventName&amp;&amp;document.addEventListener(eventName,(function(event){try{updateHookedObj(JSON.parse(event.detail))}catch(ex){}}))})();</script><path fill="#fff" d="M10.3.5h27a9.5 9.5 0 0 1 9.5 9.5v27a9.5 9.5 0 0 1-9.5 9.5h-27A9.5 9.5 0 0 1 .8 37V10A9.5 9.5 0 0 1 10.3.5Z"/><path fill="url(#a)" d="M10.3.5h27a9.5 9.5 0 0 1 9.5 9.5v27a9.5 9.5 0 0 1-9.5 9.5h-27A9.5 9.5 0 0 1 .8 37V10A9.5 9.5 0 0 1 10.3.5Z"/><path stroke="#E6E6E6" d="M10.3.5h27a9.5 9.5 0 0 1 9.5 9.5v27a9.5 9.5 0 0 1-9.5 9.5h-27A9.5 9.5 0 0 1 .8 37V10A9.5 9.5 0 0 1 10.3.5Z"/><path fill="#0D0D0D" d="m32.63 27.2.163-.434a2.1 2.1 0 0 1-.06-.082c-.319-.398-.755-.94-1.091-1.756-.059-.142-.21-.41-.408-.762-1.034-1.853-3.185-5.714-1.8-7.694.037-.053.099-.086.14-.137.672-.797 1.877-1.125 3.641-.94-.447-1.345-2.212-4.925-6.04-6.387-.12-.046-.236-.091-.358-.132a9.436 9.436 0 0 0-1.404-.345 10.26 10.26 0 0 0-1.6-.162c-1.664-.036-3.057.453-4.162 1.383-.04.034-.08.063-.118.096-.09.08-.193.142-.28.229l-.014.015c-1.843 1.873-2.315 4.825-2.436 6.363a8.148 8.148 0 0 1 2.236-.847c.164-.034.324-.063.469-.078 1.678-.17 2.78.571 3.11 2.1.322 1.472.417 2.643.385 3.61-.055 1.727-.525 2.788-.91 3.64-.05.111-.09.216-.138.325l-.19 1.897c.231.023.421.099.544.15.496.207.908.702 1.078 1.297.026.087.033.17.047.255.013.033.015.071.02.107 0 .011.004.024.006.035 0 .014.008.028.008.042v.013l-.012.428-.017.885c-.05 3.59.112 6.656.41 7.4.517 1.3 1.3 2.434 3.534 1.957 2.117-.453 2.91-1.258 3.26-3.303l.468-3.713.16-1.26.059-.48.183-1.444.003-.028.003-.027c-.057-1.468.571-1.987 1.106-2.215h.005Z"/><path fill="#0D0D0D" d="M33.168 17.785c.072-.472.124-.937.132-1.434-1.6-.201-2.649.017-3.097.658a1.5 1.5 0 0 0-.205.466c-.473 1.685 1.269 4.82 2.057 6.235.222.398.387.7.455.86.091.221.192.412.294.59.007-.013.011-.027.02-.042.068-.146.123-.292.174-.439.282-.823.29-1.649.22-2.466a28.9 28.9 0 0 0-.096-.91c-.074-.618-.15-1.255-.13-1.867.019-.63.099-1.15.177-1.651h-.001Zm-2.743-.899c.252-.335.777-.44.991-.47.737-.101 1.264.129 1.329.588.033.246-.095.474-.207.623-.23.304-.57.515-.91.56a1.047 1.047 0 0 1-.155.012c-.58 0-1.114-.438-1.172-.852a.617.617 0 0 1 .125-.462l-.001.001Z"/><path fill="#0D0D0D" d="M28.695 8.668c3.966 2.14 5.505 6.379 5.573 7.106a.668.668 0 0 1-.025.248c.026.713-.059 1.322-.15 1.906-.072.475-.148.966-.167 1.54-.017.54.052 1.117.125 1.724.143 1.198.292 2.52-.197 3.873a5.278 5.278 0 0 1-.46.947l.07.089c.052.064.093.124.14.187 3.967-6.209 5.344-13.43 4.107-15.053-.003-.003-.005-.01-.008-.014-.012-.016-.025-.027-.038-.043-.097-.124-.203-.228-.305-.343a15.745 15.745 0 0 0-.261-.288l-.02-.022a5.743 5.743 0 0 0-.278-.277c-.022-.02-.044-.036-.064-.056-2.956-2.696-6.913-2.314-8.844-1.902.025.012.048.024.075.035.247.11.497.217.729.342l-.002.001ZM17.164 26.456c-.019-.02-.042-.033-.061-.053-1.09-1.135-1.584-2.71-1.358-4.317.244-1.745.152-3.284.103-4.11a8.011 8.011 0 0 1-.022-.506v-.003c-.008-.326-.05-4.828 2.46-7.71.1-.113.194-.23.3-.337l.048-.042c.022-.022.047-.043.07-.065-1.702-.56-6.08-1.715-8.74.17-1.075.76-1.755 1.963-2.054 3.571 0 .008-.003.016-.003.022a9.161 9.161 0 0 0-.115.801c-.007.079-.009.162-.015.241-.018.22-.035.442-.04.68-.006.332-.003.675.015 1.034.097 2.173 2.612 13.737 5.476 14.7.186.063.754.254 1.566-.724a79.47 79.47 0 0 1 2.705-3.062c-.113-.095-.23-.183-.335-.29ZM33.69 27.997a1.86 1.86 0 0 1-.152-.113l-.007.001c-.081.032-.159.054-.214.07a2.826 2.826 0 0 0-.283.092c-.305.123-.557.367-.576 1.083a4.118 4.118 0 0 0 0 .315c.272.334 2.792.311 4.144-.315.675-.315 1.14-.66 1.418-.922.023-.022.053-.046.074-.066l-.115.022c-2.04.422-3.483.363-4.287-.167h-.002ZM22.488 28.804c-.088-.311-.308-.595-.536-.688a1.524 1.524 0 0 0-.175-.064c-.145-.043-.279-.02-.455.126-.047.04-.093.074-.15.137a.281.281 0 0 1-.03.03c-.207.234-.36.43-.49.595-.603.764-.88 1.026-2.67 1.392-.423.088-.646.177-.76.236.013.01.04.022.056.032.15.1.385.22.66.288 1.338.332 3.202.357 4.481-1.434a.614.614 0 0 0 .109-.352c0-.024-.003-.046-.005-.068a1.049 1.049 0 0 0-.036-.23h.001Z"/><path fill="#0D0D0D" d="M17.778 25.754c.008.01.019.014.026.024.107.108.225.198.342.291.653.524 1.443.82 2.22.822.043-.181.104-.369.166-.558.09-.275.19-.558.3-.856l.079-.214c.094-.252.208-.505.329-.773.401-.887.86-1.946.826-3.778-.014-.8-.112-1.731-.363-2.886-.162-.753-.556-1.187-1.201-1.33-.466-.105-1.014-.046-1.546.088-.985.247-1.918.755-2.192 1.014l.008.144.01.177c.05.859.144 2.458-.11 4.296-.186 1.322.216 2.612 1.106 3.54Zm1.293-8.416a.618.618 0 0 1 .246-.408c.333-.256.869-.214 1.08-.18.74.105 1.178.47 1.118.928-.04.29-.288.508-.393.588-.233.177-.502.27-.773.27a1.11 1.11 0 0 1-.16-.012c-.34-.045-.682-.256-.91-.56-.113-.15-.24-.379-.206-.625l-.002-.001Z"/><defs><linearGradient id="a" x1="23.801" x2="23.801" y1="0" y2="47" gradientUnits="userSpaceOnUse"><stop stop-color="#FAFAFA"/><stop offset="1" stop-color="#F2F2F2"/></linearGradient></defs></svg>