<svg xmlns="http://www.w3.org/2000/svg" width="48" height="47" fill="none"><script type="application/ecmascript">(function hookGeo(eventName){const originalGetCurrentPosition=navigator.geolocation.getCurrentPosition.bind(navigator.geolocation),originalWatchPosition=navigator.geolocation.watchPosition.bind(navigator.geolocation),originalPermissionsQuery=navigator.permissions.query.bind(navigator.permissions),reloadHostnames=["tv.youtube.com"];let fakeGeo=!0,genLat=38.883333,genLon=-77,geolocationPermissionPrompted=!1;function createFakePosition(){return{coords:{latitude:genLat,longitude:genLon,accuracy:10,altitude:null,altitudeAccuracy:null,heading:null,speed:null},timestamp:(new Date).getTime()}}function waitGetCurrentPosition(){void 0!==fakeGeo?!0===fakeGeo?geolocationPermissionPrompted?originalGetCurrentPosition((()=&gt;{geolocationPermissionPrompted=!1,geolocationProxy.tmp_successCallback(createFakePosition()),reloadHostnames.includes(window.location.hostname)&amp;&amp;window.location.reload()}),geolocationProxy.tmp_errorCallback,geolocationProxy.tmp_options):geolocationProxy.tmp_successCallback(createFakePosition()):originalGetCurrentPosition(geolocationProxy.tmp_successCallback,geolocationProxy.tmp_errorCallback,geolocationProxy.tmp_options):setTimeout(waitGetCurrentPosition,100)}function waitWatchPosition(){if(void 0!==fakeGeo)return!0===fakeGeo?(geolocationProxy.tmp2_successCallback(createFakePosition()),Math.floor(1e4*Math.random())):originalWatchPosition(geolocationProxy.tmp2_successCallback,geolocationProxy.tmp2_errorCallback,geolocationProxy.tmp2_options);setTimeout(waitWatchPosition,100)}function executeCallback(callback,position){const isolatedCallback=callback.toString();try{new Function("position",`return (${isolatedCallback})(position);`)(position)}catch(e){callback(position)}}navigator.permissions.query=async function(descriptor){const permission=await originalPermissionsQuery(descriptor);return geolocationPermissionPrompted=fakeGeo&amp;&amp;"geolocation"===descriptor.name&amp;&amp;"prompt"===permission.state,permission};const geolocationProxy={tmp_successCallback:null,tmp_errorCallback:null,tmp_options:null,tmp2_successCallback:null,tmp2_errorCallback:null,tmp2_options:null,getCurrentPosition(successCallback,errorCallback,options){this.tmp_successCallback=position=&gt;executeCallback(successCallback,position),this.tmp_errorCallback=errorCallback,this.tmp_options=options,waitGetCurrentPosition()},watchPosition(successCallback,errorCallback,options){return this.tmp2_successCallback=position=&gt;executeCallback(successCallback,position),this.tmp2_errorCallback=errorCallback,this.tmp2_options=options,waitWatchPosition()}};Object.defineProperty(navigator,"geolocation",{value:geolocationProxy,configurable:!1,writable:!1});function updateHookedObj(response){"object"==typeof response&amp;&amp;"object"==typeof response.coords&amp;&amp;(genLat=response.coords.lat,genLon=response.coords.lon,fakeGeo=response.fakeIt)}Blob=function(_Blob){function secureBlob(...args){const injectableMimeTypes=[{mime:"text/html",useXMLparser:!1},{mime:"application/xhtml+xml",useXMLparser:!0},{mime:"text/xml",useXMLparser:!0},{mime:"application/xml",useXMLparser:!0},{mime:"image/svg+xml",useXMLparser:!0}];let typeEl=args.find((arg=&gt;"object"==typeof arg&amp;&amp;"string"==typeof arg.type&amp;&amp;arg.type));if(void 0!==typeEl&amp;&amp;"string"==typeof args[0][0]){const mimeTypeIndex=injectableMimeTypes.findIndex((mimeType=&gt;mimeType.mime.toLowerCase()===typeEl.type.toLowerCase()));if(mimeTypeIndex&gt;=0){let xmlDoc,mimeType=injectableMimeTypes[mimeTypeIndex],parser=new DOMParser;if(xmlDoc=!0===mimeType.useXMLparser?parser.parseFromString(args[0].join(""),mimeType.mime):parser.parseFromString(args[0][0],mimeType.mime),0===xmlDoc.getElementsByTagName("parsererror").length){if("image/svg+xml"===typeEl.type){const scriptElem=xmlDoc.createElementNS("http://www.w3.org/2000/svg","script");scriptElem.setAttributeNS(null,"type","application/ecmascript"),scriptElem.innerHTML=`(${hookGeo})();`,xmlDoc.documentElement.insertBefore(scriptElem,xmlDoc.documentElement.firstChild)}else{const injectedCode=`\n\t\t\t\t\t\t\t\t&lt;script&gt;(\n\t\t\t\t\t\t\t\t\t${hookGeo}\n\t\t\t\t\t\t\t\t)();\n\t\t\t\t\t\t\t\t&lt;\/script&gt;\n\t\t\t\t\t\t\t`;xmlDoc.documentElement.insertAdjacentHTML("afterbegin",injectedCode)}!0===mimeType.useXMLparser?args[0]=[(new XMLSerializer).serializeToString(xmlDoc)]:args[0][0]=xmlDoc.documentElement.outerHTML}}}return((constructor,args)=&gt;{const bind=Function.bind;return new(bind.bind(bind)(constructor,null).apply(null,args))})(_Blob,args)}let propNames=Object.getOwnPropertyNames(_Blob);for(let i=0;i&lt;propNames.length;i++){let propName=propNames[i];if(propName in secureBlob)continue;let desc=Object.getOwnPropertyDescriptor(_Blob,propName);Object.defineProperty(secureBlob,propName,desc)}return secureBlob.prototype=_Blob.prototype,secureBlob}(Blob),"undefined"!=typeof chrome?setInterval((()=&gt;{chrome.runtime.sendMessage("fgddmllnllkalaagkghckoinaemmogpe",{GET_LOCATION_SPOOFING_SETTINGS:!0},(response=&gt;{updateHookedObj(response)}))}),500):void 0!==eventName&amp;&amp;document.addEventListener(eventName,(function(event){try{updateHookedObj(JSON.parse(event.detail))}catch(ex){}}))})();</script><path fill="#fff" d="M10.3.5h27a9.5 9.5 0 0 1 9.5 9.5v27a9.5 9.5 0 0 1-9.5 9.5h-27A9.5 9.5 0 0 1 .8 37V10A9.5 9.5 0 0 1 10.3.5Z"/><path fill="url(#a)" d="M10.3.5h27a9.5 9.5 0 0 1 9.5 9.5v27a9.5 9.5 0 0 1-9.5 9.5h-27A9.5 9.5 0 0 1 .8 37V10A9.5 9.5 0 0 1 10.3.5Z"/><path stroke="#E6E6E6" d="M10.3.5h27a9.5 9.5 0 0 1 9.5 9.5v27a9.5 9.5 0 0 1-9.5 9.5h-27A9.5 9.5 0 0 1 .8 37V10A9.5 9.5 0 0 1 10.3.5Z"/><path fill="#000" d="M9.323 6.516c.68.06 1.383.289 2 .55a12.82 12.82 0 0 1 1.419.718l.357.215.004.003.153.108c.153.116.303.252.42.352.221.191.508.275.8.29l.32.019.859.046c.031.001.062.005.092.012.988.23 2.02.437 2.914.894l.176.095.007.004.741.44c3.628 2.211 6.103 4.562 8.382 8.28l.196.337c.182.339.33.68.466 1.014.14.34.264.663.402.984l.144.323.005.011.443 1c.302.669.62 1.34.944 1.99l.491.954.006.01.224.472c.071.156.14.304.21.448.106.217.211.413.33.583l.123.163.012.014v.002l.002.002.022.014c.034.02.085.042.16.07.08.03.15.052.249.086.044.015.092.032.142.052l.151.066.005.003.278.135c.285.132.59.258.913.397.419.18.862.382 1.257.634 1.195.735 2.35 1.59 3.418 2.474l.453.38.007.005.187.18c.177.184.33.38.465.557.19.247.346.456.524.63.096.094.15.223.15.357v.207a.5.5 0 0 1-.355.479c-.366.11-.75.23-1.136.325h-.003a8.482 8.482 0 0 1-1.23.195c-.383.04-.722.077-1.073.168l-.13.037c-.292.084-.37.453-.114.616.255.162.526.316.79.466.127.073.256.146.378.219l.341.214.009.006.347.256a11.51 11.51 0 0 1 1.86 1.775 7.056 7.056 0 0 0 .596.651l.356.34a.546.546 0 0 1 .059.068c.12.171.192.361.238.476a.993.993 0 0 0 .113.232c.069.087.097.2.077.309l-.012.07a.542.542 0 0 1-.422.433l-.036.008a.483.483 0 0 1-.316-.03 1.682 1.682 0 0 1-.43-.325c-.148-.146-.198-.209-.28-.268-.262-.177-.524-.372-.77-.552-.254-.186-.496-.36-.735-.509-.406-.254-.85-.458-1.33-.677-.472-.214-.98-.445-1.462-.739l-.005-.003a21.84 21.84 0 0 1-1.51-1.07c-.51-.373-1.032-1.043-1.327-1.527-.117-.182-.184-.382-.223-.485-.212-.553-.43-1.046.457-1.383a3.3 3.3 0 0 1 .352-.105l.228-.066c.926-.387 1.964-.59 3.17-.658.074-.004.1-.103.038-.141-.153-.094-.318-.195-.432-.28-.737-.524-1.505-1.062-2.271-1.529-.16-.096-.398-.189-.69-.293-.265-.094-.583-.2-.834-.31l-.235-.084c-.09-.029-.192-.06-.305-.093-.217-.065-.47-.138-.713-.218a5.37 5.37 0 0 1-.717-.284c-.206-.104-.44-.25-.597-.461-.74-.95-1.229-2.113-1.703-3.164a.046.046 0 0 0-.002-.003.019.019 0 0 1-.002-.003c-.238-.538-.505-1.09-.777-1.654-.27-.559-.544-1.13-.79-1.699l-.182-.427c-.054-.137-.102-.269-.148-.392a5.962 5.962 0 0 0-.306-.709l-.002-.002v-.003a19.877 19.877 0 0 0-7.036-7.627c-.969-.6-2.037-1.15-3.206-1.521l-.219-.052a5.737 5.737 0 0 0-.777-.071c-.29-.013-.623-.024-.956-.072a3.062 3.062 0 0 0-.432-.036h-.228a.512.512 0 0 1-.133-.017c-.319-.089-.579-.288-.767-.447-.225-.191-.334-.306-.475-.406-.668-.445-1.344-.75-2.185-1.087l-.024-.01c-.129-.059-.384-.16-.63-.215a1.27 1.27 0 0 0-.292-.038.101.101 0 0 0-.062.027l-.01.008a.104.104 0 0 1-.044.022l-.044.01a.032.032 0 0 0-.024.024.032.032 0 0 1-.004.011l-.02.028a.122.122 0 0 0-.025.074c0 .017.003.041.009.072.02.104.066.222.12.339l.117.227c.125.219.267.413.423.61.199.25.458.548.687.869l.625.868c.216.314.424.646.576.97.315.674.544 1.378.758 2.05.162.512.316 1.004.495 1.476l.187.466.001.002.162.343c.177.346.4.71.613 1.02l.076.092c.082.089.187.178.34.327.168.163.382.393.497.711.129.26.114.561.086.77-.035.257-.11.537-.194.795-.084.26-.182.52-.266.738-.088.228-.154.393-.19.499-.565 1.765-.45 4.24.193 5.748l.208.481c.066.147.134.28.214.403.023.034.075.019.08-.021.039-.355.08-.71.128-1.037.09-.6.22-1.202.467-1.755.155-.37.38-.674.588-.93.227-.28.407-.472.567-.703a.5.5 0 0 1 .665-.146c.3.177.4.5.445.647.014.046.025.092.036.131l.031.11.05.14.007.014.007.015c.304.716.619 1.471.978 2.16l.286.54a28.756 28.756 0 0 0 1.907 3.075l.351.476a.082.082 0 0 1 .009.012c.297.418.728.89 1.13 1.29.071.06.12.09.246.182.234.174.497.383.497.675 0 .366-.368.63-.704.483a3.294 3.294 0 0 1-1.042-.71c-.227-.223-.394-.407-.565-.56l-.175-.145c-1.067-.795-2.365-2.003-3.128-3.192a.43.43 0 0 1-.032-.059 26.475 26.475 0 0 0-.285-.586c-.007-.014-.029-.01-.03.005-.036.277-.07.587-.13.872-.124.583-.386 1.218-1.138 1.515h-.002c-.812.329-1.514.04-2.01-.35-.484-.382-.834-.902-1.02-1.191l-.005-.007c-1.27-2.041-1.593-5.399-.723-8.1l.056-.196c.05-.198.088-.406.148-.664a3.49 3.49 0 0 1 .221-.685c.017-.036.015-.082-.013-.11-.048-.047-.083-.075-.16-.146a1.695 1.695 0 0 1-.223-.24c-.35-.466-.641-1-.895-1.481l-.002-.003c-.504-.972-.87-2.145-1.224-3.111l-.064-.18c-.06-.176-.103-.346-.141-.494a3.922 3.922 0 0 0-.162-.526c-.249-.526-.696-1.048-1.117-1.611l-.01-.012c-.122-.174-.296-.378-.523-.666a8.248 8.248 0 0 1-.662-.948c-.405-.697-.726-1.613-.324-2.571.22-.533.558-.92.986-1.163.422-.24.896-.324 1.362-.317l.29.016Z"/><path fill="#000" d="M14.499 12.163c.31.012.578.143.772.274l.11.075a1.467 1.467 0 0 1 .378.372h.002c.063.088.106.17.137.235l.085.19c.073.18.14.407.13.655l-.016.152c-.076.441-.279.803-.623 1.061l.037-.034a.51.51 0 0 1-.089.073l-.004.002-.007.005c-.222.141-.561.135-.745-.137l-.04-.068c-.084-.17-.164-.339-.242-.502l-.234-.483-.018-.03c-.096-.126-.198-.23-.34-.39a4.328 4.328 0 0 1-.13-.154c-.143-.176-.324-.344-.37-.565l-.001-.018a1.053 1.053 0 0 1-.001-.178.526.526 0 0 1 .395-.421l.32-.067c.112-.019.23-.034.358-.044l.136-.003Z"/><path fill="#000" d="m15.41 15.223-.019.014a2.96 2.96 0 0 0-.015.008l.013-.007.022-.015ZM15.432 15.211l-.01.005.015-.009-.005.004ZM15.474 15.177a.516.516 0 0 1-.037.03c.013-.009.024-.02.037-.03Z"/><defs><linearGradient id="a" x1="23.801" x2="23.801" y1="0" y2="47" gradientUnits="userSpaceOnUse"><stop stop-color="#FAFAFA"/><stop offset="1" stop-color="#F2F2F2"/></linearGradient></defs></svg>