<svg width="51" height="52" viewBox="0 0 51 52" fill="none" xmlns="http://www.w3.org/2000/svg">
<path d="M10.7744 1.50415H39.6348C45.2427 1.50423 49.7889 6.05054 49.7891 11.6584V40.5188C49.789 46.1268 45.2428 50.673 39.6348 50.6731H10.7744C5.16651 50.6729 0.620198 46.1267 0.620117 40.5188V11.6584C0.620304 6.05061 5.16658 1.50434 10.7744 1.50415Z" fill="white"/>
<path d="M10.7744 1.50415H39.6348C45.2427 1.50423 49.7889 6.05054 49.7891 11.6584V40.5188C49.789 46.1268 45.2428 50.673 39.6348 50.6731H10.7744C5.16651 50.6729 0.620198 46.1267 0.620117 40.5188V11.6584C0.620304 6.05061 5.16658 1.50434 10.7744 1.50415Z" fill="url(#paint0_linear_6328_423)"/>
<path d="M10.7744 1.50415H39.6348C45.2427 1.50423 49.7889 6.05054 49.7891 11.6584V40.5188C49.789 46.1268 45.2428 50.673 39.6348 50.6731H10.7744C5.16651 50.6729 0.620198 46.1267 0.620117 40.5188V11.6584C0.620304 6.05061 5.16658 1.50434 10.7744 1.50415Z" stroke="#E6E6E6" stroke-width="1.06888"/>
<path d="M43.9104 36.5101V15.6673L25.7394 5.24548L7.56836 15.6673V36.5101L25.7394 46.9319L43.9104 36.5101Z" fill="black"/>
<path d="M23.8232 18.0148V16.5258H23.8232L23.8232 18.0148ZM31.3584 22.8351L30.007 23.4601L30.4065 24.3241H31.3584V22.8351ZM37.084 25.8419L38.573 25.8421V25.8418L37.084 25.8419ZM31.7139 28.8878V27.3988H30.6331L30.2982 28.4264L31.7139 28.8878ZM23.8232 34.6134L23.8232 36.1024H23.8232V34.6134ZM15.5234 26.3146H14.0344V26.3146L15.5234 26.3146ZM23.8232 18.0148V19.5038C26.5619 19.5038 28.9252 21.1213 30.007 23.4601L31.3584 22.8351L32.7098 22.21C31.1595 18.8581 27.7665 16.5258 23.8232 16.5258V18.0148ZM31.3584 22.8351V24.3241H34.0381V22.8351V21.3461H31.3584V22.8351ZM34.0381 22.8351V24.3241C34.9053 24.3241 35.5949 25.0246 35.595 25.842L37.084 25.8419L38.573 25.8418C38.5728 23.3303 36.4999 21.3461 34.0381 21.3461V22.8351ZM37.084 25.8419L35.595 25.8417C35.5949 26.6841 34.88 27.3988 34.0381 27.3988V28.8878V30.3768C36.5251 30.3768 38.5726 28.3285 38.573 25.8421L37.084 25.8419ZM34.0381 28.8878V27.3988H31.7139V28.8878V30.3768H34.0381V28.8878ZM31.7139 28.8878L30.2982 28.4264C29.4086 31.1557 26.8445 33.1244 23.8232 33.1244V34.6134V36.1024C28.1723 36.1024 31.8526 33.2671 33.1296 29.3492L31.7139 28.8878ZM23.8232 34.6134L23.8233 33.1244C20.0618 33.1244 17.0125 30.0756 17.0124 26.3145L15.5234 26.3146L14.0344 26.3146C14.0346 31.7207 18.4175 36.1024 23.8232 36.1024L23.8232 34.6134ZM15.5234 26.3146H17.0124C17.0124 22.5533 20.0619 19.5038 23.8233 19.5038L23.8232 18.0148L23.8232 16.5258C18.4172 16.5258 14.0344 20.9085 14.0344 26.3146H15.5234Z" fill="#2EAFFF"/>
<defs>
<linearGradient id="paint0_linear_6328_423" x1="25.2047" y1="0.969971" x2="25.2047" y2="51.2075" gradientUnits="userSpaceOnUse">
<stop stop-color="#FAFAFA"/>
<stop offset="1" stop-color="#F2F2F2"/>
</linearGradient>
</defs>
</svg>
