<svg width="69" height="69" viewBox="0 0 69 69" fill="none" xmlns="http://www.w3.org/2000/svg">
<rect width="68.3052" height="68.3052" rx="34.1526" fill="#1A1A1A"/>
<path d="M32.2764 23.1748L32.2764 21.1503L32.2763 21.1503L32.2764 23.1748ZM42.5215 29.7285L40.684 30.5784L41.2273 31.753H42.5215V29.7285ZM50.3066 33.8164L52.3311 33.8164L52.3311 33.8163L50.3066 33.8164ZM43.0039 37.958V35.9335H41.5345L41.0791 37.3306L43.0039 37.958ZM32.2764 45.7432L32.2763 47.7677H32.2764V45.7432ZM20.9922 34.459L18.9677 34.4589V34.459H20.9922ZM32.2764 23.1748V25.1993C36 25.1993 39.2132 27.3985 40.684 30.5784L42.5215 29.7285L44.3589 28.8786C42.251 24.3213 37.6377 21.1503 32.2764 21.1503V23.1748ZM42.5215 29.7285V31.753H46.165V29.7285V27.704H42.5215V29.7285ZM46.165 29.7285V31.753C47.3445 31.753 48.2821 32.7055 48.2821 33.8165L50.3066 33.8164L52.3311 33.8163C52.3309 30.4011 49.5119 27.704 46.165 27.704V29.7285ZM50.3066 33.8164L48.2821 33.8164C48.2821 34.9615 47.3102 35.9335 46.165 35.9335V37.958V39.9825C49.5464 39.9825 52.3311 37.1977 52.3311 33.8164L50.3066 33.8164ZM46.165 37.958V35.9335H43.0039V37.958V39.9825H46.165V37.958ZM43.0039 37.958L41.0791 37.3306C39.8694 41.0418 36.3838 43.7187 32.2764 43.7187V45.7432V47.7677C38.1898 47.7677 43.1926 43.9119 44.9287 38.5854L43.0039 37.958ZM32.2764 45.7432L32.2764 43.7187C27.1623 43.7186 23.0167 39.573 23.0167 34.459H20.9922H18.9677C18.9677 41.8092 24.9262 47.7675 32.2763 47.7677L32.2764 45.7432ZM20.9922 34.459L23.0167 34.459C23.0168 29.3451 27.1624 25.1994 32.2764 25.1993L32.2764 23.1748L32.2763 21.1503C24.9262 21.1504 18.9678 27.1088 18.9677 34.4589L20.9922 34.459Z" fill="#2EAFFF"/>
</svg>
