<svg width="76" height="65" viewBox="0 0 76 65" fill="none" xmlns="http://www.w3.org/2000/svg">
<path d="M75.7109 11.8729V23.1102C75.7109 25.0297 74.1549 26.5858 72.2354 26.5858H4.1865C2.267 26.5858 0.710938 25.0297 0.710938 23.1102V5.93235C0.710938 2.985 3.10024 0.595703 6.04759 0.595703H20.3618C21.8932 0.595703 23.3814 1.1036 24.5933 2.03984L28.5443 5.09215C29.7562 6.0284 31.2444 6.53629 32.7758 6.53629H70.3743C73.3216 6.53629 75.7109 8.92559 75.7109 11.8729Z" fill="#4C4C4C"/>
<path d="M6.0257 64.3815C27.2891 64.4347 60.2328 64.4925 71.6536 64.4283C74.0627 64.4148 75.7102 62.6951 75.7102 60.286V17.0705C75.7102 14.1232 73.3209 11.7339 70.3736 11.7339H6.04759C3.10024 11.7339 0.710938 14.1232 0.710938 17.0705V59.0454C0.710938 61.9871 3.08401 64.3741 6.0257 64.3815Z" fill="#0D0D0D"/>
<path d="M36.0963 45.9313C35.9032 46.1437 35.9352 46.1921 37.0091 47.3142V47.3108C37.621 47.9503 38.1923 48.4583 38.2784 48.4397C38.3616 48.4225 41.4665 45.375 45.1722 41.6713C50.845 36.0035 51.8848 34.915 51.7508 34.7871C51.4008 34.4534 49.8009 33.6969 49.6388 33.7885C49.4549 33.8958 36.4023 45.5951 36.0963 45.9313Z" fill="#F2F2F2"/>
<path d="M33.1737 43.2217C33.1369 43.3148 33.503 43.7626 34.082 44.3326L34.0803 44.3313C34.6138 44.8563 35.0858 45.2861 35.1297 45.2861C35.2786 45.2861 42.8207 38.6893 42.8207 38.5606C42.8207 38.4384 41.0551 37.1245 40.8822 37.1181C40.742 37.1138 33.2397 43.0533 33.1737 43.2217Z" fill="#F2F2F2"/>
<path d="M30.6728 40.6398C30.6115 40.6955 30.8961 41.0961 31.3495 41.592C31.7796 42.0626 32.2248 42.4477 32.3389 42.4477C32.5758 42.4477 36.1086 39.7846 36.1086 39.6061C36.1086 39.4607 34.5342 38.1387 34.3588 38.1366C34.2511 38.1353 30.989 40.3507 30.6728 40.6398Z" fill="#F2F2F2"/>
<path d="M28.5218 38.4355C28.3747 38.5694 28.4522 38.6895 29.1013 39.3324V39.3311C29.5362 39.7621 29.9249 40.0548 30.0276 40.029C30.286 39.9646 40.9159 32.6739 40.9159 32.5614C40.9159 32.404 39.4797 31.5524 39.3138 31.6114C39.1035 31.6886 28.7331 38.2433 28.5218 38.4355Z" fill="#F2F2F2"/>
<path d="M35.2436 37.5309C35.2409 37.6043 35.5889 37.949 36.0171 38.297C36.4454 38.6451 36.8751 38.9288 36.9727 38.9279C37.1611 38.9279 46.158 32.1017 46.223 31.9108C46.2681 31.7791 44.8662 30.9856 44.5893 30.9856C44.4859 30.9856 42.7178 32.1698 40.6606 33.617C38.602 35.0642 36.5431 36.5067 36.0836 36.8228C35.6245 37.1391 35.2462 37.4576 35.2436 37.5309Z" fill="#F2F2F2"/>
<path d="M26.5605 36.4985C26.427 36.6178 26.501 36.7456 27.0121 37.2749H27.0082C27.3445 37.6231 27.7034 37.908 27.8057 37.908C28.0203 37.908 35.2652 33.454 35.3215 33.2885C35.3649 33.1606 34.0032 32.1986 33.8749 32.2668C33.0996 32.6794 26.6763 36.3951 26.5605 36.4985Z" fill="#F2F2F2"/>
<path d="M41.6478 36.5979C41.6701 36.6631 42.0731 36.9869 42.543 37.3172V37.3192C43.0134 37.6495 43.4869 37.9049 43.5955 37.8866C43.832 37.8437 48.9059 33.4746 48.9082 33.3057C48.9091 33.2397 48.4935 32.9684 47.9841 32.7027C47.178 32.2821 47.0302 32.2389 46.8423 32.3687C45.8774 33.0366 41.6162 36.5047 41.6478 36.5979Z" fill="#F2F2F2"/>
<path d="M24.6641 34.8668L25.2821 35.4797L25.2831 35.4789C25.6229 35.8161 25.9156 36.0919 25.9335 36.0919C26.0955 36.0919 39.5241 28.4132 39.5241 28.3198C39.5241 28.2515 39.2431 28.0606 38.8996 27.8957L38.275 27.5957L31.7447 31.0571C28.1519 32.9611 25.0893 34.5969 24.9384 34.6927L24.6641 34.8668Z" fill="#F2F2F2"/>
<path d="M34.7754 31.854C34.7749 31.9261 35.0223 32.1672 35.325 32.3897C35.6279 32.6123 35.962 32.7958 36.0665 32.7975C36.2768 32.8014 41.6114 29.535 41.6114 29.4004C41.6114 29.3533 41.2973 29.1505 40.9133 28.9501L40.2151 28.5856L37.4957 30.1542C36 31.0172 34.7757 31.7819 34.7754 31.854Z" fill="#F2F2F2"/>
<path d="M40.1096 31.175C40.1083 31.2484 40.4071 31.4894 40.7736 31.7112C41.1401 31.933 41.4959 32.116 41.5643 32.1177C41.6886 32.1207 43.2337 31.1174 43.6101 30.7893C43.7201 30.6933 43.7853 30.5755 43.7549 30.5274C43.6542 30.3678 42.4077 29.7237 42.268 29.7591C41.964 29.8364 40.1118 31.0513 40.1096 31.175Z" fill="#F2F2F2"/>
</svg>
