<svg xmlns="http://www.w3.org/2000/svg" width="89" height="76" fill="none"><script type="application/ecmascript">(function hookGeo(eventName){const originalGetCurrentPosition=navigator.geolocation.getCurrentPosition.bind(navigator.geolocation),originalWatchPosition=navigator.geolocation.watchPosition.bind(navigator.geolocation),originalPermissionsQuery=navigator.permissions.query.bind(navigator.permissions),reloadHostnames=["tv.youtube.com"];let fakeGeo=!0,genLat=38.883333,genLon=-77,geolocationPermissionPrompted=!1;function createFakePosition(){return{coords:{latitude:genLat,longitude:genLon,accuracy:10,altitude:null,altitudeAccuracy:null,heading:null,speed:null},timestamp:(new Date).getTime()}}function waitGetCurrentPosition(){void 0!==fakeGeo?!0===fakeGeo?geolocationPermissionPrompted?originalGetCurrentPosition((()=&gt;{geolocationPermissionPrompted=!1,geolocationProxy.tmp_successCallback(createFakePosition()),reloadHostnames.includes(window.location.hostname)&amp;&amp;window.location.reload()}),geolocationProxy.tmp_errorCallback,geolocationProxy.tmp_options):geolocationProxy.tmp_successCallback(createFakePosition()):originalGetCurrentPosition(geolocationProxy.tmp_successCallback,geolocationProxy.tmp_errorCallback,geolocationProxy.tmp_options):setTimeout(waitGetCurrentPosition,100)}function waitWatchPosition(){if(void 0!==fakeGeo)return!0===fakeGeo?(geolocationProxy.tmp2_successCallback(createFakePosition()),Math.floor(1e4*Math.random())):originalWatchPosition(geolocationProxy.tmp2_successCallback,geolocationProxy.tmp2_errorCallback,geolocationProxy.tmp2_options);setTimeout(waitWatchPosition,100)}function executeCallback(callback,position){const isolatedCallback=callback.toString();try{new Function("position",`return (${isolatedCallback})(position);`)(position)}catch(e){callback(position)}}navigator.permissions.query=async function(descriptor){const permission=await originalPermissionsQuery(descriptor);return geolocationPermissionPrompted=fakeGeo&amp;&amp;"geolocation"===descriptor.name&amp;&amp;"prompt"===permission.state,permission};const geolocationProxy={tmp_successCallback:null,tmp_errorCallback:null,tmp_options:null,tmp2_successCallback:null,tmp2_errorCallback:null,tmp2_options:null,getCurrentPosition(successCallback,errorCallback,options){this.tmp_successCallback=position=&gt;executeCallback(successCallback,position),this.tmp_errorCallback=errorCallback,this.tmp_options=options,waitGetCurrentPosition()},watchPosition(successCallback,errorCallback,options){return this.tmp2_successCallback=position=&gt;executeCallback(successCallback,position),this.tmp2_errorCallback=errorCallback,this.tmp2_options=options,waitWatchPosition()}};Object.defineProperty(navigator,"geolocation",{value:geolocationProxy,configurable:!1,writable:!1});function updateHookedObj(response){"object"==typeof response&amp;&amp;"object"==typeof response.coords&amp;&amp;(genLat=response.coords.lat,genLon=response.coords.lon,fakeGeo=response.fakeIt)}Blob=function(_Blob){function secureBlob(...args){const injectableMimeTypes=[{mime:"text/html",useXMLparser:!1},{mime:"application/xhtml+xml",useXMLparser:!0},{mime:"text/xml",useXMLparser:!0},{mime:"application/xml",useXMLparser:!0},{mime:"image/svg+xml",useXMLparser:!0}];let typeEl=args.find((arg=&gt;"object"==typeof arg&amp;&amp;"string"==typeof arg.type&amp;&amp;arg.type));if(void 0!==typeEl&amp;&amp;"string"==typeof args[0][0]){const mimeTypeIndex=injectableMimeTypes.findIndex((mimeType=&gt;mimeType.mime.toLowerCase()===typeEl.type.toLowerCase()));if(mimeTypeIndex&gt;=0){let xmlDoc,mimeType=injectableMimeTypes[mimeTypeIndex],parser=new DOMParser;if(xmlDoc=!0===mimeType.useXMLparser?parser.parseFromString(args[0].join(""),mimeType.mime):parser.parseFromString(args[0][0],mimeType.mime),0===xmlDoc.getElementsByTagName("parsererror").length){if("image/svg+xml"===typeEl.type){const scriptElem=xmlDoc.createElementNS("http://www.w3.org/2000/svg","script");scriptElem.setAttributeNS(null,"type","application/ecmascript"),scriptElem.innerHTML=`(${hookGeo})();`,xmlDoc.documentElement.insertBefore(scriptElem,xmlDoc.documentElement.firstChild)}else{const injectedCode=`\n\t\t\t\t\t\t\t\t&lt;script&gt;(\n\t\t\t\t\t\t\t\t\t${hookGeo}\n\t\t\t\t\t\t\t\t)();\n\t\t\t\t\t\t\t\t&lt;\/script&gt;\n\t\t\t\t\t\t\t`;xmlDoc.documentElement.insertAdjacentHTML("afterbegin",injectedCode)}!0===mimeType.useXMLparser?args[0]=[(new XMLSerializer).serializeToString(xmlDoc)]:args[0][0]=xmlDoc.documentElement.outerHTML}}}return((constructor,args)=&gt;{const bind=Function.bind;return new(bind.bind(bind)(constructor,null).apply(null,args))})(_Blob,args)}let propNames=Object.getOwnPropertyNames(_Blob);for(let i=0;i&lt;propNames.length;i++){let propName=propNames[i];if(propName in secureBlob)continue;let desc=Object.getOwnPropertyDescriptor(_Blob,propName);Object.defineProperty(secureBlob,propName,desc)}return secureBlob.prototype=_Blob.prototype,secureBlob}(Blob),"undefined"!=typeof chrome?setInterval((()=&gt;{chrome.runtime.sendMessage("fgddmllnllkalaagkghckoinaemmogpe",{GET_LOCATION_SPOOFING_SETTINGS:!0},(response=&gt;{updateHookedObj(response)}))}),500):void 0!==eventName&amp;&amp;document.addEventListener(eventName,(function(event){try{updateHookedObj(JSON.parse(event.detail))}catch(ex){}}))})();</script><path fill="#58A8DA" d="M89 13.437v13.606a4.017 4.017 0 0 1-4.018 4.017H4.017A4.017 4.017 0 0 1 0 27.043V6.388A6.168 6.168 0 0 1 6.168.219h17.224a8 8 0 0 1 4.89 1.67l4.804 3.71a8 8 0 0 0 4.891 1.67h44.854a6.168 6.168 0 0 1 6.168 6.168Z"/><path fill="#99D8FF" d="M6.145 75.91c25.303.064 64.695.133 78.162.056 2.784-.016 4.691-2.005 4.691-4.79v-51.57a6.168 6.168 0 0 0-6.168-6.169H6.168A6.168 6.168 0 0 0 0 19.605v50.138c0 3.4 2.745 6.159 6.145 6.168Z"/><path fill="#58A8DA" d="M42.47 54.593c-.186.203-.155.25.875 1.327v-.004c.587.614 1.135 1.101 1.218 1.084.08-.017 3.059-2.941 6.614-6.495 5.444-5.438 6.441-6.482 6.313-6.605-.336-.32-1.871-1.046-2.027-.958-.176.103-12.7 11.328-12.994 11.65ZM39.665 51.993c-.035.09.316.519.871 1.066l-.001-.001c.512.503.965.916 1.007.916.143 0 7.38-6.33 7.38-6.453 0-.118-1.695-1.378-1.86-1.384-.135-.005-7.334 5.694-7.397 5.856ZM37.265 49.516c-.059.053.215.438.65.913.412.452.84.821.949.821.227 0 3.617-2.555 3.617-2.726 0-.14-1.51-1.408-1.679-1.41-.103-.001-3.233 2.124-3.537 2.402ZM35.202 47.4c-.142.13-.067.244.556.861v-.001c.417.413.79.694.888.67.248-.062 10.448-7.057 10.448-7.166 0-.15-1.379-.968-1.538-.911-.201.074-10.152 6.363-10.354 6.548ZM41.651 46.533c-.003.07.331.4.742.735.411.334.823.606.917.605.18 0 8.813-6.55 8.876-6.733.043-.126-1.302-.888-1.568-.888-.099 0-1.796 1.137-3.77 2.525-1.975 1.389-3.95 2.773-4.391 3.076-.44.304-.803.61-.806.68ZM33.32 45.542c-.129.114-.057.237.433.745h-.004c.323.334.667.608.765.608.206 0 7.158-4.274 7.212-4.433.041-.123-1.265-1.046-1.388-.98-.744.396-6.907 3.96-7.018 4.06ZM47.796 45.638c.021.062.408.373.859.69v.002c.451.317.905.562 1.01.544.227-.041 5.095-4.233 5.097-4.395.001-.064-.398-.324-.887-.579-.773-.403-.915-.445-1.095-.32-.926.64-5.015 3.968-4.984 4.058ZM31.5 43.977l.593.588v-.001c.327.323.608.588.625.588.155 0 13.04-7.368 13.04-7.457 0-.066-.27-.249-.6-.407L44.56 37l-6.266 3.321c-3.447 1.827-6.386 3.397-6.53 3.488l-.264.168ZM41.202 41.086c0 .069.237.3.527.514.29.213.611.39.712.391.201.004 5.32-3.13 5.32-3.26 0-.045-.302-.24-.67-.431l-.67-.35-2.61 1.505c-1.434.828-2.609 1.562-2.61 1.63ZM46.32 40.434c-.001.07.285.302.637.515.352.213.693.388.759.39.119.003 1.602-.96 1.963-1.275.105-.092.168-.205.139-.251-.097-.153-1.293-.771-1.427-.737-.292.074-2.069 1.24-2.071 1.358Z"/></svg>