<?xml version="1.0" encoding="UTF-8"?>
<svg id="Ebene_1" xmlns="http://www.w3.org/2000/svg" version="1.1" viewBox="0 0 278 181">
  <!-- Generator: Adobe Illustrator 29.6.1, SVG Export Plug-In . SVG Version: 2.1.1 Build 9)  -->
  <defs>
    <style>
      .st0 {
        fill: none;
        stroke: #e6e6e6;
        stroke-linecap: round;
        stroke-linejoin: round;
      }

      .st1 {
        fill: #fcfcfc;
      }

      .st2 {
        fill: #e6e6e6;
        fill-opacity: .6;
      }

      .st3 {
        fill: #b2b2b2;
      }
    </style>
  </defs>
  <path class="st1" d="M.9,12.5C.9,6.2,6.1,1,12.4,1h253c6.4,0,11.5,5.2,11.5,11.5v156c0,6.4-5.2,11.5-11.5,11.5H12.4c-6.4,0-11.5-5.2-11.5-11.5V12.5Z"/>
  <path class="st0" d="M1,12.5C1,6.2,6.2,1,12.5,1h253c6.4,0,11.5,5.2,11.5,11.5v156c0,6.4-5.2,11.5-11.5,11.5H12.5c-6.4,0-11.5-5.2-11.5-11.5V12.5Z"/>
  <path class="st2" d="M12.7,1h252.6c6.5,0,11.7,5.2,11.7,11.7v17.3H1V12.7C1,6.3,6.3,1,12.7,1Z"/>
  <path class="st3" d="M15.5,20.7c2.7,0,4.9-2.3,4.9-5.2s-2.2-5.2-4.9-5.2-4.9,2.3-4.9,5.2,2.2,5.2,4.9,5.2Z"/>
  <path class="st3" d="M30,20.7c2.9,0,5.2-2.3,5.2-5.2s-2.3-5.2-5.2-5.2-5.2,2.3-5.2,5.2,2.3,5.2,5.2,5.2Z"/>
  <path class="st3" d="M44.5,20.7c2.7,0,4.9-2.3,4.9-5.2s-2.2-5.2-4.9-5.2-4.9,2.3-4.9,5.2,2.2,5.2,4.9,5.2Z"/>
</svg>