<svg width="560" height="240" viewBox="0 0 560 240" fill="none" xmlns="http://www.w3.org/2000/svg">
<g clip-path="url(#clip0_6414_6218)">
<rect width="560" height="240" fill="#1A1A1A"/>
<g clip-path="url(#clip1_6414_6218)">
<rect width="560" height="240" fill="#2EAFFF"/>
<path d="M231 21.9441L231 -24C231 -35.0457 222.046 -44 211 -44L-11 -44C-22.0457 -44 -31 -35.0457 -31 -24L-31 191C-31 202.046 -22.0457 211 -11 211L76.5 211C87.5457 211 96.5 202.046 96.5 191L96.5 61.9441C96.5 50.8984 105.454 41.9441 116.5 41.9441L211 41.9441C222.046 41.9441 231 32.9898 231 21.9441Z" fill="black" fill-opacity="0.06"/>
<path d="M396.5 197.576L289 197.576C277.954 197.576 269 206.53 269 217.576L269 256C269 267.046 277.954 276 289 276L611.5 276C622.546 276 631.5 267.046 631.5 256L631.5 -28C631.5 -39.0457 622.546 -48 611.5 -48L504.424 -48C493.378 -48 484.424 -39.0457 484.424 -28L484.424 58.5088C484.424 69.5545 475.47 78.5088 464.424 78.5088L436.5 78.5088C425.454 78.5088 416.5 87.4631 416.5 98.5088L416.5 177.576C416.5 188.622 407.546 197.576 396.5 197.576Z" fill="black" fill-opacity="0.06"/>
<path d="M514 114C502.954 114 494 122.954 494 134V294C494 305.046 502.954 314 514 314H612C623.046 314 632 305.046 632 294V134C632 122.954 623.046 114 612 114H514Z" fill="#2EAFFF"/>
</g>
<path d="M196.04 91.2568C180.192 91.2568 167.297 104.152 167.297 120C167.297 135.848 180.192 148.743 196.04 148.743C211.888 148.743 224.783 135.848 224.783 120C224.783 104.152 211.888 91.2568 196.04 91.2568Z" fill="#0D0D0D"/>
<path fill-rule="evenodd" clip-rule="evenodd" d="M193.603 106.4C198.829 106.4 203.376 109.204 205.847 113.389H208.43V113.404C211.995 113.404 215.002 116.271 215.01 119.91H215.025C215.024 123.525 212.06 126.49 208.445 126.49H206.533C204.368 131.228 199.685 134.574 194.193 134.799L193.603 134.81L192.872 134.791C185.361 134.411 179.399 128.211 179.398 120.606V120.589C179.399 112.738 185.752 106.385 193.603 106.385V106.4ZM193.603 110.712C188.157 110.712 183.726 115.129 183.726 120.589V120.606C183.726 126.051 188.142 130.483 193.603 130.483C197.99 130.483 201.712 127.624 202.998 123.661L203.482 122.163H208.445C209.65 122.163 210.689 121.143 210.697 119.925H210.683C210.683 118.73 209.685 117.716 208.43 117.716H203.15L202.575 116.46C201.017 113.056 197.582 110.712 193.603 110.712Z" fill="#2EAFFF"/>
<path d="M244.308 106.433H235.373V133.255H244.308C250.299 133.255 255.182 127.264 255.182 119.801C255.182 112.338 250.299 106.433 244.308 106.433ZM244.308 128.926H239.425V110.779H244.308C248.1 110.779 251.113 114.866 251.113 119.801C251.113 124.736 248.1 128.944 244.308 128.944L244.308 128.926Z" fill="black"/>
<path d="M287.234 129.204H286.247C283.892 129.204 281.952 127.212 281.952 124.771V120.147C281.952 117.654 283.909 115.645 286.247 115.645H287.234C289.658 115.645 291.649 117.515 291.649 119.836H295.77C295.77 115.212 291.909 111.403 287.251 111.403H286.264C281.675 111.403 277.952 115.334 277.952 120.147V124.771C277.952 129.636 281.658 133.55 286.264 133.55H287.251C292.065 133.55 295.995 129.74 295.995 125.152H291.874C291.874 127.368 289.779 129.186 287.251 129.186L287.234 129.204Z" fill="black"/>
<path d="M270.645 124.701C270.645 127.351 269.104 129.203 266.974 129.203H265.952C263.788 129.203 262.281 127.333 262.281 124.701V112.424H258.195V125.48C258.195 130.19 261.398 133.567 265.883 133.567H267.06C271.545 133.567 274.697 130.19 274.697 125.48V112.424H270.662V124.701H270.645Z" fill="black"/>
<path d="M315.476 111.437H309.796L303.129 119.022V106.468H299.095V133.203H303.129V125.359L305.086 123.178L311.735 133.203H316.74L307.909 119.87L315.476 111.437Z" fill="black"/>
<path d="M373.467 111.437H367.753L361.104 119.022V106.468H357.069V133.203H361.104V125.359L363.06 123.178L369.709 133.203H374.714L365.883 119.87L373.467 111.437Z" fill="black"/>
<path d="M323.199 106.433H319.199V133.255H334.662V128.926H323.199V106.433Z" fill="black"/>
<path d="M388.531 125.862C388.15 127.749 386.246 129.204 383.977 129.204H382.99C380.635 129.204 378.696 127.23 378.696 124.771V123.264H392.514V119.836C392.514 115.212 388.652 111.403 383.994 111.403H383.007C378.419 111.403 374.696 115.334 374.696 120.147V124.771C374.696 129.636 378.401 133.55 383.007 133.55H383.994C388.566 133.55 392.341 130.121 392.704 125.844H388.549L388.531 125.862ZM383.977 115.645C386.367 115.645 388.323 117.602 388.375 119.888H378.679C378.817 117.515 380.704 115.645 382.973 115.645H383.977Z" fill="black"/>
<path d="M348.862 114.624C347.65 113.065 346.074 112.13 344.273 112.13H343.252C338.801 112.13 335.685 115.749 335.685 120.909V124.753C335.685 129.879 338.801 133.532 343.252 133.532H344.273C346.074 133.532 347.65 132.632 348.862 131.091V133.186H352.758V112.39H348.862V114.624ZM349.243 123.801C349.243 127.229 347.148 129.584 344.291 129.584H343.269C340.949 129.584 339.338 127.593 339.338 124.771V120.926C339.338 118.052 340.949 116.026 343.269 116.026H344.291C347.165 116.026 349.243 118.364 349.243 121.654V123.801Z" fill="black"/>
</g>
<defs>
<clipPath id="clip0_6414_6218">
<rect width="560" height="240" fill="white"/>
</clipPath>
<clipPath id="clip1_6414_6218">
<rect width="560" height="240" fill="white"/>
</clipPath>
</defs>
</svg>
