<svg width="142" height="38" viewBox="0 0 142 38" fill="none" xmlns="http://www.w3.org/2000/svg">
<path d="M18.5 0.5C8.30235 0.5 0 8.80235 0 19C0 29.1977 8.30235 37.5 18.5 37.5C28.6977 37.5 37 29.1977 37 19C37 8.80235 28.6977 0.5 18.5 0.5Z" fill="#2EAFFF"/>
<path d="M15.8727 22.2269C19.3319 22.2269 22.1361 19.4227 22.1361 15.9636C22.1361 12.5044 19.3319 9.7002 15.8727 9.7002C12.4136 9.7002 9.60938 12.5044 9.60938 15.9636C9.60938 19.4227 12.4136 22.2269 15.8727 22.2269Z" stroke="#1A1A1A" stroke-width="2.68146" stroke-miterlimit="10" stroke-linecap="square"/>
<path d="M25.4531 18.4904H26.4241C27.8703 18.4904 29.0703 17.2904 29.0703 15.8442C29.0703 14.398 27.8703 13.2322 26.4241 13.2322H25.4531" stroke="#1A1A1A" stroke-width="2.68146" stroke-miterlimit="10" stroke-linecap="square"/>
<path d="M7.58203 23.4373C10.6898 24.2647 11.483 26.3912 15.8933 26.3912C21.2712 26.3912 21.2712 23.1433 26.6525 23.1433C27.7157 23.1433 28.567 23.2766 29.2918 23.492" stroke="#1A1A1A" stroke-width="2.68146" stroke-miterlimit="10" stroke-linecap="square"/>
<path d="M54.458 18.7939C54.458 14.1872 51.7195 13.4867 48.9173 13.4867H47.5162V24.1224H48.9173C51.7195 24.1224 54.458 23.443 54.458 18.7939ZM44.4804 11.109H49.0447C53.9273 11.109 57.5999 12.68 57.5999 18.7939C57.5999 24.9078 53.9273 26.5 49.0447 26.5H44.4804V11.109ZM66.2408 26.5V24.9927C65.5827 26.1603 64.3301 26.776 62.9078 26.776C60.1693 26.776 59.0654 25.0989 59.0654 22.2967V15.0788H61.995V21.6598C61.995 23.1883 62.2285 24.4196 63.8631 24.4196C65.8162 24.4196 66.2408 22.8274 66.2408 21.0229V15.0788H69.1703V26.5H66.2408ZM76.5744 14.8241C78.9733 14.8241 81.3509 16.1615 81.7543 18.985H78.9521C78.7186 17.8811 77.6996 17.0956 76.5744 17.0956C75.0459 17.0956 73.8359 18.3905 73.8359 20.7682C73.8359 23.1671 74.9823 24.5045 76.5957 24.5045C77.6146 24.5045 78.6549 23.9738 79.0582 22.6151H81.8604C81.1811 25.7358 78.8247 26.776 76.4471 26.776C73.0292 26.776 70.8426 24.271 70.8426 20.8106C70.8426 17.3291 73.1566 14.8241 76.5744 14.8241ZM83.3975 11.109H86.3271V19.6643L90.488 15.0788H93.7785L89.6813 19.452L94.012 26.5H90.7215L87.7282 21.5537L86.3271 23.0609V26.5H83.3975V11.109ZM98.0601 11.109V24.0374H105.554V26.5H95.0244V11.109H98.0601ZM113.885 22.1268V21.2777C110.594 21.6173 109.299 21.9995 109.299 23.2732C109.299 24.1011 109.936 24.7805 111.274 24.7805C113.121 24.7805 113.885 23.8039 113.885 22.1268ZM114.14 25.0777C113.312 26.2665 112.123 26.776 110.403 26.776C108.217 26.776 106.285 25.5022 106.285 23.4218C106.285 20.7257 109.299 19.919 113.8 19.4095V19.2185C113.8 17.4565 112.845 16.8408 111.656 16.8408C110.531 16.8408 109.597 17.414 109.533 18.6878H106.794C107.028 16.4375 108.854 14.7816 111.804 14.7816C114.5 14.7816 116.729 15.9704 116.729 19.8129C116.729 20.1525 116.687 21.7023 116.687 22.7213C116.687 24.5257 116.793 25.5447 117.027 26.5H114.331C114.246 26.1391 114.203 25.6508 114.14 25.0777ZM118.958 11.109H121.887V19.6643L126.048 15.0788H129.339L125.241 19.452L129.572 26.5H126.282L123.288 21.5537L121.887 23.0609V26.5H118.958V11.109ZM140.907 21.5961H132.479C132.649 23.5492 133.965 24.5045 135.366 24.5045C136.279 24.5045 137.17 24.186 137.765 23.1883H140.779C140.164 24.8866 138.508 26.776 135.387 26.776C131.715 26.776 129.57 24.0374 129.57 20.747C129.57 17.3503 131.927 14.8241 135.302 14.8241C138.826 14.8241 141.013 17.5626 140.907 21.5961ZM135.281 16.9682C134.177 16.9682 132.755 17.6475 132.521 19.5794H137.935C137.871 17.6475 136.512 16.9682 135.281 16.9682Z" fill="#0D0D0D"/>
</svg>
