<svg width="104" height="40" viewBox="0 0 104 40" fill="none" xmlns="http://www.w3.org/2000/svg">
<mask id="mask0_13658_13481" style="mask-type:luminance" maskUnits="userSpaceOnUse" x="0" y="12" width="104" height="16">
<path d="M104 12.2178H0V27.7824H104V12.2178Z" fill="white"/>
</mask>
<g mask="url(#mask0_13658_13481)">
<path fill-rule="evenodd" clip-rule="evenodd" d="M14.4417 22.4688L12.899 22.4189L12.541 22.3659L6.58129 15.8616L8.70401 12.2178L9.68264 12.4107L14.864 21.3036L14.4417 22.4688ZM7.43925 19.332L6.6106 17.762L5.34636 17.9804L0.17627 26.8549L0.492739 27.7824H4.75554L7.45515 19.4388L7.43925 19.332ZM16.0877 23.405L7.38579 25.2779L6.39633 26.8264L7.21578 27.7824H17.5816L18.2171 27.059L16.0877 23.405Z" fill="#666666"/>
<path fill-rule="evenodd" clip-rule="evenodd" d="M39.0042 13.2695H40.5077V25.2051H42.277V26.4269H41.2594C40.976 26.4269 40.7273 26.4098 40.5077 26.3737C39.3371 26.1867 39.0042 25.4934 39.0042 24.2286V13.2695ZM30.9214 13.9267L26.1661 26.4268H27.745L28.9668 23.2314H35.1517L36.3734 26.4268H37.9713L33.2347 13.9267H30.9231H30.9214ZM29.437 21.9718L32.0678 15.0542L34.6797 21.9718H29.437ZM44.6966 14.9428H43.8919L43.3273 16.8975L41.3913 17.3677V18.2137H43.195V24.2287C43.195 25.732 43.6651 26.4271 45.4501 26.4271H47.6673V25.2051H44.6966V18.2137H47.7975V17.0296H44.6966V14.9428ZM93.0429 13.2695H91.5397V24.2286C91.5397 25.4934 91.8723 26.1867 93.0429 26.3737C93.2621 26.4098 93.5114 26.4269 93.7942 26.4269H94.8118V25.2051H93.0429V13.2695ZM52.9133 16.7289C55.733 16.7289 57.3306 18.6647 57.3306 21.4088V21.4105C57.3306 21.6542 57.3306 21.8429 57.293 22.0678H49.7367C49.8503 24.6419 51.1287 25.5824 52.9699 25.5824C54.8115 25.5824 55.6574 24.7174 55.9389 23.5333H57.3117C57.1229 24.9628 56.1465 26.7288 52.9133 26.7288C49.6801 26.7288 48.2525 24.5492 48.2525 21.7108C48.2525 18.9101 49.7933 16.7289 52.9133 16.7289ZM52.9321 17.8754C51.1475 17.8754 49.9822 18.7214 49.7746 20.9385H55.8649C55.7896 18.778 54.7171 17.8754 52.9321 17.8754ZM67.1603 14.9428H66.352L65.7566 17.0056H63.608C61.8043 17.0056 60.713 17.9512 60.1502 19.53V17.0296H58.6655V26.4271H60.169V22.9691C60.169 20.3194 60.7522 18.1177 63.5341 18.212H63.8535L63.948 18.2137H65.6586V24.2287C65.6586 25.732 66.1291 26.4271 67.9137 26.4271H70.131V25.2051H67.1603V18.2137H70.2612V17.0296H67.1603V14.9428ZM75.0922 16.7088C77.6681 16.7088 78.8147 17.893 78.8147 19.5851L78.813 19.5834V24.095C78.813 24.7712 78.8508 25.504 78.9265 26.4254H77.5719C77.4782 25.6172 77.4404 24.9222 77.4404 24.2271C77.0828 25.3546 76.0875 26.6708 73.9065 26.6708C72.1028 26.6708 70.8056 25.7322 70.8056 23.9457C70.8056 22.4235 71.6139 21.4642 73.6628 21.1261L76.0497 20.7314C77.0261 20.5633 77.4404 20.299 77.4404 19.5851C77.4404 18.6257 76.9505 17.893 75.1283 17.893C73.3058 17.893 72.6107 18.7579 72.5166 19.9798H71.0133C71.0698 17.9873 72.5166 16.7088 75.0922 16.7088ZM72.3313 23.889C72.3313 24.9599 73.1018 25.4867 74.1914 25.4867C76.4296 25.4867 77.4438 23.7587 77.4438 21.9722V21.1639C76.9728 21.5019 76.4648 21.6512 75.7514 21.8023L74.1914 22.1215C72.9146 22.3857 72.3313 22.8731 72.3313 23.889ZM85.7509 16.7275C84.0207 16.7275 82.8372 17.4791 82.1986 18.7765V13.2695H80.6953V26.4269H82.1986V24.6593C82.8372 25.9756 84.0207 26.7273 85.7509 26.7273C88.7025 26.7273 90.0545 24.6027 90.0545 21.7283C90.0545 18.8332 88.7007 16.7292 85.7509 16.7292V16.7275ZM85.4492 25.5053C83.456 25.5053 82.1969 24.3779 82.1969 21.7283C82.1969 19.0786 83.456 17.9511 85.4492 17.9511C87.5739 17.9511 88.5125 19.1919 88.5125 21.7283C88.5125 24.2475 87.5722 25.5053 85.4492 25.5053ZM96.3185 22.066C96.432 24.6402 97.6731 25.5806 99.552 25.5806V25.5824C101.393 25.5824 102.24 24.7174 102.521 23.5333H103.894C103.705 24.9628 102.729 26.7288 99.4952 26.7288C96.2627 26.7288 94.8342 24.5115 94.8342 21.7108C94.8342 18.9101 96.3753 16.7289 99.4952 16.7289C102.314 16.7289 103.912 18.6647 103.912 21.4088C103.912 21.6524 103.912 21.8413 103.874 22.066H96.3185ZM102.447 20.9368C102.371 18.7763 101.262 17.8736 99.5142 17.8736C97.7298 17.8736 96.5643 18.7196 96.3563 20.9368H102.447Z" fill="#666666"/>
</g>
</svg>
