<svg width="62" height="40" viewBox="0 0 62 40" fill="none" xmlns="http://www.w3.org/2000/svg">
<g clip-path="url(#clip0_13749_16646)">
<path d="M17.1044 17.1989C15.5595 13.813 11.5625 12.3206 8.17681 13.8655C5.8269 14.9377 4.29663 17.2588 4.23725 19.8411C3.92794 19.7476 3.60665 19.7002 3.28356 19.7005C1.34506 19.83 -0.121429 21.5063 0.00794232 23.4448C0.125327 25.2029 1.52541 26.6029 3.28356 26.7204H3.89336C4.01818 26.7244 4.13846 26.6729 4.22168 26.5797L10.6788 20.1383L11.8357 18.9814V20.4198C11.7886 20.6745 11.957 20.9192 12.2117 20.9663C12.4665 21.0135 12.7111 20.8451 12.7583 20.5904C12.7687 20.534 12.7687 20.4761 12.7583 20.4198V17.8558C12.7576 17.7348 12.7132 17.6181 12.6332 17.5275C12.5418 17.4367 12.418 17.3861 12.2891 17.3868H9.74056C9.48155 17.3868 9.27158 17.5968 9.27158 17.8558C9.26276 18.106 9.45854 18.3161 9.70874 18.3248C9.71935 18.3252 9.72996 18.3252 9.74056 18.3248H11.1789L9.1152 20.3727L3.78383 25.7979H3.36168C1.93694 25.7969 0.782656 24.6412 0.78362 23.2165C0.784585 21.793 1.93818 20.6394 3.36168 20.6384C3.78603 20.6387 4.20418 20.7405 4.58113 20.9355C4.79441 21.0666 5.07368 21 5.20485 20.7867C5.25803 20.7003 5.28062 20.5985 5.26905 20.4978C5.26905 20.3571 5.26905 20.1694 5.26905 19.9818C5.26423 16.7784 7.85717 14.1774 11.0607 14.1726C13.444 14.169 15.5869 15.6235 16.4635 17.8398C16.5381 18.0306 16.728 18.1509 16.9325 18.1368H17.1827C19.3025 18.2721 20.9112 20.1004 20.7759 22.2202C20.6525 24.1513 19.1137 25.6901 17.1827 25.8134H7.80192C7.54717 25.7663 7.30248 25.9347 7.25536 26.1894C7.20824 26.4442 7.37661 26.6889 7.63135 26.736C7.6877 26.7465 7.74557 26.7465 7.80192 26.736H17.1827C19.812 26.736 21.9434 24.6046 21.9434 21.9753C21.9434 19.346 19.812 17.2146 17.1827 17.2146L17.1044 17.1989Z" fill="#666666"/>
<path d="M26.6572 26.5641L26.2976 24.5004H24.7342L24.359 26.5641H23.2958L24.9687 17.6211H26.1568L27.8141 26.5641H26.6572ZM25.5159 19.7161L24.8905 23.5466H26.1257L25.5159 19.7161Z" fill="#666666"/>
<path d="M30.3626 26.7203C29.2947 26.7987 28.3656 25.9965 28.2873 24.9286C28.2822 24.8589 28.2808 24.7889 28.2833 24.7189V23.9059H29.3777V24.5938C29.3777 25.3443 29.7373 25.782 30.3626 25.782C30.8706 25.8203 31.3135 25.4395 31.3518 24.9315C31.3564 24.871 31.355 24.8103 31.3476 24.7501C31.3086 23.8445 30.8451 23.0102 30.0968 22.4987C29.1434 21.7974 28.5214 20.7341 28.377 19.5594C28.2812 18.5017 29.0612 17.5666 30.1189 17.4708C30.1999 17.4635 30.2812 17.4613 30.3625 17.4644C31.4054 17.4021 32.3014 18.1971 32.3637 19.24C32.3682 19.3151 32.3682 19.3905 32.3637 19.4657V20.31H31.3005V19.5908C31.3005 18.9029 31.0034 18.4339 30.3468 18.4339C29.8914 18.3875 29.4848 18.7189 29.4384 19.1743C29.4322 19.2349 29.4328 19.296 29.4399 19.3564C29.4399 20.232 29.7995 20.7323 30.8315 21.686C31.7649 22.3484 32.3416 23.4036 32.3949 24.5471C32.4902 25.6482 31.6747 26.618 30.5736 26.7133C30.5034 26.7192 30.433 26.7215 30.3626 26.7203Z" fill="#666666"/>
<path d="M35.3345 26.7205C34.2306 26.7752 33.2914 25.9245 33.2367 24.8207C33.2327 24.7399 33.2337 24.6592 33.2393 24.5786V19.6068C33.1603 18.5045 33.9898 17.5467 35.0923 17.4676C35.1729 17.4618 35.2538 17.461 35.3344 17.465C36.376 17.3826 37.2871 18.1602 37.3693 19.2018C37.378 19.3106 37.377 19.42 37.3668 19.5287V20.7482H36.3819V19.4974C36.4271 18.9813 36.0453 18.5264 35.5292 18.4812C35.4748 18.4764 35.4201 18.4764 35.3656 18.4812C34.859 18.428 34.4051 18.7956 34.3519 19.3023C34.3462 19.3568 34.3453 19.4116 34.3493 19.4662V24.7194C34.3493 25.2807 34.8042 25.7357 35.3655 25.7357C35.9268 25.7357 36.3817 25.2807 36.3817 24.7194V23.453H37.3667V24.6881C37.4476 25.7299 36.6686 26.6397 35.627 26.7206C35.5297 26.7279 35.4319 26.7279 35.3345 26.7205Z" fill="#666666"/>
<path d="M38.3518 26.5641V17.6211H41.8539V18.6373H39.4619V21.4203H41.1973V22.4052H39.4619V25.5322H41.8539V26.5641H38.3518Z" fill="#666666"/>
<path d="M46.2942 26.5641L44.4337 22.1239L43.8396 20.5604V26.5171H42.7764V17.6211H43.7301L45.4968 22.1239L46.044 23.6874V17.6211H47.1072V26.5641H46.2942Z" fill="#666666"/>
<path d="M50.4374 26.5641H48.2955V17.6211H50.4375C51.8446 17.6211 52.4387 18.4967 52.4387 19.8099V24.4066C52.4386 25.6886 51.8445 26.5641 50.4374 26.5641ZM51.3285 19.8099C51.3285 19.0595 51.0471 18.6686 50.3748 18.6686H49.4212V25.5165H50.3748C51.0472 25.5165 51.3285 25.1256 51.3285 24.3908V19.8099Z" fill="#666666"/>
<path d="M53.4235 26.5644V25.1416H54.3771V26.5644H53.4235Z" fill="#666666"/>
<path d="M55.5499 26.5641V17.6211H56.6756V26.5641H55.5499Z" fill="#666666"/>
<path d="M59.8963 26.7205C58.793 26.7869 57.8448 25.9463 57.7785 24.843C57.7719 24.734 57.7744 24.6246 57.7857 24.5159V19.7161C57.6855 18.5548 58.5457 17.5319 59.7071 17.4318C60.8684 17.3316 61.8913 18.1917 61.9914 19.3532C62.0019 19.4739 62.0019 19.5954 61.9914 19.7161V24.5785C62.0705 25.6808 61.241 26.6386 60.1385 26.7177C60.0579 26.7235 59.977 26.7243 59.8963 26.7205ZM60.8812 19.5441C60.9501 18.9958 60.5616 18.4954 60.0132 18.4265C59.4649 18.3576 58.9645 18.7461 58.8956 19.2945C58.8851 19.3774 58.8851 19.4613 58.8956 19.5441V24.641C58.8266 25.1894 59.2152 25.6898 59.7636 25.7587C60.3119 25.8275 60.8123 25.439 60.8812 24.8907C60.8917 24.8077 60.8917 24.7238 60.8812 24.641V19.5441Z" fill="#666666"/>
</g>
<defs>
<clipPath id="clip0_13749_16646">
<rect width="61.9993" height="40" fill="white"/>
</clipPath>
</defs>
</svg>
