<svg xmlns="http://www.w3.org/2000/svg" width="38" height="40" fill="none" viewBox="0 0 38 40"><g clip-path="url(#clip0_13802_22960)"><path fill="#666" d="M0 26.7428L1.18798 27.166L2.5815 23.6696H6.38002V22.572H3.01868L4.76808 18.1819L3.58009 17.7586L0 26.7428ZM4.67449 15.4067L9.41127 27.166L10.5993 26.7428L5.86248 14.999L4.67449 15.4067Z"/><path fill="#666" d="M18.6793 16.441L17.663 16.8329C17.4648 16.1534 17.0977 15.6334 16.5608 15.2729C16.0239 14.9124 15.4325 14.7318 14.7866 14.7318C14.109 14.7318 13.5279 14.9286 13.0433 15.3221C12.5587 15.7156 12.3164 16.2475 12.3164 16.9187C12.3164 17.3801 12.4593 17.7975 12.7455 18.17C13.0314 18.5424 13.4395 18.7864 13.9703 18.9016L14.3377 18.9858L14.0596 20.0941L13.7079 20.0161C12.8846 19.8177 12.2438 19.4307 11.785 18.8557C11.3262 18.281 11.0971 17.6432 11.0971 16.9429C11.0971 15.9081 11.4617 15.1007 12.1915 14.5205C12.921 13.9403 13.786 13.6504 14.7866 13.6504C15.6829 13.6504 16.493 13.8908 17.2174 14.3717C17.9417 14.8525 18.4289 15.5424 18.6789 16.4414M18.8196 22.5249C18.8196 23.518 18.4547 24.3515 17.7252 25.0259C16.9957 25.6999 16.0578 26.0371 14.9114 26.0371C13.9835 26.0371 13.1394 25.7964 12.379 25.3158C11.6182 24.8353 11.0916 24.1295 10.7999 23.1992L11.863 22.7601C12.0818 23.4814 12.4651 24.025 13.0123 24.3907C13.5595 24.7567 14.1771 24.9395 14.865 24.9395C15.6254 24.9395 16.2743 24.7275 16.8112 24.3036C17.3477 23.8794 17.6162 23.3008 17.6162 22.5679C17.6162 22.0236 17.4548 21.568 17.1322 21.2014C16.8092 20.8351 16.3407 20.5888 15.7264 20.4633L15.4205 20.3956L15.7151 19.3019L16.1591 19.4038C17.0147 19.5805 17.672 19.9475 18.1314 20.5041C18.5906 21.0606 18.8203 21.7343 18.8203 22.5249"/><path fill="#666" d="M30.2966 22.9327L31.4534 23.4188C30.9947 24.6523 30.2678 25.6007 29.2728 26.2644C28.2769 26.9284 27.1907 27.2601 26.0131 27.2601C25.0645 27.2601 24.1759 27.0536 23.3477 26.6407C22.5191 26.2279 21.8157 25.5955 21.2372 24.7435C20.6587 23.8918 20.317 22.891 20.2131 21.7409H21.4637C21.6096 23.1104 22.1229 24.1895 23.0037 24.9785C23.8842 25.7677 24.8929 26.1622 26.0289 26.1622C26.9564 26.1622 27.811 25.8826 28.5929 25.3234C29.3747 24.7646 29.9426 23.9672 30.2968 22.9324M31.4539 18.7302L30.3125 19.2163C29.9478 18.1714 29.3769 17.3689 28.6007 16.8094C27.8243 16.2506 26.9672 15.9707 26.0289 15.9707C24.9035 15.9707 23.8975 16.3651 23.0118 17.1544C22.1258 17.9439 21.6099 19.0179 21.464 20.3763H20.2135C20.3174 19.2373 20.6613 18.2416 21.2453 17.3896C21.8289 16.5379 22.5349 15.9056 23.3637 15.4924C24.1923 15.0795 25.0757 14.873 26.0136 14.873C27.2017 14.873 28.2936 15.205 29.2888 15.8687C30.284 16.5327 31.006 17.4864 31.4541 18.7302"/><path fill="#666" d="M38 15.3496H36.75V24.6554H38V15.3496Z"/><path fill="#666" d="M34.5515 15.3457H33.3018V24.6515H34.5515V15.3457Z"/><path fill="#666" d="M34.5713 12.4678H33.3229V13.9997H34.5713V12.4678Z"/><path fill="#666" d="M37.9786 25.8066H36.7305V27.3385H37.9786V25.8066Z"/></g><defs><clipPath id="clip0_13802_22960"><rect width="38" height="15.065" fill="#fff" transform="translate(0 12.4678)"/></clipPath></defs></svg>