<svg width="70" height="40" viewBox="0 0 70 40" fill="none" xmlns="http://www.w3.org/2000/svg">
<g clip-path="url(#clip0_13749_16299)">
<g clip-path="url(#clip1_13749_16299)">
<mask id="mask0_13749_16299" style="mask-type:luminance" maskUnits="userSpaceOnUse" x="0" y="10" width="70" height="20">
<path d="M70 10.3164H0.121338V29.5897H70V10.3164Z" fill="white"/>
</mask>
<g mask="url(#mask0_13749_16299)">
<path d="M36.1177 25.9678C36.239 25.2934 36.5913 24.8641 37.2773 24.8641C37.863 24.8641 38.2807 25.2958 38.3483 25.9678H36.1177ZM37.3543 29.5658C38.073 29.5658 38.6447 29.3791 39.1207 29.0478C39.6177 28.7048 39.949 28.2194 40.0703 27.7131H38.3157C38.1617 28.0654 37.8513 28.2754 37.3777 28.2754C36.638 28.2754 36.218 27.8018 36.1083 27.0388H40.1707C40.1823 25.8908 39.851 24.9084 39.1767 24.2901C38.6913 23.8491 38.0497 23.5831 37.2447 23.5831C35.5227 23.5831 34.342 24.8734 34.342 26.5628C34.342 28.2521 35.49 29.5658 37.3567 29.5658M31.3413 29.5774C32.942 29.5774 33.9803 28.5624 34.0247 27.2604H32.3027C32.2257 27.8998 31.8827 28.2311 31.3203 28.2311C30.548 28.2311 30.1607 27.5918 30.1607 26.5861C30.1607 25.5804 30.548 24.9201 31.3203 24.9201C31.829 24.9201 32.137 25.2514 32.2467 25.7601H33.9803C33.8147 24.4908 32.8323 23.5971 31.297 23.5971C29.5097 23.5971 28.3383 24.8874 28.3383 26.5884C28.3383 28.2894 29.519 29.5798 31.3413 29.5798M22.302 29.4024H24.101V26.2781C24.101 25.5828 24.4977 25.0858 25.095 25.0858C25.6923 25.0858 25.977 25.4941 25.977 26.0914V29.4024H27.776V25.7274C27.776 24.4698 27.048 23.5854 25.8113 23.5854C25.0273 23.5854 24.486 23.9168 24.0683 24.5234H24.0357V23.7511H22.302V29.4024ZM17.6447 25.9701C17.766 25.2958 18.1183 24.8664 18.8043 24.8664C19.39 24.8664 19.81 25.2981 19.8753 25.9701H17.6447ZM18.8813 29.5681C19.6 29.5681 20.1717 29.3814 20.6477 29.0501C21.1447 28.7071 21.476 28.2218 21.5973 27.7154H19.8427C19.6887 28.0678 19.3783 28.2778 18.9047 28.2778C18.165 28.2778 17.745 27.8041 17.6353 27.0411H21.6977C21.7093 25.8931 21.378 24.9108 20.7037 24.2924C20.2183 23.8514 19.5767 23.5854 18.7717 23.5854C17.0497 23.5854 15.869 24.8758 15.869 26.5651C15.869 28.2544 17.017 29.5681 18.8837 29.5681M13.573 22.9671H15.372V21.5111H13.573V22.9671ZM13.573 29.4024H15.372V23.7511H13.573V29.4024ZM10.3157 29.5798C11.9163 29.5798 12.9547 28.5648 12.999 27.2628H11.277C11.2 27.9021 10.857 28.2334 10.2947 28.2334C9.52233 28.2334 9.135 27.5941 9.135 26.5884C9.135 25.5828 9.52233 24.9224 10.2947 24.9224C10.8033 24.9224 11.1113 25.2538 11.221 25.7624H12.9547C12.789 24.4931 11.8067 23.5994 10.2713 23.5994C8.484 23.5994 7.31267 24.8898 7.31267 26.5908C7.31267 28.2918 8.49333 29.5821 10.3157 29.5821M3.64933 29.5938C5.47167 29.5938 6.88333 28.6768 6.88333 27.0224C6.88333 25.3681 5.558 24.8804 4.09033 24.5398C2.90967 24.2738 2.303 24.1431 2.303 23.5901C2.303 23.1491 2.75567 22.8504 3.43933 22.8504C4.16733 22.8504 4.63167 23.1934 4.70867 23.8001H6.61733C6.54033 22.1434 5.215 21.3711 3.50467 21.3711C1.79434 21.3711 0.368671 22.1108 0.368671 23.8001C0.368671 25.4894 1.81534 25.8744 3.18267 26.1964C4.26533 26.4624 4.90467 26.5931 4.90467 27.2231C4.90467 27.8181 4.27467 28.0514 3.63533 28.0514C2.69733 28.0514 2.17934 27.7201 2.09067 26.9244H0.121338C0.165671 28.6674 1.54467 29.5961 3.64233 29.5961" fill="#666666"/>
<path d="M51.9586 20.228H53.1276C54.2639 20.228 54.8052 19.7637 55.2579 18.4407L57.2109 12.7124H55.4119L54.6722 15.118C54.4949 15.671 54.3409 16.42 54.3409 16.42H54.3199C54.3199 16.42 54.1426 15.6687 53.9676 15.118L53.2069 12.7124H51.3076L52.9736 17.0617C53.2046 17.6567 53.3166 17.988 53.3166 18.2307C53.3166 18.618 53.1066 18.8257 52.5769 18.8257H51.9586V20.228ZM49.9169 18.429C50.4022 18.429 50.7452 18.3847 50.8992 18.3404V17.0267C50.8339 17.0267 50.6566 17.0384 50.5026 17.0384C50.1152 17.0384 49.8726 16.9287 49.8726 16.4854V13.837H50.8992V12.71H49.8726V10.9227H48.1179V12.71H47.3666V13.837H48.1179V16.8727C48.1179 18.086 48.8692 18.429 49.9169 18.429ZM45.0169 11.9284H46.8159V10.47H45.0169V11.926V11.9284ZM45.0169 18.3637H46.8159V12.7124H45.0169V18.3637ZM38.4812 18.3637H40.4459L41.4726 16.6744H41.4936L42.4199 18.3637H44.5059L42.5856 15.3724L44.2632 12.7124H42.3756L41.5799 14.1684H41.5589L40.7189 12.7124H38.6656L40.4436 15.3957L38.4789 18.366L38.4812 18.3637ZM34.8389 14.9314C34.9602 14.257 35.3126 13.8277 35.9986 13.8277C36.5842 13.8277 37.0042 14.257 37.0696 14.9314H34.8389ZM36.0756 18.5294C36.7942 18.5294 37.3659 18.3427 37.8419 18.0114C38.3389 17.6684 38.6702 17.183 38.7916 16.6767H37.0369C36.8829 17.029 36.5726 17.239 36.0989 17.239C35.3592 17.239 34.9392 16.7654 34.8296 16.0024H38.8919C38.9036 14.8544 38.5722 13.872 37.8979 13.2537C37.4126 12.8127 36.7709 12.5467 35.9659 12.5467C34.2439 12.5467 33.0632 13.837 33.0632 15.5264C33.0632 17.2157 34.2112 18.5294 36.0779 18.5294M30.6249 18.3637H32.4472V10.47H30.6249V18.3614V18.3637ZM27.1926 17.1504C26.4202 17.1504 25.9792 16.5204 25.9792 15.6057C25.9792 14.691 26.3759 13.9934 27.1599 13.9934C27.9439 13.9934 28.2962 14.6327 28.2962 15.6057C28.2962 16.5787 27.8762 17.1504 27.1926 17.1504ZM24.2339 20.2304H26.0329V17.7804H26.0539C26.4062 18.254 26.9266 18.541 27.6546 18.541C29.1339 18.541 30.1162 17.372 30.1162 15.538C30.1162 13.837 29.1992 12.5467 27.6989 12.5467C26.9266 12.5467 26.3736 12.8897 25.9886 13.396H25.9559V12.7124H24.2339V20.2304ZM14.7512 18.3637H16.5502V15.195C16.5502 14.5207 16.8816 14.047 17.4439 14.047C18.0062 14.047 18.2396 14.3994 18.2396 15.0084V18.3637H20.0386V15.195C20.0386 14.5207 20.3582 14.047 20.9322 14.047C21.4736 14.047 21.7279 14.3994 21.7279 15.0084V18.3637H23.5269V14.6887C23.5269 13.4194 22.8876 12.5467 21.6066 12.5467C20.8786 12.5467 20.2719 12.8547 19.8286 13.5407H19.8076C19.5206 12.934 18.9582 12.5467 18.2186 12.5467C17.4019 12.5467 16.8606 12.934 16.5082 13.5174H16.4756V12.7124H14.7536V18.3637H14.7512ZM11.1299 18.541C12.9522 18.541 14.1446 17.2507 14.1446 15.5497C14.1446 13.8487 12.9522 12.5584 11.1299 12.5584C9.30758 12.5584 8.10591 13.8487 8.10591 15.5497C8.10591 17.2507 9.31924 18.541 11.1299 18.541ZM11.1182 17.26C10.3342 17.26 9.92591 16.5764 9.92591 15.5497C9.92591 14.523 10.3342 13.8277 11.1182 13.8277C11.9022 13.8277 12.3222 14.523 12.3222 15.5497C12.3222 16.5764 11.9022 17.26 11.1182 17.26ZM4.07624 18.541C5.19158 18.541 5.99658 18.233 6.60324 17.6474C7.14458 17.1294 7.49691 16.4107 7.55291 15.6267H5.59991C5.51124 16.3874 4.93724 16.9404 4.06458 16.9404C2.89558 16.9404 2.16525 15.8927 2.16525 14.446C2.16525 12.9994 2.77191 11.94 4.05291 11.94C4.89291 11.94 5.44358 12.4814 5.54391 13.1884H7.49691C7.39658 12.3064 6.99991 11.5317 6.31624 11.0137C5.75391 10.582 4.98158 10.3184 4.06458 10.3184C1.71025 10.316 0.177246 12.094 0.177246 14.4437C0.177246 16.7934 1.75691 18.5387 4.07391 18.5387" fill="#666666"/>
<path d="M67.0857 28.1539C66.346 28.1539 65.8817 27.5146 65.8817 26.5742C65.8817 25.6339 66.269 24.9526 67.0623 24.9526C67.7903 24.9526 68.1777 25.5919 68.1777 26.5649C68.1777 27.5379 67.7903 28.1539 67.0857 28.1539ZM67.5943 29.5772C69.0503 29.5772 70 28.4502 70 26.5742C70 24.8732 69.0503 23.5829 67.5827 23.5829C66.8103 23.5829 66.325 23.9026 65.9703 24.3879H65.9377V21.5062H64.1387V29.3976H65.8607V28.6789H65.8817C66.234 29.2646 66.843 29.5726 67.592 29.5726M59.9853 29.5609C60.7693 29.5609 61.2663 29.2529 61.6747 28.6999H61.7073V29.3952H63.4293V23.7439H61.6303V26.9009C61.6303 27.5752 61.2547 28.0372 60.6363 28.0372C60.0623 28.0372 59.787 27.6942 59.787 27.0759V23.7416H57.9997V27.4516C57.9997 28.7092 58.6833 29.5609 59.9877 29.5609M50.6707 29.3952H52.6237V26.1052H55.3933V29.3952H57.3463V21.5039H55.3933V24.4952H52.6237V21.5039H50.6707V29.3952Z" fill="#666666"/>
<path d="M44.4243 21.5088L44.4383 24.5001L41.5963 23.5575L41.0433 25.2351L43.9017 26.1171L42.1353 28.5251L43.5423 29.5728L45.276 27.1485L47.0283 29.5728L48.433 28.5251L46.669 26.1171L49.525 25.2351L48.958 23.5575L46.144 24.4861L46.1603 21.5088H44.4243Z" fill="#666666"/>
</g>
</g>
</g>
<defs>
<clipPath id="clip0_13749_16299">
<rect width="70" height="40" fill="white"/>
</clipPath>
<clipPath id="clip1_13749_16299">
<rect width="70" height="19.3667" fill="white" transform="translate(0 10.3164)"/>
</clipPath>
</defs>
</svg>
