<svg xmlns="http://www.w3.org/2000/svg" width="118" height="40" fill="none" viewBox="0 0 118 40"><g clip-path="url(#clip0_13749_16193)"><path fill="#666" d="M17.7448 22.7349C17.7448 22.1657 17.8609 21.6617 18.0932 21.2228C18.3323 20.7839 18.6535 20.4444 19.0566 20.2044C19.4665 19.9575 19.9208 19.8341 20.4196 19.8341C20.7886 19.8341 21.1507 19.9163 21.5059 20.0809C21.8681 20.2387 22.155 20.4513 22.3668 20.7187V17.9824H23.5454V25.5946H22.3668V24.7408C22.1755 25.0152 21.9091 25.2415 21.5674 25.4198C21.2327 25.5981 20.8466 25.6872 20.4094 25.6872C19.9174 25.6872 19.4665 25.5638 19.0566 25.3169C18.6535 25.0632 18.3323 24.7134 18.0932 24.2677C17.8609 23.815 17.7448 23.3041 17.7448 22.7349ZM22.3668 22.7555C22.3668 22.3646 22.2848 22.0251 22.1209 21.7371C21.9637 21.4491 21.7553 21.2296 21.4957 21.0788C21.2408 20.9292 20.9506 20.851 20.6553 20.8524C20.3547 20.8524 20.0746 20.9279 19.8149 21.0788C19.5553 21.2228 19.3435 21.4388 19.1795 21.7268C19.0224 22.008 18.9438 22.344 18.9438 22.7349C18.9438 23.1258 19.0224 23.4687 19.1795 23.7636C19.3435 24.0585 19.5553 24.2848 19.8149 24.4425C20.0814 24.5934 20.3615 24.6688 20.6553 24.6688C20.9559 24.6688 21.2361 24.5934 21.4957 24.4425C21.7553 24.2917 21.9637 24.0722 22.1209 23.7842C22.2848 23.4893 22.3668 23.1464 22.3668 22.7555ZM30.2555 22.6218C30.2555 22.8344 30.2418 23.0264 30.2145 23.1978H25.8998C25.934 23.6504 26.1014 24.0139 26.402 24.2882C26.7026 24.5625 27.0716 24.6997 27.5089 24.6997C28.1374 24.6997 28.5815 24.4357 28.8412 23.9076H30.1017C29.9309 24.4288 29.62 24.8574 29.1691 25.1935C28.725 25.5226 28.1716 25.6872 27.5089 25.6872C26.9691 25.6872 26.484 25.5672 26.0536 25.3272C25.63 25.0803 25.2952 24.7374 25.0492 24.2985C24.8101 23.8528 24.6905 23.3384 24.6905 22.7555C24.6905 22.1726 24.8067 21.6617 25.039 21.2228C25.2781 20.777 25.6095 20.4341 26.0331 20.1941C26.4635 19.9541 26.9554 19.8341 27.5089 19.8341C28.0418 19.8341 28.5166 19.9506 28.9334 20.1838C29.3502 20.417 29.6747 20.7461 29.907 21.1713C30.1393 21.5897 30.2555 22.0731 30.2555 22.6218ZM29.0359 22.2514C29.0291 21.8194 28.8753 21.4731 28.5747 21.2125C28.2741 20.9519 27.9017 20.8216 27.4576 20.8216C27.0545 20.8216 26.7095 20.9519 26.4225 21.2125C26.1356 21.4662 25.9648 21.8125 25.9101 22.2514H29.0359ZM31.0157 22.7555C31.0157 22.1726 31.1318 21.6617 31.3641 21.2228C31.6033 20.777 31.9312 20.4341 32.348 20.1941C32.7648 19.9541 33.243 19.8341 33.7828 19.8341C34.466 19.8341 35.0297 19.9986 35.4738 20.3278C35.9247 20.6501 36.2288 21.113 36.3859 21.7165H35.1253C35.0229 21.4354 34.8589 21.2159 34.6334 21.0582C34.4079 20.9004 34.1244 20.8216 33.7828 20.8216C33.3045 20.8216 32.9219 20.993 32.635 21.3359C32.3548 21.672 32.2148 22.1451 32.2148 22.7555C32.2148 23.3658 32.3548 23.8425 32.635 24.1854C32.9219 24.5283 33.3045 24.6997 33.7828 24.6997C34.4592 24.6997 34.9067 24.4014 35.1253 23.8048H36.3859C36.2219 24.3808 35.9145 24.8403 35.4635 25.1832C35.0126 25.5192 34.4524 25.6872 33.7828 25.6872C33.243 25.6872 32.7648 25.5672 32.348 25.3272C31.9312 25.0803 31.6033 24.7374 31.3641 24.2985C31.1318 23.8528 31.0157 23.3384 31.0157 22.7555ZM38.1447 19.1757C37.9329 19.1757 37.7552 19.1037 37.6117 18.9597C37.4683 18.8157 37.3965 18.6374 37.3965 18.4248C37.3965 18.2122 37.4683 18.0339 37.6117 17.8899C37.7552 17.7458 37.9329 17.6738 38.1447 17.6738C38.3496 17.6738 38.5238 17.7458 38.6673 17.8899C38.8108 18.0339 38.8825 18.2122 38.8825 18.4248C38.8825 18.6374 38.8108 18.8157 38.6673 18.9597C38.5238 19.1037 38.3496 19.1757 38.1447 19.1757ZM38.7186 19.9266V25.5946H37.5502V19.9266H38.7186ZM42.3023 25.6872C41.8582 25.6872 41.4585 25.6084 41.1032 25.4506C40.7547 25.286 40.478 25.0666 40.2731 24.7923C40.0681 24.5111 39.9588 24.1991 39.9451 23.8562H41.1544C41.1749 24.0962 41.2877 24.2985 41.4926 24.4631C41.7044 24.6208 41.9675 24.6997 42.2818 24.6997C42.6097 24.6997 42.8625 24.638 43.0402 24.5145C43.2246 24.3842 43.3169 24.2197 43.3169 24.0208C43.3169 23.8082 43.2144 23.6504 43.0094 23.5476C42.8113 23.4447 42.4936 23.3316 42.0563 23.2081C41.6327 23.0915 41.2877 22.9784 41.0212 22.8687C40.7547 22.7589 40.5225 22.5909 40.3243 22.3646C40.133 22.1383 40.0374 21.84 40.0374 21.4697C40.0374 21.1679 40.1262 20.8936 40.3038 20.6467C40.4815 20.393 40.7343 20.1941 41.0622 20.0501C41.397 19.9061 41.7796 19.8341 42.21 19.8341C42.8523 19.8341 43.3681 19.9986 43.7576 20.3278C44.1538 20.6501 44.3656 21.0925 44.393 21.6548H43.2246C43.2041 21.4011 43.1017 21.1988 42.9172 21.0479C42.7327 20.897 42.4833 20.8216 42.169 20.8216C41.8616 20.8216 41.6259 20.8799 41.4619 20.9965C41.2979 21.113 41.2159 21.2673 41.2159 21.4594C41.2159 21.6102 41.2706 21.7371 41.3799 21.84C41.4892 21.9428 41.6225 22.0251 41.7796 22.0869C41.9367 22.1417 42.169 22.2137 42.4765 22.3029C42.8864 22.4126 43.2212 22.5258 43.4808 22.6423C43.7473 22.7521 43.9762 22.9167 44.1675 23.1361C44.3588 23.3556 44.4579 23.647 44.4647 24.0105C44.4647 24.3328 44.3759 24.6208 44.1982 24.8746C44.0206 25.1283 43.7678 25.3272 43.4399 25.4712C43.1187 25.6152 42.7395 25.6872 42.3023 25.6872ZM46.3215 19.1757C46.1097 19.1757 45.9321 19.1037 45.7886 18.9597C45.6451 18.8157 45.5734 18.6374 45.5734 18.4248C45.5734 18.2122 45.6451 18.0339 45.7886 17.8899C45.9321 17.7458 46.1097 17.6738 46.3215 17.6738C46.5265 17.6738 46.7007 17.7458 46.8442 17.8899C46.9877 18.0339 47.0594 18.2122 47.0594 18.4248C47.0594 18.6374 46.9877 18.8157 46.8442 18.9597C46.7007 19.1037 46.5265 19.1757 46.3215 19.1757ZM46.8954 19.9266V25.5946H45.7271V19.9266H46.8954ZM50.8787 25.6872C50.3458 25.6872 49.8641 25.5672 49.4337 25.3272C49.0032 25.0803 48.665 24.7374 48.4191 24.2985C48.1731 23.8528 48.0501 23.3384 48.0501 22.7555C48.0501 22.1794 48.1765 21.6685 48.4293 21.2228C48.6821 20.777 49.0271 20.4341 49.4644 20.1941C49.9017 19.9541 50.3902 19.8341 50.9299 19.8341C51.4697 19.8341 51.9582 19.9541 52.3955 20.1941C52.8327 20.4341 53.1778 20.777 53.4306 21.2228C53.6834 21.6685 53.8098 22.1794 53.8098 22.7555C53.8098 23.3316 53.6799 23.8425 53.4203 24.2882C53.1607 24.734 52.8054 25.0803 52.3545 25.3272C51.9104 25.5672 51.4184 25.6872 50.8787 25.6872ZM50.8787 24.6688C51.1793 24.6688 51.4594 24.5968 51.7191 24.4528C51.9855 24.3088 52.2007 24.0928 52.3647 23.8048C52.5287 23.5167 52.6107 23.167 52.6107 22.7555C52.6107 22.344 52.5321 21.9977 52.375 21.7165C52.2178 21.4285 52.0094 21.2125 51.7498 21.0685C51.4928 20.9251 51.2034 20.8507 50.9094 20.8524C50.6088 20.8524 50.3287 20.9245 50.0691 21.0685C49.8163 21.2125 49.6147 21.4285 49.4644 21.7165C49.3141 21.9977 49.2389 22.344 49.2389 22.7555C49.2389 23.3658 49.3927 23.839 49.7001 24.1751C50.0144 24.5043 50.4073 24.6688 50.8787 24.6688ZM57.8138 19.8341C58.2579 19.8341 58.6542 19.9266 59.0026 20.1118C59.3579 20.297 59.6346 20.5713 59.8327 20.9347C60.0309 21.2982 60.1299 21.7371 60.1299 22.2514V25.5946H58.9719V22.4263C58.9719 21.9188 58.8455 21.5314 58.5927 21.2639C58.3399 20.9896 57.9948 20.8524 57.5576 20.8524C57.1203 20.8524 56.7719 20.9896 56.5122 21.2639C56.2594 21.5314 56.133 21.9188 56.133 22.4263V25.5946H54.9647V19.9266H56.133V20.5747C56.3243 20.3415 56.5669 20.1598 56.8607 20.0295C57.1616 19.8991 57.4861 19.8326 57.8138 19.8341Z"/><path fill="#666" d="M61.2308 22.7555C61.2308 22.1726 61.347 21.6617 61.5793 21.2228C61.8184 20.777 62.1464 20.4341 62.5631 20.1941C62.9799 19.9541 63.4582 19.8341 63.9979 19.8341C64.6812 19.8341 65.2448 19.9986 65.6889 20.3278C66.1399 20.6501 66.4439 21.113 66.601 21.7165H65.3405C65.238 21.4354 65.074 21.2159 64.8486 21.0582C64.6231 20.9004 64.3395 20.8216 63.9979 20.8216C63.5197 20.8216 63.1371 20.993 62.8501 21.3359C62.57 21.672 62.4299 22.1451 62.4299 22.7555C62.4299 23.3658 62.57 23.8425 62.8501 24.1854C63.1371 24.5283 63.5197 24.6997 63.9979 24.6997C64.6743 24.6997 65.1218 24.4014 65.3405 23.8048H66.601C66.4371 24.3808 66.1296 24.8403 65.6787 25.1832C65.2277 25.5192 64.6675 25.6872 63.9979 25.6872C63.4582 25.6872 62.9799 25.5672 62.5631 25.3272C62.1464 25.0803 61.8184 24.7374 61.5793 24.2985C61.347 23.8528 61.2308 23.3384 61.2308 22.7555ZM70.2148 25.6872C69.6819 25.6872 69.2002 25.5672 68.7697 25.3272C68.3393 25.0803 68.0011 24.7374 67.7551 24.2985C67.5092 23.8528 67.3862 23.3384 67.3862 22.7555C67.3862 22.1794 67.5126 21.6685 67.7654 21.2228C68.0182 20.777 68.3632 20.4341 68.8005 20.1941C69.2378 19.9541 69.7263 19.8341 70.266 19.8341C70.8058 19.8341 71.2943 19.9541 71.7316 20.1941C72.1688 20.4341 72.5139 20.777 72.7667 21.2228C73.0194 21.6685 73.1458 22.1794 73.1458 22.7555C73.1458 23.3316 73.016 23.8425 72.7564 24.2882C72.4968 24.734 72.1415 25.0803 71.6906 25.3272C71.2465 25.5672 70.7545 25.6872 70.2148 25.6872ZM70.2148 24.6688C70.5154 24.6688 70.7955 24.5968 71.0552 24.4528C71.3216 24.3088 71.5368 24.0928 71.7008 23.8048C71.8648 23.5167 71.9468 23.167 71.9468 22.7555C71.9468 22.344 71.8682 21.9977 71.7111 21.7165C71.5539 21.4285 71.3455 21.2125 71.0859 21.0685C70.8289 20.9251 70.5395 20.8507 70.2455 20.8524C69.9449 20.8524 69.6648 20.9245 69.4051 21.0685C69.1524 21.2125 68.9508 21.4285 68.8005 21.7165C68.6502 21.9977 68.575 22.344 68.575 22.7555C68.575 23.3658 68.7287 23.839 69.0362 24.1751C69.3505 24.5043 69.7433 24.6688 70.2148 24.6688ZM81.1365 19.8341C81.5806 19.8341 81.9769 19.9266 82.3254 20.1118C82.6806 20.297 82.9574 20.5713 83.1555 20.9347C83.3605 21.2982 83.4629 21.7371 83.4629 22.2514V25.5946H82.3049V22.4263C82.3049 21.9188 82.1785 21.5314 81.9257 21.2639C81.6729 20.9896 81.3278 20.8524 80.8906 20.8524C80.4533 20.8524 80.1049 20.9896 79.8452 21.2639C79.5924 21.5314 79.466 21.9188 79.466 22.4263V25.5946H78.308V22.4263C78.308 21.9188 78.1816 21.5314 77.9288 21.2639C77.676 20.9896 77.3309 20.8524 76.8937 20.8524C76.4564 20.8524 76.108 20.9896 75.8483 21.2639C75.5955 21.5314 75.4691 21.9188 75.4691 22.4263V25.5946H74.3008V19.9266H75.4691V20.5747C75.6604 20.3415 75.903 20.1598 76.1968 20.0295C76.4906 19.8992 76.8048 19.8341 77.1396 19.8341C77.5906 19.8341 77.9937 19.9301 78.349 20.1221C78.7042 20.3141 78.9775 20.5918 79.1688 20.9553C79.3396 20.6124 79.6061 20.3415 79.9682 20.1427C80.3239 19.9386 80.7269 19.8322 81.1365 19.8341ZM86.1179 20.7599C86.316 20.4993 86.5859 20.2798 86.9275 20.1015C87.2691 19.9232 87.6552 19.8341 88.0856 19.8341C88.5775 19.8341 89.025 19.9575 89.4281 20.2044C89.8381 20.4444 90.1592 20.7839 90.3915 21.2228C90.6238 21.6617 90.74 22.1657 90.74 22.7349C90.74 23.3041 90.6238 23.815 90.3915 24.2677C90.1592 24.7134 89.8381 25.0632 89.4281 25.3169C89.025 25.5638 88.5775 25.6872 88.0856 25.6872C87.6552 25.6872 87.2725 25.6015 86.9378 25.4301C86.603 25.2518 86.3297 25.0323 86.1179 24.7717V28.2898H84.9496V19.9266H86.1179V20.7599ZM89.5511 22.7349C89.5511 22.344 89.4691 22.008 89.3052 21.7268C89.148 21.4388 88.9362 21.2228 88.6698 21.0788C88.4149 20.9292 88.1246 20.851 87.8294 20.8524C87.5356 20.8524 87.2555 20.9279 86.989 21.0788C86.7294 21.2296 86.5176 21.4491 86.3536 21.7371C86.1964 22.0251 86.1179 22.3646 86.1179 22.7555C86.1179 23.1464 86.1964 23.4893 86.3536 23.7842C86.5176 24.0722 86.7294 24.2917 86.989 24.4425C87.2555 24.5934 87.5356 24.6688 87.8294 24.6688C88.13 24.6688 88.4101 24.5934 88.6698 24.4425C88.9362 24.2848 89.148 24.0585 89.3052 23.7636C89.4691 23.4687 89.5511 23.1258 89.5511 22.7349ZM97.0093 19.9266V25.5946H95.841V24.926C95.6565 25.1592 95.414 25.3443 95.1134 25.4815C94.8196 25.6118 94.5053 25.6769 94.1705 25.6769C93.7264 25.6769 93.3267 25.5844 92.9714 25.3992C92.623 25.214 92.3463 24.9397 92.1413 24.5763C91.9431 24.2128 91.8441 23.7739 91.8441 23.2596V19.9266H93.0022V23.0847C93.0022 23.5922 93.1286 23.9831 93.3814 24.2574C93.6342 24.5248 93.9792 24.6586 94.4165 24.6586C94.8537 24.6586 95.1988 24.5248 95.4515 24.2574C95.7112 23.9831 95.841 23.5922 95.841 23.0847V19.9266H97.0093ZM99.9139 20.8833V24.0208C99.9139 24.2334 99.9617 24.3877 100.057 24.4837C100.16 24.5728 100.331 24.6174 100.57 24.6174H101.287V25.5946H100.365C99.8388 25.5946 99.4357 25.4712 99.1555 25.2243C98.8754 24.9774 98.7353 24.5763 98.7353 24.0208V20.8833H98.0692V19.9266H98.7353V18.5173H99.9139V19.9266H101.287V20.8833H99.9139ZM102.958 19.1757C102.747 19.1757 102.569 19.1037 102.426 18.9597C102.282 18.8157 102.21 18.6374 102.21 18.4248C102.21 18.2122 102.282 18.0339 102.426 17.8899C102.569 17.7458 102.747 17.6738 102.958 17.6738C103.163 17.6738 103.338 17.7458 103.481 17.8899C103.625 18.0339 103.696 18.2122 103.696 18.4248C103.696 18.6374 103.625 18.8157 103.481 18.9597C103.338 19.1037 103.163 19.1757 102.958 19.1757ZM103.532 19.9266V25.5946H102.364V19.9266H103.532ZM107.915 19.8341C108.359 19.8341 108.756 19.9266 109.104 20.1118C109.459 20.297 109.736 20.5713 109.934 20.9347C110.132 21.2982 110.231 21.7371 110.231 22.2514V25.5946H109.073V22.4263C109.073 21.9188 108.947 21.5314 108.694 21.2639C108.441 20.9896 108.096 20.8524 107.659 20.8524C107.222 20.8524 106.873 20.9896 106.614 21.2639C106.361 21.5314 106.235 21.9188 106.235 22.4263V25.5946H105.066V19.9266H106.235V20.5747C106.426 20.3415 106.668 20.1598 106.962 20.0295C107.263 19.8991 107.588 19.8326 107.915 19.8341ZM113.997 19.8341C114.434 19.8341 114.82 19.9232 115.155 20.1015C115.497 20.273 115.763 20.489 115.954 20.7496V19.9266H117.133V25.6872C117.133 26.2084 117.024 26.6713 116.805 27.0759C116.586 27.4874 116.269 27.8097 115.852 28.0429C115.442 28.2761 114.95 28.3927 114.376 28.3927C113.611 28.3927 112.975 28.2109 112.47 27.8475C111.964 27.4908 111.677 27.0039 111.609 26.3867H112.767C112.856 26.6816 113.044 26.9182 113.331 27.0965C113.625 27.2817 113.973 27.3743 114.376 27.3743C114.848 27.3743 115.227 27.2302 115.514 26.9422C115.807 26.6542 115.954 26.2359 115.954 25.6872V24.7408C115.756 25.0083 115.486 25.2346 115.145 25.4198C114.81 25.5981 114.427 25.6872 113.997 25.6872C113.505 25.6872 113.054 25.5638 112.644 25.3169C112.241 25.0632 111.92 24.7134 111.681 24.2677C111.448 23.815 111.332 23.3041 111.332 22.7349C111.332 22.1657 111.448 21.6617 111.681 21.2228C111.92 20.7839 112.241 20.4444 112.644 20.2044C113.054 19.9575 113.505 19.8341 113.997 19.8341ZM115.954 22.7555C115.954 22.3646 115.872 22.0251 115.708 21.7371C115.551 21.4491 115.343 21.2296 115.083 21.0788C114.828 20.9292 114.538 20.851 114.243 20.8524C113.942 20.8524 113.662 20.9279 113.402 21.0788C113.143 21.2228 112.931 21.4388 112.767 21.7268C112.61 22.008 112.531 22.344 112.531 22.7349C112.531 23.1258 112.61 23.4687 112.767 23.7636C112.931 24.0585 113.143 24.2848 113.402 24.4425C113.669 24.5934 113.949 24.6688 114.243 24.6688C114.543 24.6688 114.824 24.5934 115.083 24.4425C115.343 24.2917 115.551 24.0722 115.708 23.7842C115.872 23.4893 115.954 23.1464 115.954 22.7555Z"/><path fill="#666" fill-rule="evenodd" d="M8.52634 13.2153L5.55613 19.0173C5.41009 19.3028 5.61634 19.6419 5.93589 19.6419H11.7543L14.7073 25.5211C14.8505 25.8062 14.6441 26.1426 14.3261 26.1426H0.427612C0.109482 26.1426 -0.0969115 25.8062 0.0462827 25.5211L6.99561 11.6858C7.15333 11.3717 7.60028 11.3717 7.75813 11.6858L8.52634 13.2153Z" clip-rule="evenodd"/><path fill="#666" d="M11.3155 10.958C11.1569 10.6468 10.7138 10.6468 10.5552 10.958L6.93881 18.0537C6.79362 18.3389 7.00001 18.6775 7.319 18.6775H14.5517C14.8709 18.6775 15.0773 18.3389 14.9319 18.0537L11.3155 10.958Z"/></g><defs><clipPath id="clip0_13749_16193"><rect width="118" height="19.573" fill="#fff" transform="translate(0 10.2129)"/></clipPath></defs></svg>