<svg width="45" height="40" viewBox="0 0 45 40" fill="none" xmlns="http://www.w3.org/2000/svg">
<path d="M38.5158 17.134L38.3507 18.69C38.4059 18.7053 38.3906 18.6756 38.4045 18.6598C38.7696 18.2505 39.0312 17.9249 39.4989 17.6096C41.0475 16.5662 43.7524 16.5075 44.2677 18.7046C44.6415 20.2981 43.8925 22.7511 43.6172 24.3913C43.5625 24.7172 43.5302 25.0478 43.4717 25.3732L45 25.8131L44.5774 27.1079H39.6479L40.6791 21.5955C40.7416 20.9994 40.9935 19.7532 40.0852 19.703C38.8323 19.6337 38.1424 21.7461 37.9568 22.7176L37.124 27.1079H33.6569L35.5084 17.1338H38.5156L38.5158 17.134Z" fill="#666666"/>
<path d="M33.2009 18.274C34.9826 20.262 34.1673 23.9656 32.3839 25.6822C29.6022 28.3599 23.8041 27.96 23.6571 23.3473C23.58 20.9304 24.8541 18.5576 27.0684 17.515C28.9519 16.6279 31.7228 16.6246 33.2012 18.2742L33.2009 18.274ZM29.6866 24.1061C30.3442 23.2882 30.8494 21.2308 30.4536 20.2544C30.1506 19.5065 29.3229 19.3575 28.6588 19.7418C28.233 19.9882 28.0309 20.3247 27.7689 20.8276C27.662 21.0328 27.211 21.9368 27.2714 23.174C27.3101 23.9656 27.5257 24.2299 27.5979 24.3108C27.6325 24.3497 27.9488 24.6902 28.4408 24.7256C29.0125 24.7666 29.4701 24.3752 29.6864 24.1061H29.6866Z" fill="#666666"/>
<path d="M13.4911 13.4561L10.8967 27.1086H7.45312L10.024 13.4561H13.4911Z" fill="#666666"/>
<path d="M16.5927 17.1337C16.6462 17.1502 16.6311 17.3907 16.629 17.453C16.6122 17.947 16.5396 18.4445 16.5104 18.9378C16.5066 18.9998 16.5016 19.0797 16.5219 19.138C16.5851 19.0948 16.6016 19.0107 16.6299 18.9675C17.4642 17.6956 18.4989 16.8241 20.1789 16.9203C20.2461 16.9241 20.3152 16.9326 20.378 16.9564L19.7077 20.2712C19.6765 20.3172 19.044 20.2854 18.9282 20.2936C17.0255 20.4292 16.4724 22.1887 16.1509 23.7636C15.9334 24.8289 15.7686 25.9046 15.5601 26.9713C15.5509 27.0187 15.5469 27.0741 15.508 27.1079H12.0526C12.1498 26.5589 12.2696 26.0135 12.3734 25.466C12.6408 24.0546 12.9347 22.6098 13.1685 21.1845C13.3607 20.0118 13.4732 18.8635 13.6024 17.6812C13.6208 17.5129 13.6437 17.134 13.6437 17.134H16.5929L16.5927 17.1337Z" fill="#666666"/>
<path d="M22.2414 27.1079H18.7743C18.7991 26.9966 18.8042 26.8809 18.8241 26.7684C19.2698 24.2204 19.8064 21.6504 20.2925 19.0935C20.4064 18.4939 20.4838 17.9645 20.6008 17.3703L20.6421 17.1347C20.6666 17.1347 24.0693 17.1338 24.0693 17.1338C24.0693 17.1338 23.6986 19.3696 23.5292 20.2699L22.2414 27.1079Z" fill="#666666"/>
<path d="M7.33499 23.0295C7.09984 22.992 6.85525 23.0054 6.61586 22.9823C3.47445 22.6775 1.06538 20.5011 0 17.6064C1.64205 17.6241 3.27915 18.0537 4.62025 19.0118C5.94814 19.9604 6.94983 21.4421 7.33499 23.0295Z" fill="#666666"/>
<path d="M24.4456 13.3504C24.9284 14.0159 24.7465 15.1496 24.0866 15.6952C23.054 16.549 21.2256 16.1885 21.111 14.6912C20.9735 12.8946 23.3931 11.9003 24.4453 13.3504H24.4456Z" fill="#666666"/>
<path d="M5.49555 24.0424C4.7066 24.5819 3.81435 24.8601 2.85393 24.8676C2.02842 24.8742 1.15173 24.675 0.425049 24.2899C1.0772 23.6589 1.92865 23.1527 2.82586 22.965C3.92284 22.7356 5.13445 22.9452 6.0852 23.5359C6.09983 23.5986 5.57952 23.9848 5.49555 24.0424Z" fill="#B2B2B2"/>
<path d="M5.4954 24.0422C6.00981 24.1481 6.553 24.2509 6.98108 24.5732C6.98721 24.6013 6.73885 24.7965 6.69593 24.8295C5.47842 25.768 3.91797 25.8102 2.5474 25.1736C2.5132 25.1269 2.82783 24.9295 2.85401 24.8673C3.81443 24.8597 4.70669 24.5815 5.49564 24.042L5.4954 24.0422Z" fill="#6F6F6F"/>
</svg>
