<svg width="59" height="40" viewBox="0 0 59 40" fill="none" xmlns="http://www.w3.org/2000/svg">
<g clip-path="url(#clip0_13749_16213)">
<path d="M9.72638 19.1793C11.2149 19.1793 12.4215 17.9727 12.4215 16.4842C12.4215 14.9957 11.2149 13.7891 9.72638 13.7891C8.2379 13.7891 7.03125 14.9957 7.03125 16.4842C7.03125 17.9727 8.2379 19.1793 9.72638 19.1793Z" fill="#666666"/>
<path d="M5.39025 16.4842C5.39025 17.9727 4.18362 19.1793 2.69513 19.1793C1.20665 19.1793 0 17.9727 0 16.4842C0 14.9957 1.20665 13.7891 2.69513 13.7891C4.18362 13.7891 5.39025 14.9957 5.39025 16.4842Z" fill="#666666"/>
<path d="M5.39025 23.5145C5.39025 25.003 4.18362 26.2096 2.69513 26.2096C1.20665 26.2096 0 25.003 0 23.5145C0 22.026 1.20665 20.8193 2.69513 20.8193C4.18362 20.8193 5.39025 22.026 5.39025 23.5145Z" fill="#666666"/>
<path d="M12.4209 23.5145C12.4209 25.003 11.2143 26.2096 9.7258 26.2096C8.23731 26.2096 7.03064 25.003 7.03064 23.5145C7.03064 22.026 8.23731 20.8193 9.7258 20.8193C11.2143 20.8193 12.4209 22.026 12.4209 23.5145Z" fill="#666666"/>
<path d="M16.5614 24.0192V15.9805H18.7727V24.0192H16.5614ZM18.3636 24.0192V22.0999H21.854V24.0192H18.3636Z" fill="#666666"/>
<path fill-rule="evenodd" clip-rule="evenodd" d="M26.2601 24.1399C23.9895 24.1399 22.1488 22.2862 22.1488 19.9996C22.1488 17.713 23.9895 15.8594 26.2601 15.8594C28.5308 15.8594 30.3715 17.713 30.3715 19.9996C30.3715 22.2862 28.5308 24.1399 26.2601 24.1399ZM26.2599 22.0215C25.151 22.0215 24.2521 21.1163 24.2521 19.9995C24.2521 18.8829 25.151 17.9776 26.2599 17.9776C27.3689 17.9776 28.2678 18.8829 28.2678 19.9995C28.2678 21.1163 27.3689 22.0215 26.2599 22.0215Z" fill="#666666"/>
<path d="M35.2702 24.1398C34.6716 24.1398 34.1133 24.0386 33.5951 23.8361C33.0842 23.6261 32.6353 23.3336 32.2485 22.9585C31.8616 22.5835 31.5587 22.1447 31.3397 21.6422C31.128 21.1322 31.0222 20.5809 31.0222 19.9884C31.0222 19.3883 31.128 18.837 31.3397 18.3345C31.5587 17.832 31.8579 17.397 32.2375 17.0294C32.6244 16.6619 33.0732 16.3769 33.5842 16.1744C34.0951 15.9644 34.6498 15.8594 35.2484 15.8594C35.8543 15.8594 36.4088 15.9569 36.9125 16.1519C37.4163 16.3469 37.8541 16.6169 38.2264 16.9619L36.77 18.4695C36.5951 18.2745 36.3798 18.1208 36.1241 18.0083C35.8761 17.8957 35.5842 17.8395 35.2484 17.8395C34.9562 17.8395 34.6864 17.8883 34.4381 17.9858C34.1973 18.0833 33.9893 18.2258 33.8141 18.4133C33.6389 18.6008 33.5002 18.8296 33.3981 19.0996C33.3031 19.3621 33.2557 19.6584 33.2557 19.9884C33.2557 20.3259 33.3031 20.6296 33.3981 20.8997C33.5002 21.1622 33.6389 21.3872 33.8141 21.5747C33.9893 21.7622 34.1973 21.9085 34.4381 22.0135C34.6864 22.111 34.9562 22.1597 35.2484 22.1597C35.5769 22.1597 35.8688 22.1072 36.1241 22.0022C36.387 21.8972 36.6134 21.7435 36.8031 21.5409L38.2702 23.0485C37.8834 23.3936 37.449 23.6636 36.9674 23.8586C36.4854 24.0461 35.9199 24.1398 35.2702 24.1398Z" fill="#666666"/>
<path d="M38.2566 24.0036L41.2235 15.9932H43.4569L46.3913 24.0036H44.1138L41.9353 17.197H42.7233L40.49 24.0036H38.2566ZM40.1832 22.6535V20.8984H44.541V22.6535H40.1832Z" fill="#666666"/>
<path d="M47.016 24.0036V15.9932H49.2055V24.0036H47.016ZM48.8005 24.0036V22.091H52.2566V24.0036H48.8005Z" fill="#666666"/>
<path d="M55.7484 24.1399C55.0838 24.1399 54.5038 24.0423 54.0073 23.8473C53.5184 23.6448 53.0658 23.3261 52.6497 22.891L54.0184 21.4847C54.303 21.7622 54.6022 21.976 54.9162 22.126C55.2301 22.2685 55.5658 22.3397 55.9233 22.3397C56.2228 22.3397 56.4488 22.2947 56.6023 22.2048C56.7555 22.1073 56.8321 21.976 56.8321 21.811C56.8321 21.6459 56.7665 21.5109 56.6351 21.4059C56.5036 21.2934 56.3284 21.1959 56.1096 21.1134C55.8978 21.0234 55.6607 20.9334 55.3978 20.8434C55.1425 20.7534 54.8868 20.6446 54.6315 20.5171C54.3758 20.3896 54.1388 20.2359 53.9197 20.0559C53.7082 19.8684 53.5367 19.6396 53.4053 19.3696C53.2738 19.0921 53.2083 18.7545 53.2083 18.357C53.2083 17.8395 53.3287 17.3932 53.5695 17.0182C53.8103 16.6432 54.1498 16.3582 54.5877 16.1631C55.0255 15.9606 55.5403 15.8594 56.1313 15.8594C56.7155 15.8594 57.2555 15.9569 57.7519 16.1519C58.2553 16.3394 58.6715 16.6094 58.9999 16.9619L57.6205 18.3683C57.3797 18.1283 57.1388 17.952 56.8977 17.8395C56.6568 17.7195 56.3943 17.6595 56.1096 17.6595C55.8833 17.6595 55.7007 17.697 55.562 17.772C55.4306 17.847 55.365 17.9595 55.365 18.1095C55.365 18.267 55.4306 18.3983 55.562 18.5033C55.6935 18.6008 55.865 18.6908 56.0768 18.7733C56.2956 18.8558 56.533 18.9421 56.7883 19.0321C57.0512 19.1221 57.3103 19.2308 57.5656 19.3583C57.821 19.4783 58.0545 19.6358 58.2664 19.8309C58.4855 20.0184 58.6604 20.2546 58.7919 20.5396C58.9233 20.8247 58.9889 21.1697 58.9889 21.5747C58.9889 22.3922 58.7042 23.026 58.1349 23.4761C57.5729 23.9186 56.7772 24.1399 55.7484 24.1399Z" fill="#666666"/>
</g>
<defs>
<clipPath id="clip0_13749_16213">
<rect width="59" height="12.4211" fill="white" transform="translate(0 13.7891)"/>
</clipPath>
</defs>
</svg>
