<svg xmlns="http://www.w3.org/2000/svg" width="86" height="40" fill="none" viewBox="0 0 86 40"><g clip-path="url(#clip0_13749_16243)"><path fill="#666" d="M17.7914 10.7334C15.7397 10.7334 14.0772 12.4191 14.0772 14.4979V18.9165L16.7028 21.5776L14.0772 24.2388V24.2491C14.0772 26.3286 15.7404 28.0136 17.7914 28.0136C19.8431 28.0136 21.5057 26.3279 21.5057 24.2491V14.4979C21.5063 12.4191 19.8431 10.7334 17.7914 10.7334Z"/><path fill="#666" d="M5.75234 10.4785L0.49964 15.8022L3.72242 19.0685C3.95827 19.0291 4.19889 19.0035 4.44564 19.0035C6.90022 19.0035 8.8906 21.0208 8.8906 23.5086C8.8906 23.7586 8.86538 24.0025 8.82652 24.2415L11.4501 26.9006L14.0772 24.2381V18.9158L5.75234 10.4785Z"/><path fill="#666" d="M3.72174 19.0692C1.61139 19.4201 0 21.2716 0 23.5092C0 25.997 1.99038 28.0142 4.44496 28.0142C6.65278 28.0142 8.47957 26.3811 8.82584 24.2422L3.72174 19.0692Z"/><path fill="#666" d="M27.05 27.0583H28.3711V22.0304H27.1094V21.5205H29.232L32.3177 26.4704V22.0304H30.8263V21.5205H34.1588V22.0304H32.8378V27.5682H32.071L28.9 22.4538V27.0583H30.3914V27.5682H27.05V27.0583Z"/><path fill="#666" d="M33.484 25.3655C33.484 23.9748 34.4642 23.0332 35.5978 23.0332C36.7231 23.0332 37.7115 23.9748 37.7115 25.3655C37.7115 26.7479 36.7225 27.6978 35.5978 27.6978C34.4642 27.6978 33.484 26.7479 33.484 25.3655ZM36.8254 25.4954V25.2363C36.8254 23.9921 36.3312 23.552 35.5978 23.552C34.865 23.552 34.3701 23.9928 34.3701 25.2363V25.4954C34.3701 26.7479 34.8643 27.1797 35.5978 27.1797C36.3312 27.1797 36.8254 26.7389 36.8254 25.4954Z"/><path fill="#666" d="M37.7708 27.0585H38.7257V23.6291H37.6855V23.1193C38.2568 23.1193 38.7339 23.102 39.3985 23.0585H39.4926L39.4074 24.8291H39.4333C39.6125 23.7321 40.0726 23.0322 40.8313 23.0322C41.4277 23.0322 41.8204 23.4467 41.8204 24.0346C41.8204 24.389 41.6752 24.5963 41.3855 24.5963C41.1551 24.5963 40.9765 24.4664 40.9765 24.2246C40.9765 24.1466 40.9935 24.0429 40.9935 23.9483C40.9935 23.7238 40.8483 23.5593 40.5846 23.5593C39.86 23.5593 39.5021 24.7517 39.5021 25.6416V27.0585H40.6527V27.5683H37.7714V27.0585H37.7708Z"/><path fill="#666" d="M45.9198 25.1668L45.0159 27.5682H44.2661L42.9792 23.629H42.0842V23.1191H47.0452V23.629H46.1243L47.1986 26.8255L48.2217 23.629H47.3526V23.1191H49.6627V23.629H48.7677L47.4808 27.5682H46.7309L45.9198 25.1668ZM44.7774 26.8248L45.6724 24.4407L45.3997 23.629H43.7549L44.7774 26.8248Z"/><path fill="#666" d="M49.8073 26.5234C49.8073 25.9189 50.174 25.6425 50.7452 25.409L51.7172 25.0028C52.1862 24.8128 52.3566 24.6311 52.3566 24.2947V24.2339C52.3566 23.8021 52.0751 23.5258 51.5046 23.5258C50.9252 23.5258 50.5326 23.8802 50.5326 24.3721C50.5326 24.4847 50.5496 24.5192 50.5496 24.5966C50.5496 24.8301 50.3703 24.9683 50.1406 24.9683C49.8509 24.9683 49.7228 24.752 49.7228 24.4584C49.7228 23.6985 50.4215 23.0332 51.5557 23.0332C52.5107 23.0332 53.1071 23.4995 53.1071 24.1738C53.1071 24.9427 53.0642 25.9189 53.0642 26.6187C53.0642 26.9468 53.1923 27.094 53.4391 27.094C53.6606 27.094 53.7799 26.9468 53.7799 26.636V25.6253H54.1889V26.6795C54.1889 27.3358 53.848 27.6556 53.3027 27.6556C52.8426 27.6556 52.4166 27.4139 52.4166 26.7223V26.4287H52.3825C52.2033 27.2232 51.692 27.6556 51.0104 27.6556C50.3274 27.655 49.8073 27.2833 49.8073 26.5234ZM52.3559 25.59V25.0111C52.2789 25.0974 52.1685 25.1665 51.8106 25.3482L51.1713 25.6681C50.7623 25.8671 50.5748 26.0135 50.5748 26.437C50.5748 26.9814 50.8816 27.1886 51.2735 27.1886C51.964 27.1886 52.3559 26.4971 52.3559 25.59Z"/><path fill="#666" d="M54.1315 28.2683C54.1315 27.8192 54.336 27.4566 54.7027 27.4566C54.9331 27.4566 55.0606 27.621 55.0606 27.811C55.0606 28.0963 54.8131 28.1391 54.8131 28.4935C54.8131 28.727 54.9495 29.0206 55.4525 29.0206C55.8615 29.0206 56.0919 28.8134 56.2964 28.2344L56.4075 27.9146L54.9331 23.6383H54.0122V23.1201H56.629V23.6383H55.7252L56.7906 26.774L57.8648 23.6383H56.9357V23.1201H59.3222V23.6383H58.4013L56.8417 28.1992C56.5602 29.011 56.2453 29.5208 55.4355 29.5208C54.6257 29.5208 54.1315 28.9764 54.1315 28.2683Z"/><path fill="#666" d="M31.542 16.824H32.8459V11.7531H32.7519L31.0389 17.3338H30.6811L28.9681 11.7531H28.8659V16.824H30.1787V17.3338H27.0507V16.824H28.3376V11.796H27.0507V11.2861H29.6163L31.0144 15.8651L32.4295 11.2861H34.944V11.796H33.6482V16.824H34.944V17.3338H31.5433V16.824H31.542Z"/><path fill="#666" d="M35.0388 15.1219C35.0388 13.7657 36.0279 12.7979 37.1355 12.7979C38.278 12.7979 38.9255 13.8258 38.9766 15.0528H35.9249V15.2255C35.9249 16.3916 36.4021 16.9443 37.2207 16.9443C37.9535 16.9443 38.3972 16.478 38.4565 15.7346H38.9678C38.9248 16.5809 38.3373 17.4624 37.1948 17.4624C36.0279 17.4631 35.0388 16.487 35.0388 15.1219ZM38.295 14.6383C38.2691 14.1374 37.9964 13.2994 37.1185 13.2994C36.5473 13.2994 36.0361 13.6448 35.942 14.6383H38.295Z"/><path fill="#666" d="M39.6637 15.1313C39.6637 13.7489 40.4987 12.799 41.5477 12.799C42.1442 12.799 42.6302 13.1617 42.8265 13.7496H42.8524V11.5811H41.5396V11.054C42.2982 11.054 42.8265 11.0367 43.5429 10.9932H43.6281V16.8246H44.566V17.3344C44.0378 17.3344 43.5599 17.3607 42.9465 17.4035H42.8613L42.8872 16.4446H42.8531C42.6656 17.1272 42.1115 17.4643 41.498 17.4643C40.4905 17.4636 39.6637 16.5137 39.6637 15.1313ZM42.8947 15.2612V15.0021C42.8947 13.7752 42.4175 13.3434 41.727 13.3434C41.0283 13.3434 40.5505 13.7752 40.5505 15.0021V15.2612C40.5505 16.4964 41.0276 16.9199 41.727 16.9199C42.4168 16.9192 42.8947 16.4964 42.8947 15.2612Z"/><path fill="#666" d="M45.0963 16.8241H46.0424V13.4031H45.0111V12.8849H46.8181V16.8241H47.739V17.334H45.097V16.8241H45.0963ZM45.9654 10.9326H46.8174V11.9606H45.9654V10.9326Z"/><path fill="#666" d="M48.0315 16.289C48.0315 15.6845 48.3983 15.4082 48.9695 15.1746L49.9415 14.7684C50.4105 14.5784 50.5809 14.3968 50.5809 14.0603V13.9995C50.5809 13.5677 50.2994 13.2914 49.7288 13.2914C49.1494 13.2914 48.7568 13.6458 48.7568 14.1377C48.7568 14.2503 48.7738 14.2848 48.7738 14.3622C48.7738 14.5957 48.5946 14.7339 48.3649 14.7339C48.0752 14.7339 47.947 14.5177 47.947 14.224C47.947 13.4641 48.6457 12.7988 49.7799 12.7988C50.7349 12.7988 51.3314 13.2651 51.3314 13.9394C51.3314 14.7083 51.2884 15.6845 51.2884 16.3843C51.2884 16.7125 51.4166 16.8596 51.6633 16.8596C51.8848 16.8596 52.0041 16.7125 52.0041 16.4016V15.3902H52.4131V16.4444C52.4131 17.1007 52.0723 17.4206 51.527 17.4206C51.0669 17.4206 50.6409 17.1788 50.6409 16.4873V16.1936H50.6068C50.4275 16.9881 49.9163 17.4206 49.2346 17.4206C48.553 17.4206 48.0315 17.0489 48.0315 16.289ZM50.5802 15.3556V14.7767C50.5032 14.8631 50.3927 14.9322 50.0349 15.1139L49.3955 15.4337C48.9865 15.6327 48.7991 15.7791 48.7991 16.2026C48.7991 16.747 49.1058 16.9543 49.4977 16.9543C50.1876 16.9536 50.5802 16.2627 50.5802 15.3556Z"/><path fill="#666" d="M54.741 14.3193C54.741 12.3753 56.1131 11.1573 57.5963 11.1573C58.4232 11.1573 58.9855 11.5546 59.3863 12.2717H59.4204L59.7019 11.0537H60.145V14.034H59.6508C59.5145 12.4534 58.7988 11.719 57.6475 11.719C56.5821 11.719 55.6782 12.3235 55.6782 14.1031V14.5176C55.6782 15.9345 56.2576 16.9017 57.7327 16.9017C58.9944 16.9017 59.736 16.1763 59.736 14.6813H60.2302C60.2302 16.271 59.3781 17.4634 57.6986 17.4634C55.9597 17.4634 54.741 16.1418 54.741 14.3193Z"/><path fill="#666" d="M60.83 16.8246H61.785V11.5811H60.6766V11.054H61.0774C61.5546 11.054 61.9813 11.0367 62.4755 10.9932H62.5607V16.8246H63.4816V17.3344H60.83V16.8246Z"/><path fill="#666" d="M64.206 16.0896L64.2489 13.3946H63.2517V12.8848H65.0158L64.9728 15.9342C64.964 16.5822 65.3055 16.8758 65.7567 16.8758C66.6517 16.8758 66.9673 15.7352 66.9673 14.6989V13.3946H65.7315V12.8848H67.7348V16.824H68.6898V17.3338C68.1445 17.3338 67.6926 17.3511 67.0621 17.3946H66.9769L67.0621 15.624H67.0362C66.8658 16.6955 66.3627 17.4209 65.4848 17.4209C64.7084 17.4202 64.189 16.9359 64.206 16.0896Z"/><path fill="#666" d="M69.7512 16.4099L69.623 17.4206H69.1459V15.3646H69.6319C69.7171 16.3152 70.2713 16.9971 71.2174 16.9971C71.7456 16.9971 72.0865 16.7898 72.0865 16.3145C72.0865 15.8392 71.7879 15.7101 71.4048 15.5892C71.004 15.4683 70.5098 15.3819 70.2542 15.3128C69.6148 15.1401 69.2311 14.812 69.2311 14.1121C69.2311 13.3004 69.8023 12.7988 70.6032 12.7988C71.2085 12.7988 71.6434 13.1615 71.882 13.7232L72.0524 12.7988H72.5213V14.7256H72.0442C71.882 13.8448 71.4559 13.2486 70.6973 13.2486C70.1772 13.2486 69.8964 13.5422 69.8964 13.9394C69.8964 14.2848 70.0586 14.4403 70.4928 14.5702C70.8425 14.6828 71.473 14.812 71.8138 14.9246C72.3169 15.08 72.7429 15.3563 72.7429 16.1342C72.7429 17.0151 72.1717 17.4648 71.3537 17.4648C70.638 17.4634 70.0756 17.1097 69.7512 16.4099Z"/><path fill="#666" d="M73.9433 16.2365C73.9433 15.3294 74.0033 14.4313 74.0033 13.5243H72.955V12.9889H73.1083C74.0803 12.9889 74.37 12.5481 74.37 11.5892V11.2783H74.7368V12.8852H76.2623V13.5243H74.7368V16.1502C74.7368 16.66 75.0012 16.8583 75.3761 16.8583C75.7851 16.8583 76.0666 16.651 76.0666 16.1847V15.2686H76.4845V16.2192C76.4845 16.9882 75.9985 17.4635 75.2398 17.4635C74.4546 17.4628 73.9433 17.04 73.9433 16.2365Z"/><path fill="#666" d="M76.9553 15.1219C76.9553 13.7657 77.9444 12.7979 79.052 12.7979C80.1945 12.7979 80.842 13.8258 80.8931 15.0528H77.8415V15.2255C77.8415 16.3916 78.3186 16.9443 79.1372 16.9443C79.87 16.9443 80.3138 16.478 80.3731 15.7346H80.8843C80.8413 16.5809 80.2538 17.4624 79.1113 17.4624C77.9437 17.4631 76.9553 16.487 76.9553 15.1219ZM80.2108 14.6383C80.1849 14.1374 79.9123 13.2994 79.0343 13.2994C78.4631 13.2994 77.9519 13.6448 77.8578 14.6383H80.2108Z"/><path fill="#666" d="M80.9928 16.8241H81.9478V13.3947H80.9076V12.8849C81.4788 12.8849 81.956 12.8676 82.6205 12.8241H82.7146L82.6294 14.5947H82.6553C82.8346 13.4977 83.2947 12.7979 84.0534 12.7979C84.6498 12.7979 85.0424 13.2124 85.0424 13.8003C85.0424 14.1547 84.8972 14.3619 84.6075 14.3619C84.3771 14.3619 84.1985 14.232 84.1985 13.9903C84.1985 13.9122 84.2156 13.8086 84.2156 13.7139C84.2156 13.4894 84.0704 13.325 83.8066 13.325C83.082 13.325 82.7242 14.5174 82.7242 15.4072V16.8241H83.8748V17.3339H80.9935V16.8241H80.9928Z"/></g><defs><clipPath id="clip0_13749_16243"><rect width="85.042" height="40" fill="#fff"/></clipPath></defs></svg>