<svg width="71" height="40" viewBox="0 0 71 40" fill="none" xmlns="http://www.w3.org/2000/svg">
<g clip-path="url(#clip0_13658_13392)">
<path d="M5.84041 20.4476C5.67912 20.7689 5.21884 20.7689 5.05756 20.4476L4.67181 19.6794C4.64143 19.6189 4.62561 19.5521 4.62561 19.4845C4.62561 19.4168 4.64143 19.3501 4.67181 19.2896L5.05756 18.5212C5.21884 18.2 5.67912 18.2 5.84041 18.5212L6.22615 19.2896C6.25654 19.3501 6.27236 19.4168 6.27236 19.4845C6.27236 19.5521 6.25654 19.6189 6.22615 19.6794L5.84041 20.4476ZM5.84041 24.805C5.67912 25.1262 5.21884 25.1262 5.05756 24.805L4.67181 24.0367C4.64143 23.9762 4.62561 23.9094 4.62561 23.8418C4.62561 23.7741 4.64143 23.7074 4.67181 23.6468L5.05756 22.8785C5.21884 22.5572 5.67912 22.5572 5.84041 22.8785L6.22615 23.6468C6.25654 23.7074 6.27236 23.7741 6.27236 23.8418C6.27236 23.9094 6.25654 23.9762 6.22615 24.0367L5.84041 24.805Z" fill="#666666"/>
<path d="M1.07373 23.1513C1.07373 22.763 1.54511 22.5684 1.82078 22.8431L3.82671 24.8408C4.10246 25.1154 3.90718 25.5848 3.5173 25.5848H1.51137C1.39533 25.5848 1.28404 25.5389 1.20197 25.4572C1.1199 25.3755 1.07378 25.2647 1.07373 25.1491V23.1513ZM1.07373 21.047C1.07373 21.1627 1.11986 21.2736 1.20197 21.3552L5.32072 25.4572C5.40278 25.5389 5.51407 25.5849 5.63013 25.5849H7.89245C8.28232 25.5849 8.47761 25.1154 8.20185 24.8408L1.82087 18.4858C1.54511 18.2112 1.07373 18.4057 1.07373 18.794V21.0471V21.047ZM1.07373 16.6898C1.07373 16.8054 1.11986 16.9163 1.20197 16.998L9.69578 25.4572C9.77786 25.539 9.88918 25.5849 10.0053 25.5849H12.2675C12.6574 25.5849 12.8528 25.1154 12.577 24.8408L1.82087 14.1286C1.54511 13.854 1.07373 14.0484 1.07373 14.4367V16.6898ZM5.44887 16.6898C5.44887 16.8054 5.49501 16.9163 5.57711 16.998L13.4521 24.8408C13.7278 25.1154 14.1992 24.921 14.1992 24.5326V22.2796C14.1991 22.164 14.153 22.0531 14.0709 21.9714L6.19592 14.1285C5.92026 13.854 5.44887 14.0484 5.44887 14.4367V16.6898ZM10.5711 14.1286C10.2954 13.854 9.82402 14.0484 9.82402 14.4367V16.6898C9.82402 16.8054 9.87015 16.9163 9.95226 16.998L13.452 20.4835C13.7278 20.7582 14.1991 20.5637 14.1991 20.1753V17.9223C14.1991 17.8067 14.153 17.6958 14.0709 17.6141L10.5711 14.1286Z" fill="#666666"/>
<path d="M19.6846 23.2047L15.5651 19.1022C15.2894 18.8276 14.818 19.0221 14.818 19.4103V25.1491C14.818 25.2647 14.8641 25.3755 14.9462 25.4573C15.0282 25.539 15.1396 25.5849 15.2556 25.5849H21.6367C21.7528 25.5849 21.8641 25.539 21.9462 25.4573C22.0282 25.3755 22.0744 25.2647 22.0744 25.1491V24.6265C22.0744 24.3857 21.8776 24.1935 21.638 24.1624C20.8986 24.0666 20.2118 23.7298 19.6845 23.2047H19.6846ZM16.918 24.1906C16.7324 24.1905 16.5544 24.1171 16.4231 23.9863C16.2919 23.8556 16.2181 23.6783 16.218 23.4934C16.2181 23.3086 16.2919 23.1313 16.4231 23.0005C16.5544 22.8698 16.7324 22.7963 16.918 22.7962C17.1036 22.7963 17.2817 22.8698 17.4129 23.0005C17.5442 23.1312 17.618 23.3085 17.6181 23.4934C17.618 23.6783 17.5442 23.8556 17.4129 23.9863C17.2817 24.1171 17.1036 24.1906 16.918 24.1906Z" fill="#666666"/>
<path d="M1.07373 25.149C1.07373 25.2646 1.11984 25.3755 1.20191 25.4572C1.28399 25.539 1.3953 25.5849 1.51137 25.5849H3.5173C3.90718 25.5849 4.10246 25.1154 3.82671 24.8408L1.82087 22.8431C1.54511 22.5685 1.07373 22.763 1.07373 23.1513V25.149ZM5.44887 17.7418L1.82078 14.1286C1.54511 13.8539 1.07373 14.0484 1.07373 14.4367V16.6898C1.07373 16.8053 1.11986 16.9163 1.20197 16.9979L5.44887 21.2276V17.7418ZM1.82078 18.4858C1.54511 18.2112 1.07373 18.4057 1.07373 18.794V21.0471C1.07373 21.1626 1.11986 21.2735 1.20197 21.3552L5.44887 25.5849V22.0991L1.82078 18.4858Z" fill="#666666"/>
<path d="M9.824 17.9223C9.824 17.865 9.81268 17.8083 9.79068 17.7555C9.76867 17.7026 9.73642 17.6545 9.69576 17.6141L6.19599 14.1286C5.92023 13.8539 5.44885 14.0484 5.44885 14.4367V16.6898C5.44885 16.8053 5.49498 16.9163 5.57709 16.9979L9.824 21.2276V17.9223ZM5.44885 25.5849H7.89243C8.2823 25.5849 8.47759 25.1154 8.20183 24.8408L5.44885 22.0991V25.5849ZM5.44885 17.7418V21.0471C5.44885 21.1626 5.49498 21.2735 5.57709 21.3552L9.824 25.5849V22.2796C9.824 22.2223 9.81267 22.1656 9.79067 22.1127C9.76867 22.0599 9.73641 22.0118 9.69576 21.9713L5.44885 17.7418Z" fill="#666666"/>
<path d="M27.1792 23.8448H28.9769V20.8757H30.479C32.1288 20.8757 33.1871 19.9011 33.1871 18.3939C33.1871 16.8867 32.1289 15.9121 30.479 15.9121H27.1792V23.8447V23.8448ZM28.9769 19.3458V17.4419H30.2969C30.9796 17.4419 31.3893 17.8045 31.3893 18.3938C31.3893 18.9832 30.9796 19.3457 30.2969 19.3457H28.9769V19.3458ZM36.4397 23.9354C38.192 23.9354 39.4663 22.6889 39.4663 20.989C39.4663 19.2892 38.192 18.0426 36.4397 18.0426C34.6646 18.0426 33.4129 19.2892 33.4129 20.989C33.4129 22.6889 34.6646 23.9354 36.4397 23.9354ZM35.0742 20.989C35.0742 20.0824 35.6203 19.4591 36.4397 19.4591C37.2475 19.4591 37.7938 20.0824 37.7938 20.989C37.7938 21.8956 37.2475 22.5189 36.4397 22.5189C35.6203 22.5189 35.0742 21.8956 35.0742 20.989ZM42.3434 23.9354C43.6861 23.9354 44.5965 23.0968 44.5965 22.1109C44.5965 19.7992 41.5128 20.547 41.5128 19.6404C41.5128 19.3912 41.7745 19.2325 42.15 19.2325C42.5369 19.2325 43.0035 19.4705 43.1513 19.9918L44.494 19.4364C44.2324 18.6093 43.2651 18.0426 42.0932 18.0426C40.8301 18.0426 40.045 18.7905 40.045 19.6858C40.045 21.8502 43.0831 21.2496 43.0831 22.1449C43.0831 22.4622 42.7873 22.6775 42.3434 22.6775C41.7063 22.6775 41.2625 22.2356 41.126 21.703L39.7832 22.2242C40.0791 23.0855 40.9439 23.9354 42.3434 23.9354ZM48.9214 23.7881L48.8077 22.3489C48.6143 22.4509 48.3639 22.4849 48.1591 22.4849C47.7495 22.4849 47.4764 22.1903 47.4764 21.6803V19.5158H48.8646V18.1332H47.4764V16.4788H45.8037V18.1332H44.8934V19.5158H45.8037V21.8956C45.8037 23.2781 46.7482 23.9354 47.9884 23.9354C48.3298 23.9354 48.6484 23.8788 48.9215 23.7881H48.9214ZM54.7536 15.9121V18.9945H51.5902V15.9122H49.7923V23.8447H51.5902V20.5244H54.7536V23.8447H56.5628V15.9121H54.7536ZM60.5532 23.9354C62.3055 23.9354 63.5799 22.6889 63.5799 20.989C63.5799 19.2892 62.3056 18.0426 60.5532 18.0426C58.7781 18.0426 57.5264 19.2892 57.5264 20.989C57.5264 22.6889 58.7781 23.9354 60.5532 23.9354ZM59.1878 20.989C59.1878 20.0824 59.734 19.4591 60.5533 19.4591C61.3612 19.4591 61.9073 20.0824 61.9073 20.989C61.9073 21.8956 61.3612 22.5189 60.5533 22.5189C59.734 22.5189 59.1878 21.8956 59.1878 20.989ZM66.8085 23.6634C67.4344 23.6634 67.9919 23.4481 68.2878 23.0741V23.6181C68.2878 24.2527 67.7757 24.6947 66.9906 24.6947C66.433 24.6947 65.9437 24.4227 65.864 23.958L64.3394 24.1961C64.5442 25.2726 65.6479 25.9979 66.9906 25.9979C68.7543 25.9979 69.9263 24.9666 69.9263 23.4368V18.1332H68.2765V18.6205C67.9692 18.2693 67.4458 18.0426 66.7744 18.0426C65.1814 18.0426 64.1801 19.1305 64.1801 20.853C64.1801 22.5755 65.1814 23.6634 66.8085 23.6634ZM65.8072 20.853C65.8072 20.0031 66.3078 19.4591 67.0815 19.4591C67.8667 19.4591 68.3673 20.0031 68.3673 20.853C68.3673 21.703 67.8667 22.2469 67.0815 22.2469C66.3078 22.2469 65.8072 21.703 65.8072 20.853Z" fill="#666666"/>
</g>
<defs>
<clipPath id="clip0_13658_13392">
<rect width="68.8525" height="12" fill="white" transform="translate(1.07373 14)"/>
</clipPath>
</defs>
</svg>
