<svg xmlns="http://www.w3.org/2000/svg" width="59" height="40" fill="none" viewBox="0 0 59 40"><g clip-path="url(#clip0_13802_23001)"><mask id="mask0_13802_23001" width="59" height="12" x="0" y="14" maskUnits="userSpaceOnUse" style="mask-type:luminance"><path fill="#fff" d="M59 14.5234H0V25.477H59V14.5234Z"/></mask><g mask="url(#mask0_13802_23001)"><path fill="#666" d="M11.6293 21.1229L13.5897 20.8215C13.7498 21.8262 14.4166 22.3286 15.5902 22.3286C16.4704 22.3062 16.9371 22.016 16.9905 21.4578C16.9905 21.0336 16.6837 20.721 16.0703 20.5201C15.4301 20.3415 14.8433 20.1963 14.3099 20.0847C12.6828 19.7945 11.896 19.0912 11.9493 17.9748C12.1094 16.7245 13.1896 16.0547 15.1901 15.9654C17.2705 15.943 18.4975 16.6352 18.8709 18.0418L16.9105 18.3767C16.7771 17.6399 16.2303 17.2715 15.2701 17.2715C14.4966 17.2938 14.0832 17.5283 14.0298 17.9748C13.9765 18.399 14.4966 18.7116 15.5902 18.9125C16.3637 19.0465 17.0572 19.2474 17.6706 19.5154C18.6042 19.9172 19.0843 20.5424 19.111 21.3908C19.0309 22.8198 17.8707 23.5566 15.6302 23.6012C13.363 23.6235 12.0294 22.7974 11.6293 21.1229Z"/><path fill="#666" d="M22.0317 23.4344H20.0713V15.5977H22.0317V23.4344Z"/><path fill="#666" d="M25.3123 17.4385H23.3119V16.0654H25.3123V17.4385ZM25.3123 23.4668H23.3119V18.2088H25.3123V23.4668Z"/><path fill="#666" d="M28.5131 22.7976V25.4769H26.5927V18.176H28.5131V18.9797C28.9932 18.3769 29.7134 18.0643 30.6736 18.042C32.2473 18.109 33.0741 18.9909 33.1541 20.6877C33.1541 22.6079 32.2339 23.5679 30.3935 23.5679C29.5667 23.5456 28.9398 23.2888 28.5131 22.7976ZM28.5131 20.6877V21.0896C28.5398 21.9157 28.9665 22.3399 29.7934 22.3623C30.7002 22.3623 31.1537 21.8153 31.1537 20.7212C31.127 19.8058 30.7002 19.337 29.8734 19.3146C28.9665 19.3146 28.5131 19.7723 28.5131 20.6877Z"/><path fill="#666" d="M36.1149 23.4344H34.1544V15.5977H36.1149V23.4344Z"/><path fill="#666" d="M44.0366 23.4341H42.1962C42.0362 23.1885 41.9428 22.9206 41.9162 22.6304C41.3294 23.2332 40.4225 23.5458 39.1955 23.5681C37.9153 23.5011 37.2351 22.9988 37.1551 22.061C37.1284 21.1233 37.9019 20.5539 39.4756 20.353C40.4092 20.219 41.1827 20.0516 41.7961 19.8506C41.8495 19.3595 41.4361 19.125 40.5559 19.1473C39.8624 19.1473 39.3956 19.3706 39.1555 19.8172L37.3551 19.6162C37.7019 18.5445 38.7554 18.0198 40.5158 18.0422C42.7297 17.9752 43.7966 18.7343 43.7166 20.3195V22.3289C43.7166 22.8201 43.8233 23.1885 44.0366 23.4341ZM41.9562 21.0563V20.7549C41.5561 20.9558 40.996 21.1121 40.2758 21.2238C39.4223 21.38 38.9955 21.6256 38.9955 21.9605C38.9688 22.3178 39.3022 22.4852 39.9957 22.4629C41.196 22.3959 41.8495 21.9271 41.9562 21.0563Z"/><path fill="#666" d="M51.0783 23.4345H49.1178V20.4873C49.1445 19.6835 48.7577 19.2928 47.9576 19.3151C47.1574 19.3598 46.744 19.7728 46.7173 20.5543V23.4345H44.7568V18.1765H46.7173V18.9802C47.2241 18.3997 47.9042 18.0871 48.7577 18.0425C50.3314 18.0202 51.1049 18.7458 51.0783 20.2194V23.4345Z"/><path fill="#666" d="M58.88 20.8887V21.2906H53.9589C54.0389 22.005 54.5723 22.3958 55.5592 22.4627C56.3061 22.4627 56.7595 22.2506 56.9195 21.8264L59 22.0274C58.4932 23.0544 57.3596 23.5679 55.5992 23.5679C53.3054 23.5009 52.1051 22.619 51.9984 20.9222C52.1051 19.069 53.2254 18.109 55.3592 18.042C57.6797 18.0643 58.8533 19.0132 58.88 20.8887ZM53.9188 20.2859H56.9995C56.9195 19.5937 56.4127 19.2142 55.4792 19.1472C54.519 19.1918 53.9989 19.5714 53.9188 20.2859Z"/><path fill="#666" d="M0.000244141 15.9741C0.000243802 15.0845 0.716749 14.3633 1.60061 14.3633H7.42692C8.484 14.3633 8.89747 15.7444 8.01637 16.3323L6.8175 17.1321C4.75287 18.5096 3.22874 20.5672 2.50652 22.952L2.0877 24.335C1.73016 25.5156 0.000250363 25.2561 0.000249423 24.0219L0.000244141 15.9741Z"/></g></g><defs><clipPath id="clip0_13802_23001"><rect width="59" height="10.954" fill="#fff" transform="translate(0 14.5234)"/></clipPath></defs></svg>