<svg xmlns="http://www.w3.org/2000/svg" width="67" height="40" fill="none" viewBox="0 0 67 40"><g clip-path="url(#clip0_13675_13228)"><path fill="#666" d="M4.48413 14.0741C2.3644 14.0741 0.289165 15.4103 0.289165 17.6899C0.289165 20.7397 4.78565 21.0832 4.78565 22.2242C4.78565 22.4854 4.68679 22.6683 4.20073 22.6683C3.16516 22.6683 2.76643 21.4374 1.74076 21.4745C1.11465 21.4968 0 22.623 0 23.3281C0 24.4625 1.3585 25.9273 3.86542 25.9273C6.37235 25.9273 8.32401 24.8728 8.32401 22.2703C8.32401 18.8053 3.87778 18.774 3.87778 17.6116C3.87778 17.3916 4.09197 17.1544 4.43717 17.1544C5.32361 17.1544 5.37552 17.7022 6.62196 17.9971C7.20113 18.1347 8.14027 17.4345 8.37671 16.3198C8.62633 15.1442 6.92101 14.0732 4.48413 14.0732V14.0741Z"/><path fill="#666" d="M15.833 14.0732C14.7578 14.0732 14.1078 14.6046 14.1078 15.7143C14.1078 18.6949 14.2998 19.8128 14.2998 21.4333C14.2998 21.9046 14.2751 22.5092 13.5979 22.5092C12.9207 22.5092 12.896 21.9046 12.896 21.4333C12.896 19.8128 13.0879 18.6949 13.0879 15.7143C13.0879 14.6046 12.3877 14.0732 11.2665 14.0732C9.70527 14.0732 8.98193 14.7545 8.98193 19.1266C8.98193 23.4987 10.5044 25.9265 13.5987 25.9265C16.693 25.9265 18.2155 23.4987 18.2155 19.1266C18.2155 14.7545 17.5976 14.0732 15.8346 14.0732H15.833Z"/><path fill="#666" d="M29.8359 14.0732C26.6946 14.0732 27.2622 18.0548 25.9251 18.0548C24.5872 18.0548 25.1549 14.0732 22.0144 14.0732C19.9392 14.0732 18.967 16.8949 18.967 20.6251C18.967 25.237 19.1483 25.9273 21.3529 25.9273C22.5557 25.9273 22.9511 25.0063 22.9511 24.2772C22.9511 22.2984 22.6809 21.6591 22.6809 20.8978C22.6809 20.5411 22.8185 20.3113 23.1315 20.3113C24.3541 20.3113 23.6102 24.3052 25.9251 24.3052V24.2995L25.9268 24.3052C28.2418 24.3052 27.4978 20.3113 28.7204 20.3113C29.0335 20.3113 29.171 20.5411 29.171 20.8978C29.171 21.6591 28.9008 22.2984 28.9008 24.2772C28.9008 25.0063 29.2963 25.9273 30.4991 25.9273C32.7036 25.9273 32.8849 25.237 32.8849 20.6251C32.8849 16.8957 31.9128 14.0732 29.8375 14.0732H29.8359Z"/><path fill="#666" d="M44.4921 14.0732C41.3508 14.0732 41.9185 18.0548 40.5814 18.0548C39.2435 18.0548 39.8111 14.0732 36.6706 14.0732C34.5954 14.0732 33.6233 16.8949 33.6233 20.6251C33.6233 25.237 33.8046 25.9273 36.0091 25.9273C37.2119 25.9273 37.6073 25.0063 37.6073 24.2772C37.6073 22.2984 37.3371 21.6591 37.3371 20.8978C37.3371 20.5411 37.4747 20.3113 37.7878 20.3113C39.0103 20.3113 38.2664 24.3052 40.5814 24.3052V24.2995L40.583 24.3052C42.8981 24.3052 42.1542 20.3113 43.3764 20.3113C43.6899 20.3113 43.8271 20.5411 43.8271 20.8978C43.8271 21.6591 43.5569 22.2984 43.5569 24.2772C43.5569 25.0063 43.9525 25.9273 45.1551 25.9273C47.3601 25.9273 47.5409 25.237 47.5409 20.6251C47.5409 16.8957 46.5691 14.0732 44.4938 14.0732H44.4921Z"/><path fill="#666" d="M54.9074 22.4409C53.8752 22.4409 53.3717 22.6567 52.1016 22.6567C51.1944 22.6567 51.116 22.2522 51.116 22.0693C51.116 21.7497 51.3862 21.5858 52.0626 21.5858C53.8727 21.5858 55.2272 22.0471 55.2272 20.0188C55.2272 17.9905 53.6331 18.503 52.3542 18.503C51.4374 18.503 51.116 18.3728 51.116 17.9115C51.116 17.4501 51.3904 17.3727 52.3257 17.3727C53.3084 17.3727 53.6394 17.4921 54.5978 17.4921C55.5557 17.4921 56.1389 17.0687 56.1389 15.9392C56.1389 14.7167 55.9497 14.0732 52.9534 14.0732C49.3268 14.0732 48.2913 14.3599 48.2913 19.8565C48.2913 25.3531 48.6538 25.9265 51.995 25.9265C55.9082 25.9265 56.3328 25.1167 56.3328 23.9699C56.3328 22.8231 55.8104 22.4392 54.9074 22.4392V22.4409Z"/><path fill="#666" d="M64.5491 20.5799C64.5491 19.7181 65.9325 19.8541 65.9325 17.5811C65.9325 15.3082 64.5491 14.0732 60.9847 14.0732C58.4893 14.0732 56.9075 14.3187 56.9075 19.4875C56.9075 24.6561 57.1974 25.9265 59.0461 25.9265C60.8949 25.9265 60.6947 24.3225 60.6947 23.4534C60.6947 22.5842 60.4212 21.4951 61.1097 21.4482C61.7345 21.4053 61.8176 21.9573 62.0735 22.8009C62.4898 24.1693 63.2887 25.9265 64.9952 25.9265C66.2011 25.9265 66.5099 25.0796 66.5099 24.278C66.5099 22.9508 64.5491 21.3625 64.5491 20.579V20.5799ZM61.3602 19.1167C60.2726 19.1011 60.2886 18.5582 60.2886 17.937C60.2886 17.3158 60.2571 16.7565 61.2671 16.7565C62.0442 16.7565 62.6652 17.0983 62.6652 17.8126C62.6652 18.5269 62.4478 19.1324 61.3611 19.1167H61.3602Z"/></g><defs><clipPath id="clip0_13675_13228"><rect width="66.51" height="40" fill="#fff"/></clipPath></defs></svg>