<svg xmlns="http://www.w3.org/2000/svg" width="104" height="40" fill="none" viewBox="0 0 104 40"><g clip-path="url(#clip0_13658_13839)"><path fill="#666" d="M96.3762 26.3932C96.2295 26.3932 96.1558 26.3195 96.1558 26.172V17.1318C96.1558 16.9843 96.2295 16.9106 96.3762 16.9106H97.8027C97.9494 16.9106 98.0231 16.9843 98.0231 17.1318V17.8295C98.0231 17.9545 98.0573 18.0174 98.1248 18.0174C98.1822 18.0174 98.2327 17.9832 98.2777 17.9149C98.6518 17.4834 99.0313 17.1776 99.4155 16.9952C99.8206 16.812 100.261 16.7189 100.706 16.7228C102.121 16.7228 103.077 17.2335 103.575 18.2556C103.768 18.6297 103.887 19.0162 103.932 19.4128C103.977 19.7993 104 20.2642 104 20.8091V26.172C104 26.3195 103.926 26.3932 103.78 26.3932H102.353C102.206 26.3932 102.132 26.3195 102.132 26.172V20.792C102.132 19.8273 101.968 19.1575 101.64 18.7834C101.334 18.4652 100.892 18.3061 100.316 18.3061C99.625 18.3061 99.0926 18.5218 98.7193 18.9534C98.4709 19.2258 98.2893 19.5944 98.176 20.0601C98.0743 20.525 98.0231 21.1552 98.0231 21.9499V26.172C98.0231 26.3195 97.9494 26.3932 97.8027 26.3932H96.3762ZM90.2378 26.5803C89.3205 26.5803 88.5001 26.3707 87.7752 25.9501C87.0628 25.5302 86.5024 24.9458 86.0949 24.1968C85.6983 23.4362 85.5004 22.5739 85.5004 21.6092C85.5004 20.667 85.6983 19.8273 86.0949 19.0892C86.5024 18.3519 87.0628 17.7729 87.7752 17.353C88.5001 16.9331 89.3205 16.7228 90.2378 16.7228C91.1544 16.7228 91.9694 16.9331 92.6826 17.353C93.3959 17.7605 93.9787 18.3627 94.3637 19.0892C94.7712 19.8273 94.9753 20.667 94.9753 21.6092C94.9753 22.5623 94.7774 23.4191 94.3808 24.1797C93.9966 24.9163 93.4145 25.5294 92.6997 25.9501C91.9865 26.3707 91.1661 26.5803 90.2378 26.5803ZM90.2378 24.9458C90.7811 24.9458 91.2678 24.8045 91.6977 24.5205C92.1285 24.2364 92.4622 23.839 92.6997 23.3283C92.9488 22.8176 93.073 22.2449 93.073 21.6092C93.073 20.9961 92.9488 20.4458 92.6997 19.9576C92.4622 19.4586 92.1285 19.0667 91.6977 18.7834C91.2678 18.4993 90.7811 18.3573 90.2378 18.3573C89.6946 18.3573 89.2079 18.4993 88.7772 18.7834C88.3472 19.0558 88.0081 19.4415 87.7589 19.9406C87.5207 20.4288 87.4019 20.9845 87.4019 21.6092C87.4019 22.2557 87.5207 22.8347 87.7589 23.3454C88.0081 23.8452 88.3472 24.2364 88.7772 24.5205C89.2079 24.8045 89.6946 24.9458 90.2378 24.9458ZM82.6785 26.3932C82.5318 26.3932 82.458 26.3195 82.458 26.172V17.1318C82.458 16.9843 82.5318 16.9106 82.6785 16.9106H84.105C84.2516 16.9106 84.3254 16.9843 84.3254 17.1318V26.172C84.3254 26.3195 84.2516 26.3932 84.105 26.3932H82.6785ZM82.6785 15.5314C82.5318 15.5314 82.458 15.4142 82.458 15.3537V13.5811C82.458 13.5205 82.5318 13.4033 82.6785 13.4033H84.105C84.2516 13.4033 84.3254 13.5205 84.3254 13.5811V15.3537C84.3254 15.4142 84.2516 15.5314 84.105 15.5314H82.6785ZM79.8076 26.3932C79.0726 26.3932 78.5177 26.2225 78.1436 25.8825C77.7703 25.5418 77.5832 24.9683 77.5832 24.1627V18.698C77.5832 18.5505 77.5103 18.4768 77.3628 18.4768H76.3438C76.1971 18.4768 76.1233 18.4031 76.1233 18.2556V17.1318C76.1233 16.9843 76.1971 16.9106 76.3438 16.9106H77.3628C77.5103 16.9106 77.5832 16.8369 77.5832 16.6894V13.6245C77.5832 13.4771 77.657 13.4033 77.8044 13.4033H79.2309C79.3776 13.4033 79.4513 13.4771 79.4513 13.6245V16.6894C79.4513 16.8369 79.5251 16.9106 79.6718 16.9106H81.1999C81.3474 16.9106 81.4211 16.9843 81.4211 17.1318V18.2556C81.4211 18.4031 81.3474 18.4768 81.1999 18.4768H79.6718C79.5251 18.4768 79.4513 18.5505 79.4513 18.698V23.6691C79.4513 24.0664 79.508 24.3559 79.6213 24.5375C79.7346 24.7191 79.9946 24.8099 80.4021 24.8099H81.1829C81.3303 24.8099 81.4041 24.8837 81.4041 25.0311V26.172C81.4041 26.3195 81.3303 26.3932 81.1829 26.3932H79.8076ZM70.2823 26.5803C69.354 26.5803 68.6074 26.3366 68.0408 25.8484C67.475 25.3493 67.1918 24.6734 67.1918 23.8227C67.1918 22.9488 67.5317 22.2619 68.2108 21.7621C68.7199 21.388 69.4503 21.1102 70.401 20.9278L73.2874 20.3667C73.3386 20.3581 73.386 20.3341 73.4232 20.2984C73.4682 20.2541 73.4876 20.1897 73.4744 20.1284C73.4178 19.5378 73.2486 19.1008 72.9653 18.8168C72.5912 18.4427 72.0937 18.2556 71.4705 18.2556C70.9955 18.2556 70.571 18.3798 70.1977 18.6297C69.8352 18.8796 69.5923 19.2203 69.4673 19.6511C69.4223 19.7877 69.3377 19.856 69.2128 19.856H67.8033C67.645 19.856 67.5767 19.7706 67.5992 19.6006C67.8033 18.6809 68.2675 17.9716 68.9916 17.4725C69.7165 16.9727 70.5485 16.7228 71.4876 16.7228C72.0425 16.7228 72.5633 16.8082 73.0499 16.9781C73.5482 17.1372 73.9665 17.3755 74.3064 17.6937C74.7597 18.1136 75.0422 18.6072 75.1555 19.1745C75.2805 19.7419 75.3426 20.3946 75.3426 21.1327V26.172C75.3426 26.3195 75.2688 26.3932 75.1214 26.3932H73.6949C73.5482 26.3932 73.4744 26.3195 73.4744 26.172V25.4394C73.4744 25.3152 73.4465 25.2523 73.3898 25.2523C73.3448 25.2523 73.299 25.2811 73.254 25.3377C73.0049 25.6443 72.7503 25.8771 72.4896 26.0354C71.9238 26.3987 71.188 26.5803 70.2823 26.5803ZM70.6556 25.0311C71.1539 25.0311 71.6063 24.9287 72.0146 24.7246C72.5353 24.4638 72.9087 24.1176 73.1345 23.6861C73.3619 23.2437 73.4861 22.6873 73.5086 22.0175C73.5086 21.9383 73.4861 21.8816 73.4403 21.8475C73.3953 21.8017 73.3386 21.7908 73.2703 21.8134L70.8426 22.2899C70.186 22.4265 69.711 22.6306 69.4161 22.903C69.1786 23.1413 69.0599 23.4308 69.0599 23.7715C69.0599 24.1681 69.2019 24.4809 69.4844 24.7075C69.7786 24.9233 70.1697 25.0311 70.6556 25.0311ZM53.1781 26.3932C53.0307 26.3932 52.957 26.3195 52.957 26.172V17.1318C52.957 16.9843 53.0307 16.9106 53.1781 16.9106H54.6039C54.7513 16.9106 54.8251 16.9843 54.8251 17.1318V17.8295C54.8251 17.8862 54.8359 17.932 54.8592 17.9661C54.8817 18.0003 54.9042 18.0174 54.9268 18.0174C54.9718 18.0174 55.023 17.9886 55.0796 17.932C55.4638 17.5005 55.8496 17.1939 56.2345 17.0123C56.6311 16.8198 57.0665 16.7205 57.5073 16.7228C58.0848 16.7228 58.5885 16.8423 59.0192 17.0806C59.4601 17.3188 59.7767 17.6596 59.97 18.1019C60.0033 18.1819 60.0429 18.2215 60.0887 18.2215C60.1337 18.2215 60.1787 18.1873 60.2245 18.119C60.802 17.1885 61.7069 16.7228 62.941 16.7228C63.9941 16.7228 64.7804 17.0239 65.3011 17.6254C65.8219 18.2269 66.0827 19.0837 66.0827 20.1959V26.172C66.0827 26.3195 66.0082 26.3932 65.8615 26.3932H64.435C64.2883 26.3932 64.2146 26.3195 64.2146 26.172V20.5025C64.2146 19.776 64.0671 19.2312 63.773 18.868C63.4788 18.4939 63.0597 18.3061 62.5164 18.3061C61.9615 18.3061 61.5152 18.4885 61.1753 18.8509C60.9036 19.1458 60.7112 19.5269 60.5979 19.9918C60.4962 20.4458 60.445 21.0302 60.445 21.7451V26.172C60.445 26.3195 60.3712 26.3932 60.2245 26.3932H58.8151C58.6676 26.3932 58.5947 26.3195 58.5947 26.172V20.5025C58.5947 19.7993 58.4418 19.2599 58.136 18.8851C57.8302 18.4993 57.4057 18.3061 56.8624 18.3061C56.5907 18.3061 56.3416 18.3573 56.115 18.4597C55.8915 18.5599 55.6936 18.712 55.5383 18.9021C55.2892 19.1745 55.1076 19.5323 54.995 19.9747C54.8817 20.4171 54.8251 21.0077 54.8251 21.7451V26.172C54.8251 26.3195 54.7513 26.3932 54.6039 26.3932H53.1781ZM38.5522 26.3932C38.4047 26.3932 38.331 26.3195 38.331 26.172V17.1318C38.331 16.9843 38.4047 16.9106 38.5522 16.9106H39.9787C40.1254 16.9106 40.1991 16.9843 40.1991 17.1318V17.8295C40.1991 17.8862 40.2107 17.932 40.2333 17.9661C40.2558 18.0003 40.2783 18.0174 40.3008 18.0174C40.3466 18.0174 40.397 17.9886 40.4537 17.932C40.8386 17.5005 41.2236 17.1939 41.6085 17.0123C42.0051 16.8198 42.4405 16.7205 42.8821 16.7228C43.4588 16.7228 43.9633 16.8423 44.3933 17.0806C44.8349 17.3188 45.1515 17.6596 45.344 18.1019C45.3782 18.1819 45.4177 18.2215 45.4627 18.2215C45.5085 18.2215 45.5536 18.1873 45.5986 18.119C46.176 17.1885 47.0817 16.7228 48.315 16.7228C49.3682 16.7228 50.1544 17.0239 50.6752 17.6254C51.1967 18.2269 51.4567 19.0837 51.4567 20.1959V26.172C51.4567 26.3195 51.383 26.3932 51.2355 26.3932H49.8098C49.6623 26.3932 49.5886 26.3195 49.5886 26.172V20.5025C49.5886 19.776 49.4411 19.2312 49.147 18.868C48.8528 18.4939 48.4345 18.3061 47.8912 18.3061C47.3363 18.3061 46.8893 18.4885 46.5493 18.8509C46.2777 19.1458 46.0852 19.5269 45.9719 19.9918C45.8702 20.4458 45.819 21.0302 45.819 21.7451V26.172C45.819 26.3195 45.746 26.3932 45.5986 26.3932H44.1891C44.0417 26.3932 43.9687 26.3195 43.9687 26.172V20.5025C43.9687 19.7993 43.8158 19.2599 43.51 18.8851C43.2042 18.4993 42.7797 18.3061 42.2364 18.3061C41.9648 18.3061 41.7156 18.3573 41.4898 18.4597C41.2632 18.5614 41.0707 18.7096 40.9124 18.9021C40.6632 19.1745 40.4824 19.5323 40.3691 19.9747C40.2558 20.4171 40.1991 21.0077 40.1991 21.7451V26.172C40.1991 26.3195 40.1254 26.3932 39.9787 26.3932H38.5522ZM32.2051 26.5803C30.8244 26.5803 29.8682 26.0642 29.3358 25.0311C29.1883 24.7362 29.0812 24.3955 29.0129 24.0098C28.9562 23.6233 28.9283 23.1188 28.9283 22.4948V17.1318C28.9283 16.9843 29.002 16.9106 29.1487 16.9106H30.5752C30.7227 16.9106 30.7956 16.9843 30.7956 17.1318V22.5111C30.7956 23.4766 30.9602 24.1456 31.2885 24.5205C31.5826 24.8387 32.0242 24.997 32.6125 24.997C33.2916 24.997 33.8179 24.7812 34.1919 24.3505C34.4411 24.0781 34.6219 23.7086 34.7352 23.2437C34.8485 22.7781 34.9052 22.1486 34.9052 21.3539V17.1318C34.9052 16.9843 34.9789 16.9106 35.1256 16.9106H36.5521C36.6988 16.9106 36.7725 16.9843 36.7725 17.1318V26.172C36.7725 26.3195 36.6988 26.3932 36.5521 26.3932H35.1256C34.9789 26.3932 34.9052 26.3195 34.9052 26.172V25.4735C34.9052 25.3602 34.8656 25.3036 34.7857 25.3036C34.7407 25.3036 34.684 25.3431 34.6165 25.4223C34.254 25.8313 33.8807 26.1262 33.4958 26.3079C33.1108 26.4895 32.6808 26.5803 32.2051 26.5803ZM23.9805 26.5803C22.8482 26.5803 21.8858 26.3195 21.0934 25.7972C20.301 25.264 19.8035 24.5034 19.5993 23.5162V23.4649C19.5993 23.34 19.6676 23.2779 19.8035 23.2779H21.2633C21.3875 23.2779 21.4675 23.34 21.5008 23.4649C21.6592 23.964 21.9479 24.3505 22.367 24.6221C22.7861 24.8945 23.3232 25.0311 23.9805 25.0311C24.5572 25.0311 25.0213 24.9233 25.3721 24.7075C25.7237 24.4809 25.8991 24.1627 25.8991 23.7544C25.8991 23.4362 25.7912 23.1871 25.5762 23.0055C25.3613 22.8122 25.0896 22.6648 24.7613 22.5623C24.433 22.4606 23.9968 22.3528 23.4536 22.2394C22.7069 22.0912 22.1008 21.9383 21.6367 21.7792C21.1803 21.6255 20.7705 21.3554 20.4484 20.9961C20.1201 20.6329 19.9564 20.1338 19.9564 19.4982C19.9564 18.601 20.2901 17.9149 20.9576 17.4384C21.6258 16.9618 22.4749 16.7228 23.5048 16.7228C24.5238 16.7228 25.3783 16.9781 26.0683 17.4896C26.7707 17.9886 27.2286 18.6926 27.4444 19.6006L27.4607 19.6682C27.4498 19.7822 27.3761 19.8389 27.2402 19.8389H25.9325C25.8083 19.8389 25.7291 19.776 25.695 19.6511C25.525 19.1862 25.2479 18.84 24.863 18.6126C24.4897 18.3744 24.0364 18.2556 23.5048 18.2556C22.9615 18.2556 22.537 18.3573 22.2312 18.5614C21.9254 18.7663 21.7725 19.0442 21.7725 19.3957C21.7725 19.6798 21.8749 19.9064 22.0783 20.0772C22.2824 20.2355 22.5315 20.3605 22.8257 20.4513C23.1315 20.5421 23.556 20.6391 24.0993 20.7408C24.8684 20.8882 25.4971 21.0473 25.9837 21.2173C26.4633 21.3717 26.8918 21.6542 27.2232 22.0345C27.574 22.4094 27.7494 22.9317 27.7494 23.6008C27.7494 24.5088 27.4156 25.2353 26.7482 25.7801C26.0799 26.3133 25.1571 26.5803 23.9805 26.5803ZM14.8573 20.6391C14.8573 17.5827 12.3869 15.1061 9.33904 15.1061C6.29122 15.1061 3.82006 17.5827 3.82006 20.6391H6.65445C6.65445 19.1528 7.85666 17.9475 9.33904 17.9475C10.8214 17.9475 12.0229 19.1528 12.0229 20.6391H14.8573ZM0 21.0644C0 24.12 2.47039 26.5974 5.51821 26.5974C8.56603 26.5974 11.0364 24.12 11.0364 21.0644H8.20281C8.20281 22.5507 7.0006 23.7552 5.51821 23.7552C4.03582 23.7552 2.83439 22.5507 2.83439 21.0644H0Z"/></g><defs><clipPath id="clip0_13658_13839"><rect width="104" height="40" fill="#fff"/></clipPath></defs></svg>