<svg xmlns="http://www.w3.org/2000/svg" width="71" height="40" fill="none" viewBox="0 0 71 40"><g clip-path="url(#clip0_13658_13801)"><path fill="#B2B2B2" d="M11.5624 10.5967L9.84926 13.4058L8.76294 15.186H13.5242L15.1771 12.4752L16.3237 10.5967H11.5624Z"/><path fill="#666" d="M19.3266 15.1855H15.9002H8.76294L11.1439 19.2575H13.5191H19.4153H21.7076L19.3266 15.1855Z"/><path fill="#666" d="M11.7422 20.369L10.0291 23.2997L6.46045 29.403H11.2217L12.4093 27.3716L15.3577 22.3286L16.5035 20.3682L11.7422 20.369Z"/><path fill="#666" d="M10.4677 20.3269L8.75454 17.3962L5.18587 11.292L2.80566 15.3648L3.99326 17.3962L6.94173 22.4385L8.08748 24.3988L10.4677 20.3269Z"/><path fill="#B2B2B2" d="M5.70632 20.3266L2.38709 20.2654L0.282227 20.2266L2.66243 24.2986L5.86701 24.3572L8.08736 24.3977L5.70632 20.3266Z"/><path fill="#B2B2B2" d="M14.1233 24.441L15.7302 27.3105L16.7487 29.1295L19.129 25.0575L17.5781 22.2881L16.5044 20.3682L14.1233 24.441Z"/></g><path fill="#666" d="M37.2449 16.1833L35.4069 23.3935H33.67L32.6905 19.6066C32.6703 19.5326 32.6434 19.4215 32.6097 19.2734C32.5828 19.1253 32.5491 18.9637 32.5087 18.7887C32.4751 18.6136 32.4448 18.4487 32.4178 18.2938C32.3909 18.1323 32.3707 18.0077 32.3572 17.9202C32.3505 18.0077 32.3303 18.1323 32.2967 18.2938C32.2697 18.4487 32.2394 18.6136 32.2058 18.7887C32.1721 18.957 32.1384 19.1185 32.1048 19.2734C32.0711 19.4215 32.0442 19.5359 32.024 19.6167L31.0546 23.3935H29.3176L27.4797 16.1833H28.9844L29.9033 20.1216C29.9303 20.2361 29.9606 20.3775 29.9942 20.5458C30.0279 20.7073 30.0616 20.879 30.0952 21.0608C30.1289 21.2358 30.1592 21.4075 30.1861 21.5758C30.2198 21.7441 30.2433 21.8888 30.2568 22.01C30.2703 21.8821 30.2904 21.7374 30.3174 21.5758C30.3443 21.4075 30.3746 21.2392 30.4083 21.0709C30.4419 20.8958 30.4722 20.7343 30.4991 20.5862C30.5328 20.4313 30.5631 20.3101 30.59 20.2226L31.6403 16.1833H33.0843L34.1346 20.2226C34.1548 20.3101 34.1817 20.4313 34.2153 20.5862C34.249 20.7343 34.2827 20.8958 34.3163 21.0709C34.35 21.2459 34.3803 21.4176 34.4072 21.5859C34.4341 21.7475 34.4543 21.8888 34.4678 22.01C34.488 21.8417 34.5183 21.6431 34.5587 21.4142C34.5991 21.1786 34.6428 20.943 34.69 20.7073C34.7438 20.4717 34.7876 20.2765 34.8212 20.1216L35.7402 16.1833H37.2449Z"/><path fill="#666" d="M39.3332 17.8798V23.3935H37.8285V17.8798H39.3332ZM38.5859 15.7188C38.808 15.7188 38.9999 15.7726 39.1615 15.8803C39.3231 15.9813 39.4038 16.1732 39.4038 16.4559C39.4038 16.732 39.3231 16.9238 39.1615 17.0315C38.9999 17.1393 38.808 17.1931 38.5859 17.1931C38.357 17.1931 38.1617 17.1393 38.0002 17.0315C37.8453 16.9238 37.7679 16.732 37.7679 16.4559C37.7679 16.1732 37.8453 15.9813 38.0002 15.8803C38.1617 15.7726 38.357 15.7188 38.5859 15.7188Z"/><path fill="#666" d="M43.8339 17.7788C44.4263 17.7788 44.9009 17.9404 45.2577 18.2635C45.6146 18.58 45.793 19.0916 45.793 19.7985V23.3935H44.2883V20.1721C44.2883 19.7749 44.2176 19.4787 44.0762 19.2835C43.9349 19.0815 43.7093 18.9805 43.3996 18.9805C42.9419 18.9805 42.6288 19.1387 42.4605 19.4551C42.2922 19.7648 42.208 20.2125 42.208 20.7982V23.3935H40.7034V17.8798H41.8546L42.0566 18.5867H42.1373C42.2585 18.3982 42.4066 18.2467 42.5817 18.1323C42.7567 18.0111 42.952 17.9236 43.1674 17.8697C43.3828 17.8091 43.605 17.7788 43.8339 17.7788Z"/><path fill="#666" d="M48.8853 23.4945C48.2727 23.4945 47.7712 23.2555 47.3807 22.7775C46.9969 22.2928 46.8051 21.5825 46.8051 20.6468C46.8051 19.7042 47.0003 18.9906 47.3908 18.5059C47.7813 18.0212 48.2929 17.7788 48.9257 17.7788C49.1883 17.7788 49.4206 17.8158 49.6225 17.8899C49.8245 17.9572 49.9962 18.0515 50.1375 18.1727C50.2856 18.2938 50.4102 18.4318 50.5112 18.5867H50.5617C50.5415 18.479 50.5179 18.3241 50.491 18.1222C50.4641 17.9135 50.4506 17.7014 50.4506 17.486V15.7188H51.9552V23.3935H50.804L50.5112 22.6765H50.4506C50.3563 22.8246 50.2352 22.9626 50.087 23.0906C49.9457 23.2117 49.7774 23.3094 49.5821 23.3834C49.3869 23.4575 49.1546 23.4945 48.8853 23.4945ZM49.4105 22.2928C49.8279 22.2928 50.1207 22.1716 50.289 21.9292C50.4573 21.6801 50.5448 21.3099 50.5516 20.8184V20.6568C50.5516 20.1183 50.4674 19.7076 50.2991 19.4248C50.1375 19.1421 49.8346 19.0007 49.3903 19.0007C49.0604 19.0007 48.8012 19.1455 48.6127 19.4349C48.4242 19.7177 48.3299 20.1284 48.3299 20.6669C48.3299 21.2055 48.4242 21.6128 48.6127 21.8888C48.8012 22.1581 49.0671 22.2928 49.4105 22.2928Z"/><path fill="#666" d="M59.7998 17.7788C60.4259 17.7788 60.8971 17.9404 61.2135 18.2635C61.5367 18.58 61.6983 19.0916 61.6983 19.7985V23.3935H60.1936V20.1721C60.1936 19.7749 60.1263 19.4787 59.9916 19.2835C59.857 19.0815 59.6483 18.9805 59.3655 18.9805C58.9683 18.9805 58.6856 19.1219 58.5173 19.4047C58.349 19.6874 58.2648 20.0947 58.2648 20.6266V23.3935H56.7602V20.1721C56.7602 19.9096 56.7299 19.6908 56.6693 19.5157C56.6087 19.3407 56.5178 19.2094 56.3966 19.1219C56.2754 19.0276 56.1206 18.9805 55.9321 18.9805C55.6561 18.9805 55.4373 19.0512 55.2757 19.1926C55.1141 19.334 54.9997 19.5393 54.9324 19.8086C54.865 20.0779 54.8314 20.4078 54.8314 20.7982V23.3935H53.3267V17.8798H54.4779L54.6799 18.5867H54.7607C54.8751 18.3982 55.0165 18.2467 55.1848 18.1323C55.3531 18.0111 55.5383 17.9236 55.7402 17.8697C55.9489 17.8091 56.1576 17.7788 56.3663 17.7788C56.7703 17.7788 57.1136 17.8461 57.3964 17.9808C57.6791 18.1087 57.8946 18.3107 58.0427 18.5867H58.1739C58.3422 18.3039 58.5745 18.0986 58.8707 17.9707C59.1737 17.8428 59.4834 17.7788 59.7998 17.7788Z"/><path fill="#666" d="M64.5503 17.8798V23.3935H63.0456V17.8798H64.5503ZM63.803 15.7188C64.0252 15.7188 64.217 15.7726 64.3786 15.8803C64.5402 15.9813 64.621 16.1732 64.621 16.4559C64.621 16.732 64.5402 16.9238 64.3786 17.0315C64.217 17.1393 64.0252 17.1931 63.803 17.1931C63.5741 17.1931 63.3789 17.1393 63.2173 17.0315C63.0624 16.9238 62.985 16.732 62.985 16.4559C62.985 16.1732 63.0624 15.9813 63.2173 15.8803C63.3789 15.7726 63.5741 15.7188 63.803 15.7188Z"/><path fill="#666" d="M67.4251 23.3935H65.9205V15.7188H67.4251V23.3935Z"/><path fill="#666" d="M70.3 23.3935H68.7954V15.7188H70.3V23.3935Z"/><defs><clipPath id="clip0_13658_13801"><rect width="21.425" height="21.157" fill="#fff" transform="translate(0.282227 9.4209)"/></clipPath></defs></svg>