<svg width="69" height="70" viewBox="0 0 69 70" fill="none" xmlns="http://www.w3.org/2000/svg">
<path d="M15.2275 1.57166H54.4668C62.0917 1.57181 68.2725 7.75335 68.2725 15.3783V54.6176C68.2723 62.2424 62.0916 68.4231 54.4668 68.4232H15.2275C7.60259 68.4232 1.42106 62.2425 1.4209 54.6176V15.3783C1.4209 7.87236 7.4107 1.76551 14.8711 1.57654L15.2275 1.57166Z" fill="white"/>
<path d="M15.2275 1.57166H54.4668C62.0917 1.57181 68.2725 7.75335 68.2725 15.3783V54.6176C68.2723 62.2424 62.0916 68.4231 54.4668 68.4232H15.2275C7.60259 68.4232 1.42106 62.2425 1.4209 54.6176V15.3783C1.4209 7.87236 7.4107 1.76551 14.8711 1.57654L15.2275 1.57166Z" fill="url(#paint0_linear_6329_18790)"/>
<path d="M15.2275 1.57166H54.4668C62.0917 1.57181 68.2725 7.75335 68.2725 15.3783V54.6176C68.2723 62.2424 62.0916 68.4231 54.4668 68.4232H15.2275C7.60259 68.4232 1.42106 62.2425 1.4209 54.6176V15.3783C1.4209 7.87236 7.4107 1.76551 14.8711 1.57654L15.2275 1.57166Z" stroke="#333333" stroke-width="1.4533"/>
<path d="M34.231 63.7449C18.5528 63.7449 5.8916 51.0837 5.8916 35.4055C5.8916 19.7274 18.5528 7.06616 34.231 7.06616C49.9092 7.06616 62.5704 19.7274 62.5704 35.4055C62.5704 51.0837 49.9092 63.7449 34.231 63.7449Z" fill="#FFF100"/>
<path d="M49.7494 31.0806H44.1768V39.4905H49.7494C52.06 39.4905 53.9799 37.5707 53.9799 35.2601C53.9799 32.9325 52.06 31.0806 49.7494 31.0806Z" fill="#0D0D0D"/>
<path d="M16.876 35.2937C16.876 41.7838 22.1598 47.0677 28.6499 47.0677C35.14 47.0677 40.4239 41.7838 40.4239 35.2937C40.4239 28.8036 35.14 23.5198 28.6499 23.5198C22.1598 23.5198 16.876 28.8036 16.876 35.2937Z" fill="#0D0D0D"/>
<defs>
<linearGradient id="paint0_linear_6329_18790" x1="34.8469" y1="0.845093" x2="34.8469" y2="69.1503" gradientUnits="userSpaceOnUse">
<stop stop-color="#0D0D0D"/>
<stop offset="1" stop-color="#1A1A1A"/>
</linearGradient>
</defs>
</svg>
