<svg width="65" height="73" viewBox="0 0 65 73" fill="none" xmlns="http://www.w3.org/2000/svg">
<path d="M32.3009 22.6164C14.4615 22.6164 0 18.2777 0 12.9204V27.7731C0 33.1272 14.4615 37.4691 32.3009 37.4691C50.1403 37.4691 64.6018 33.1272 64.6018 27.7731V12.9204C64.6018 18.2745 50.1403 22.6164 32.3009 22.6164Z" fill="#4C4C4C"/>
<path d="M32.3009 40.0588C14.4615 40.0588 0 35.7169 0 30.3628V45.2155C0 50.5696 14.4615 54.9115 32.3009 54.9115C50.1403 54.9115 64.6018 50.5696 64.6018 45.2155V30.3628C64.6018 35.7169 50.1403 40.0588 32.3009 40.0588Z" fill="#4C4C4C"/>
<path d="M32.3009 58.1471C14.4615 58.1471 0 53.8053 0 48.4512V63.3039C0 68.658 14.4615 72.9998 32.3009 72.9998C50.1403 72.9998 64.6018 68.658 64.6018 63.3039V48.4512C64.6018 53.8053 50.1403 58.1471 32.3009 58.1471Z" fill="#4C4C4C"/>
<path d="M32.3009 19.3805C50.1402 19.3805 64.6018 15.0421 64.6018 9.69027C64.6018 4.33848 50.1402 0 32.3009 0C14.4616 0 0 4.33848 0 9.69027C0 15.0421 14.4616 19.3805 32.3009 19.3805Z" fill="#4C4C4C"/>
</svg>
