<svg width="69" height="69" viewBox="0 0 69 69" fill="none" xmlns="http://www.w3.org/2000/svg">
<path d="M14.5332 0.844971H53.7725C61.3974 0.845129 67.5781 7.02666 67.5781 14.6516V53.8909C67.578 61.5157 61.3973 67.6964 53.7725 67.6965H14.5332C6.90826 67.6965 0.726721 61.5158 0.726562 53.8909V14.6516C0.726562 7.14568 6.71637 1.03882 14.1768 0.849854L14.5332 0.844971Z" fill="white"/>
<path d="M14.5332 0.844971H53.7725C61.3974 0.845129 67.5781 7.02666 67.5781 14.6516V53.8909C67.578 61.5157 61.3973 67.6964 53.7725 67.6965H14.5332C6.90826 67.6965 0.726721 61.5158 0.726562 53.8909V14.6516C0.726562 7.14568 6.71637 1.03882 14.1768 0.849854L14.5332 0.844971Z" fill="url(#paint0_linear_6329_18797)"/>
<path d="M14.5332 0.844971H53.7725C61.3974 0.845129 67.5781 7.02666 67.5781 14.6516V53.8909C67.578 61.5157 61.3973 67.6964 53.7725 67.6965H14.5332C6.90826 67.6965 0.726721 61.5158 0.726562 53.8909V14.6516C0.726562 7.14568 6.71637 1.03882 14.1768 0.849854L14.5332 0.844971Z" stroke="#333333" stroke-width="1.4533"/>
<path d="M59.5861 48.4405V20.1016L34.88 5.93164L10.1738 20.1016V48.4405L34.88 62.6104L59.5861 48.4405Z" fill="#2EAFFF"/>
<path d="M32.2744 23.2933V21.2688H32.2744L32.2744 23.2933ZM42.5195 29.847L40.6821 30.6969L41.2254 31.8715H42.5195V29.847ZM50.3047 33.9349L52.3292 33.935V33.9348L50.3047 33.9349ZM43.002 38.0765V36.052H41.5325L41.0771 37.4492L43.002 38.0765ZM32.2744 45.8617L32.2744 47.8862H32.2744V45.8617ZM20.9902 34.5775L18.9657 34.5775V34.5775H20.9902ZM32.2744 23.2933V25.3178C35.998 25.3178 39.2113 27.5171 40.6821 30.6969L42.5195 29.847L44.357 28.9972C42.2491 24.4398 37.6357 21.2688 32.2744 21.2688V23.2933ZM42.5195 29.847V31.8715H46.1631V29.847V27.8226H42.5195V29.847ZM46.1631 29.847V31.8715C47.3425 31.8715 48.2801 32.824 48.2802 33.9351L50.3047 33.9349L52.3292 33.9348C52.329 30.5196 49.51 27.8226 46.1631 27.8226V29.847ZM50.3047 33.9349L48.2802 33.9349C48.2802 35.0801 47.3082 36.052 46.1631 36.052V38.0765V40.101C49.5444 40.101 52.3292 37.3163 52.3292 33.935L50.3047 33.9349ZM46.1631 38.0765V36.052H43.002V38.0765V40.101H46.1631V38.0765ZM43.002 38.0765L41.0771 37.4492C39.8675 41.1604 36.3819 43.8372 32.2744 43.8372V45.8617V47.8862C38.1878 47.8862 43.1906 44.0304 44.9268 38.7039L43.002 38.0765ZM32.2744 45.8617L32.2745 43.8372C27.1604 43.8371 23.0147 39.6915 23.0147 34.5775H20.9902H18.9657C18.9657 41.9278 24.9242 47.8861 32.2744 47.8862L32.2744 45.8617ZM20.9902 34.5775L23.0147 34.5776C23.0148 29.4636 27.1605 25.3179 32.2745 25.3178L32.2744 23.2933L32.2744 21.2688C24.9243 21.269 18.9659 27.2274 18.9657 34.5775L20.9902 34.5775Z" fill="#0D0D0D"/>
<defs>
<linearGradient id="paint0_linear_6329_18797" x1="34.1526" y1="0.118408" x2="34.1526" y2="68.4236" gradientUnits="userSpaceOnUse">
<stop stop-color="#0D0D0D"/>
<stop offset="1" stop-color="#1A1A1A"/>
</linearGradient>
</defs>
</svg>
