<svg width="78" height="66" viewBox="0 0 78 66" fill="none" xmlns="http://www.w3.org/2000/svg">
<path d="M77.5009 11.8712V23.6432C77.5009 25.5627 75.9449 27.1188 74.0254 27.1188H3.97557C2.05606 27.1188 0.5 25.5627 0.5 23.6432V5.7722C0.5 2.82485 2.8893 0.435547 5.83665 0.435547H20.7382C22.2696 0.435547 23.7578 0.943432 24.9697 1.87967L29.1258 5.09045C30.3377 6.02669 31.8259 6.53457 33.3573 6.53457H72.1643C75.1116 6.53457 77.5009 8.92387 77.5009 11.8712Z" fill="#666666"/>
<path d="M5.81683 65.9225C27.7085 65.9773 61.7898 66.0373 73.4411 65.9703C75.8502 65.9565 77.5002 64.2361 77.5002 61.8269V17.2077C77.5002 14.2604 75.1109 11.8711 72.1636 11.8711H5.83665C2.8893 11.8711 0.5 14.2604 0.5 17.2077V60.5864C0.5 63.5281 2.87514 65.9151 5.81683 65.9225Z" fill="#4C4C4C"/>
<path d="M37.2443 47.4789C37.084 47.6552 37.1105 47.6954 38.002 48.6269V48.624C38.51 49.1549 38.9842 49.5767 39.0557 49.5612C39.1248 49.5469 41.7023 47.0171 44.7786 43.9425C49.4878 39.2374 50.351 38.3338 50.2397 38.2276C49.9492 37.9506 48.6211 37.3226 48.4865 37.3987C48.3338 37.4877 37.4983 47.1997 37.2443 47.4789Z" fill="#F5FBFF"/>
<path d="M34.8181 45.2295C34.7875 45.3068 35.0915 45.6785 35.5722 46.1517L35.5707 46.1507C36.0136 46.5865 36.4055 46.9433 36.4419 46.9433C36.5655 46.9433 42.8265 41.467 42.8265 41.3602C42.8265 41.2587 41.3608 40.168 41.2173 40.1627C41.1009 40.1592 34.8729 45.0897 34.8181 45.2295Z" fill="#F5FBFF"/>
<path d="M32.742 43.0862C32.6911 43.1325 32.9274 43.465 33.3037 43.8766C33.6608 44.2673 34.0304 44.587 34.1251 44.587C34.3218 44.587 37.2545 42.3762 37.2545 42.228C37.2545 42.1073 35.9475 41.01 35.802 41.0082C35.7125 41.0071 33.0045 42.8462 32.742 43.0862Z" fill="#F5FBFF"/>
<path d="M30.9564 41.2563C30.8342 41.3674 30.8986 41.4671 31.4374 42.0009V41.9998C31.7985 42.3576 32.1211 42.6006 32.2064 42.5791C32.4209 42.5257 41.2453 36.4734 41.2453 36.38C41.2453 36.2494 40.053 35.5424 39.9153 35.5914C39.7407 35.6555 31.1318 41.0968 30.9564 41.2563Z" fill="#F5FBFF"/>
<path d="M36.5364 40.5054C36.5342 40.5663 36.8231 40.8524 37.1785 41.1413C37.5341 41.4303 37.8908 41.6658 37.9719 41.6651C38.1282 41.6651 45.5969 35.9984 45.6509 35.8399C45.6883 35.7306 44.5246 35.0719 44.2947 35.0719C44.2089 35.0719 42.7411 36.055 41.0333 37.2563C39.3244 38.4577 37.6152 39.6552 37.2338 39.9175C36.8526 40.1801 36.5386 40.4446 36.5364 40.5054Z" fill="#F5FBFF"/>
<path d="M29.3283 39.6484C29.2174 39.7473 29.2788 39.8535 29.7031 40.2928H29.6998C29.9791 40.5819 30.277 40.8185 30.3619 40.8184C30.5401 40.8184 36.5544 37.121 36.6011 36.9836C36.6371 36.8775 35.5067 36.0788 35.4002 36.1354C34.7566 36.478 29.4244 39.5625 29.3283 39.6484Z" fill="#F5FBFF"/>
<path d="M41.8528 39.7309C41.8714 39.785 42.2059 40.0538 42.596 40.328V40.3296C42.9865 40.6039 43.3796 40.8158 43.4697 40.8007C43.666 40.7651 47.8781 37.1381 47.8801 36.9979C47.8808 36.9431 47.5357 36.7179 47.1129 36.4973C46.4437 36.1482 46.321 36.1123 46.165 36.2201C45.364 36.7745 41.8266 39.6535 41.8528 39.7309Z" fill="#F5FBFF"/>
<path d="M27.7539 38.2938L28.2669 38.8026L28.2678 38.802C28.5499 39.0818 28.7929 39.3108 28.8077 39.3108C28.9422 39.3108 40.0899 32.9365 40.0899 32.8589C40.0899 32.8022 39.8566 32.6438 39.5714 32.5068L39.0529 32.2578L33.6318 35.1313C30.6493 36.7118 28.1069 38.0698 27.9816 38.1493L27.7539 38.2938Z" fill="#F5FBFF"/>
<path d="M36.1477 35.7928C36.1474 35.8526 36.3527 36.0528 36.604 36.2375C36.8554 36.4223 37.1328 36.5746 37.2196 36.576C37.3941 36.5792 41.8226 33.8677 41.8226 33.756C41.8226 33.7168 41.5619 33.5485 41.2431 33.3821L40.6635 33.0796L38.406 34.3817C37.1643 35.0981 36.148 35.733 36.1477 35.7928Z" fill="#F5FBFF"/>
<path d="M40.5759 35.2291C40.5748 35.29 40.8229 35.4901 41.1271 35.6742C41.4314 35.8583 41.7268 36.0103 41.7835 36.0117C41.8867 36.0142 43.1694 35.1813 43.4818 34.9089C43.5731 34.8293 43.6273 34.7314 43.6021 34.6915C43.5184 34.559 42.4837 34.0244 42.3677 34.0538C42.1153 34.1179 40.5777 35.1264 40.5759 35.2291Z" fill="#F5FBFF"/>
</svg>
